<ttFont>
    <TTGlyph name="A" xMin="17" yMin="-1" xMax="655" yMax="646">
      <contour>
        <pt x="87" y="26" on="1"/>
        <pt x="87" y="28" on="0"/>
        <pt x="88" y="34" on="0"/>
        <pt x="88" y="34" on="1"/>
        <pt x="103" y="63" on="0"/>
        <pt x="136" y="117" on="0"/>
        <pt x="171" y="170" on="0"/>
        <pt x="204" y="225" on="0"/>
        <pt x="218" y="253" on="1"/>
        <pt x="214" y="262" on="0"/>
        <pt x="182" y="276" on="0"/>
        <pt x="137" y="292" on="0"/>
        <pt x="87" y="313" on="0"/>
        <pt x="45" y="342" on="0"/>
        <pt x="17" y="381" on="0"/>
        <pt x="17" y="407" on="1"/>
        <pt x="17" y="434" on="0"/>
        <pt x="53" y="475" on="0"/>
        <pt x="105" y="502" on="0"/>
        <pt x="163" y="516" on="0"/>
        <pt x="184" y="516" on="1"/>
        <pt x="228" y="516" on="0"/>
        <pt x="295" y="486" on="0"/>
        <pt x="331" y="462" on="1"/>
        <pt x="343" y="471" on="0"/>
        <pt x="360" y="493" on="0"/>
        <pt x="367" y="506" on="1"/>
        <pt x="370" y="513" on="0"/>
        <pt x="391" y="550" on="0"/>
        <pt x="412" y="592" on="0"/>
        <pt x="433" y="629" on="0"/>
        <pt x="436" y="637" on="1"/>
        <pt x="444" y="643" on="0"/>
        <pt x="454" y="646" on="0"/>
        <pt x="463" y="646" on="1"/>
        <pt x="464" y="646" on="0"/>
        <pt x="471" y="646" on="0"/>
        <pt x="472" y="646" on="1"/>
        <pt x="482" y="604" on="0"/>
        <pt x="492" y="516" on="0"/>
        <pt x="497" y="428" on="0"/>
        <pt x="501" y="340" on="0"/>
        <pt x="506" y="296" on="1"/>
        <pt x="509" y="296" on="0"/>
        <pt x="525" y="295" on="0"/>
        <pt x="529" y="295" on="1"/>
        <pt x="543" y="295" on="0"/>
        <pt x="571" y="301" on="0"/>
        <pt x="599" y="308" on="0"/>
        <pt x="628" y="314" on="0"/>
        <pt x="643" y="314" on="1"/>
        <pt x="646" y="314" on="1"/>
        <pt x="647" y="313" on="0"/>
        <pt x="653" y="307" on="0"/>
        <pt x="655" y="306" on="1"/>
        <pt x="649" y="295" on="0"/>
        <pt x="622" y="282" on="0"/>
        <pt x="589" y="274" on="0"/>
        <pt x="553" y="267" on="0"/>
        <pt x="525" y="258" on="0"/>
        <pt x="506" y="246" on="0"/>
        <pt x="506" y="235" on="1"/>
        <pt x="506" y="215" on="0"/>
        <pt x="511" y="175" on="0"/>
        <pt x="518" y="134" on="0"/>
        <pt x="524" y="93" on="0"/>
        <pt x="524" y="72" on="1"/>
        <pt x="524" y="67" on="0"/>
        <pt x="523" y="49" on="0"/>
        <pt x="520" y="31" on="0"/>
        <pt x="511" y="17" on="0"/>
        <pt x="502" y="17" on="1"/>
        <pt x="492" y="17" on="0"/>
        <pt x="476" y="47" on="0"/>
        <pt x="466" y="93" on="0"/>
        <pt x="459" y="148" on="0"/>
        <pt x="454" y="199" on="0"/>
        <pt x="448" y="238" on="0"/>
        <pt x="445" y="244" on="1"/>
        <pt x="437" y="245" on="0"/>
        <pt x="394" y="247" on="0"/>
        <pt x="347" y="250" on="0"/>
        <pt x="305" y="253" on="0"/>
        <pt x="297" y="253" on="1"/>
        <pt x="287" y="253" on="1"/>
        <pt x="267" y="253" on="0"/>
        <pt x="232" y="216" on="0"/>
        <pt x="203" y="159" on="0"/>
        <pt x="175" y="94" on="0"/>
        <pt x="149" y="37" on="0"/>
        <pt x="121" y="-1" on="0"/>
        <pt x="105" y="-1" on="1"/>
        <pt x="94" y="-1" on="0"/>
        <pt x="87" y="16" on="0"/>
      </contour>
      <contour>
        <pt x="288" y="296" on="1"/>
        <pt x="296" y="291" on="0"/>
        <pt x="319" y="286" on="0"/>
        <pt x="343" y="286" on="0"/>
        <pt x="364" y="286" on="0"/>
        <pt x="372" y="286" on="1"/>
        <pt x="376" y="286" on="0"/>
        <pt x="388" y="287" on="0"/>
        <pt x="400" y="287" on="0"/>
        <pt x="409" y="288" on="0"/>
        <pt x="410" y="288" on="1"/>
        <pt x="419" y="296" on="1"/>
        <pt x="421" y="298" on="0"/>
        <pt x="403" y="330" on="0"/>
        <pt x="376" y="365" on="0"/>
        <pt x="350" y="394" on="0"/>
        <pt x="345" y="394" on="1"/>
        <pt x="344" y="394" on="0"/>
        <pt x="342" y="392" on="0"/>
        <pt x="340" y="392" on="1"/>
        <pt x="325" y="370" on="0"/>
        <pt x="299" y="322" on="0"/>
      </contour>
      <contour>
        <pt x="61" y="408" on="1"/>
        <pt x="61" y="382" on="0"/>
        <pt x="97" y="343" on="0"/>
        <pt x="149" y="317" on="0"/>
        <pt x="207" y="305" on="0"/>
        <pt x="229" y="305" on="1"/>
        <pt x="243" y="305" on="0"/>
        <pt x="273" y="334" on="0"/>
        <pt x="298" y="372" on="0"/>
        <pt x="315" y="412" on="0"/>
        <pt x="315" y="423" on="1"/>
        <pt x="315" y="435" on="0"/>
        <pt x="283" y="456" on="0"/>
        <pt x="240" y="472" on="0"/>
        <pt x="198" y="481" on="0"/>
        <pt x="188" y="481" on="1"/>
        <pt x="173" y="481" on="0"/>
        <pt x="130" y="472" on="0"/>
        <pt x="89" y="454" on="0"/>
        <pt x="61" y="427" on="0"/>
      </contour>
      <contour>
        <pt x="375" y="441" on="1"/>
        <pt x="375" y="428" on="0"/>
        <pt x="395" y="390" on="0"/>
        <pt x="423" y="354" on="0"/>
        <pt x="454" y="328" on="0"/>
        <pt x="466" y="328" on="1"/>
        <pt x="466" y="333" on="0"/>
        <pt x="465" y="353" on="0"/>
        <pt x="464" y="377" on="0"/>
        <pt x="463" y="397" on="0"/>
        <pt x="463" y="402" on="1"/>
        <pt x="461" y="416" on="0"/>
        <pt x="456" y="462" on="0"/>
        <pt x="451" y="506" on="0"/>
        <pt x="446" y="540" on="0"/>
        <pt x="445" y="541" on="1"/>
        <pt x="436" y="558" on="1"/>
        <pt x="435" y="557" on="0"/>
        <pt x="428" y="551" on="0"/>
        <pt x="427" y="550" on="1"/>
        <pt x="424" y="544" on="0"/>
        <pt x="410" y="517" on="0"/>
        <pt x="393" y="487" on="0"/>
        <pt x="379" y="459" on="0"/>
        <pt x="376" y="454" on="1"/>
        <pt x="376" y="452" on="0"/>
        <pt x="375" y="442" on="0"/>
      </contour>
    </TTGlyph>
    <TTGlyph name="AE" xMin="17" yMin="-1" xMax="973" yMax="646">
      <contour>
        <pt x="87" y="26" on="1"/>
        <pt x="87" y="28" on="0"/>
        <pt x="88" y="34" on="0"/>
        <pt x="88" y="34" on="1"/>
        <pt x="103" y="63" on="0"/>
        <pt x="136" y="117" on="0"/>
        <pt x="171" y="170" on="0"/>
        <pt x="204" y="225" on="0"/>
        <pt x="218" y="253" on="1"/>
        <pt x="214" y="262" on="0"/>
        <pt x="182" y="276" on="0"/>
        <pt x="137" y="292" on="0"/>
        <pt x="87" y="313" on="0"/>
        <pt x="45" y="342" on="0"/>
        <pt x="17" y="381" on="0"/>
        <pt x="17" y="407" on="1"/>
        <pt x="17" y="434" on="0"/>
        <pt x="53" y="475" on="0"/>
        <pt x="105" y="502" on="0"/>
        <pt x="163" y="516" on="0"/>
        <pt x="184" y="516" on="1"/>
        <pt x="228" y="516" on="0"/>
        <pt x="295" y="486" on="0"/>
        <pt x="331" y="462" on="1"/>
        <pt x="343" y="471" on="0"/>
        <pt x="360" y="493" on="0"/>
        <pt x="367" y="506" on="1"/>
        <pt x="370" y="513" on="0"/>
        <pt x="391" y="550" on="0"/>
        <pt x="412" y="592" on="0"/>
        <pt x="433" y="629" on="0"/>
        <pt x="436" y="637" on="1"/>
        <pt x="444" y="643" on="0"/>
        <pt x="454" y="646" on="0"/>
        <pt x="463" y="646" on="1"/>
        <pt x="464" y="646" on="0"/>
        <pt x="471" y="646" on="0"/>
        <pt x="472" y="646" on="1"/>
        <pt x="481" y="609" on="0"/>
        <pt x="490" y="533" on="0"/>
        <pt x="493" y="495" on="1"/>
        <pt x="524" y="506" on="0"/>
        <pt x="603" y="523" on="0"/>
        <pt x="678" y="533" on="0"/>
        <pt x="741" y="538" on="0"/>
        <pt x="758" y="538" on="1"/>
        <pt x="781" y="538" on="1"/>
        <pt x="790" y="538" on="0"/>
        <pt x="819" y="535" on="0"/>
        <pt x="847" y="532" on="0"/>
        <pt x="857" y="531" on="1"/>
        <pt x="868" y="530" on="1"/>
        <pt x="877" y="521" on="1"/>
        <pt x="868" y="512" on="1"/>
        <pt x="823" y="511" on="0"/>
        <pt x="741" y="505" on="0"/>
        <pt x="660" y="496" on="0"/>
        <pt x="578" y="481" on="0"/>
        <pt x="536" y="469" on="1"/>
        <pt x="535" y="467" on="0"/>
        <pt x="533" y="454" on="0"/>
        <pt x="530" y="441" on="0"/>
        <pt x="528" y="428" on="0"/>
        <pt x="527" y="425" on="1"/>
        <pt x="527" y="418" on="1"/>
        <pt x="527" y="415" on="0"/>
        <pt x="529" y="404" on="0"/>
        <pt x="529" y="396" on="0"/>
        <pt x="529" y="394" on="1"/>
        <pt x="611" y="394" on="0"/>
        <pt x="771" y="409" on="0"/>
        <pt x="853" y="409" on="1"/>
        <pt x="865" y="409" on="1"/>
        <pt x="871" y="409" on="0"/>
        <pt x="880" y="406" on="0"/>
        <pt x="886" y="397" on="0"/>
        <pt x="886" y="389" on="1"/>
        <pt x="886" y="384" on="0"/>
        <pt x="841" y="367" on="0"/>
        <pt x="773" y="346" on="0"/>
        <pt x="691" y="320" on="0"/>
        <pt x="655" y="306" on="1"/>
        <pt x="646" y="292" on="0"/>
        <pt x="607" y="277" on="0"/>
        <pt x="583" y="273" on="1"/>
        <pt x="569" y="263" on="0"/>
        <pt x="553" y="246" on="0"/>
        <pt x="553" y="237" on="1"/>
        <pt x="553" y="235" on="1"/>
        <pt x="553" y="234" on="0"/>
        <pt x="553" y="233" on="1"/>
        <pt x="554" y="232" on="0"/>
        <pt x="562" y="226" on="0"/>
        <pt x="562" y="224" on="1"/>
        <pt x="562" y="223" on="0"/>
        <pt x="563" y="223" on="1"/>
        <pt x="563" y="221" on="1"/>
        <pt x="564" y="220" on="1"/>
        <pt x="563" y="218" on="1"/>
        <pt x="562" y="217" on="0"/>
        <pt x="562" y="216" on="1"/>
        <pt x="553" y="207" on="1"/>
        <pt x="552" y="204" on="0"/>
        <pt x="545" y="191" on="0"/>
        <pt x="545" y="190" on="1"/>
        <pt x="545" y="157" on="0"/>
        <pt x="568" y="110" on="0"/>
        <pt x="606" y="81" on="0"/>
        <pt x="657" y="67" on="0"/>
        <pt x="685" y="67" on="1"/>
        <pt x="724" y="67" on="0"/>
        <pt x="788" y="89" on="0"/>
        <pt x="844" y="127" on="0"/>
        <pt x="895" y="178" on="0"/>
        <pt x="920" y="207" on="1"/>
        <pt x="921" y="208" on="0"/>
        <pt x="926" y="217" on="0"/>
        <pt x="932" y="229" on="0"/>
        <pt x="937" y="239" on="0"/>
        <pt x="937" y="242" on="1"/>
        <pt x="937" y="243" on="0"/>
        <pt x="938" y="250" on="0"/>
        <pt x="938" y="252" on="1"/>
        <pt x="938" y="258" on="0"/>
        <pt x="931" y="265" on="0"/>
        <pt x="921" y="268" on="0"/>
        <pt x="910" y="269" on="0"/>
        <pt x="904" y="269" on="1"/>
        <pt x="904" y="283" on="0"/>
        <pt x="930" y="294" on="0"/>
        <pt x="942" y="294" on="1"/>
        <pt x="957" y="294" on="0"/>
        <pt x="973" y="274" on="0"/>
        <pt x="973" y="259" on="1"/>
        <pt x="973" y="231" on="0"/>
        <pt x="943" y="174" on="0"/>
        <pt x="895" y="121" on="0"/>
        <pt x="832" y="76" on="0"/>
        <pt x="766" y="43" on="0"/>
        <pt x="702" y="23" on="0"/>
        <pt x="676" y="23" on="1"/>
        <pt x="639" y="23" on="0"/>
        <pt x="586" y="44" on="0"/>
        <pt x="548" y="81" on="0"/>
        <pt x="523" y="130" on="0"/>
        <pt x="514" y="160" on="1"/>
        <pt x="517" y="138" on="0"/>
        <pt x="524" y="94" on="0"/>
        <pt x="524" y="72" on="1"/>
        <pt x="524" y="67" on="0"/>
        <pt x="523" y="49" on="0"/>
        <pt x="520" y="31" on="0"/>
        <pt x="511" y="17" on="0"/>
        <pt x="502" y="17" on="1"/>
        <pt x="492" y="17" on="0"/>
        <pt x="476" y="47" on="0"/>
        <pt x="466" y="93" on="0"/>
        <pt x="459" y="148" on="0"/>
        <pt x="454" y="199" on="0"/>
        <pt x="448" y="238" on="0"/>
        <pt x="445" y="244" on="1"/>
        <pt x="297" y="253" on="1"/>
        <pt x="287" y="253" on="1"/>
        <pt x="267" y="253" on="0"/>
        <pt x="232" y="216" on="0"/>
        <pt x="203" y="159" on="0"/>
        <pt x="175" y="94" on="0"/>
        <pt x="149" y="37" on="0"/>
        <pt x="121" y="-1" on="0"/>
        <pt x="105" y="-1" on="1"/>
        <pt x="94" y="-1" on="0"/>
        <pt x="87" y="16" on="0"/>
      </contour>
      <contour>
        <pt x="61" y="408" on="1"/>
        <pt x="61" y="382" on="0"/>
        <pt x="97" y="343" on="0"/>
        <pt x="149" y="317" on="0"/>
        <pt x="207" y="305" on="0"/>
        <pt x="229" y="305" on="1"/>
        <pt x="243" y="305" on="0"/>
        <pt x="273" y="334" on="0"/>
        <pt x="298" y="372" on="0"/>
        <pt x="315" y="412" on="0"/>
        <pt x="315" y="423" on="1"/>
        <pt x="315" y="435" on="0"/>
        <pt x="283" y="456" on="0"/>
        <pt x="240" y="472" on="0"/>
        <pt x="198" y="481" on="0"/>
        <pt x="188" y="481" on="1"/>
        <pt x="173" y="481" on="0"/>
        <pt x="130" y="472" on="0"/>
        <pt x="89" y="454" on="0"/>
        <pt x="61" y="427" on="0"/>
      </contour>
      <contour>
        <pt x="375" y="441" on="1"/>
        <pt x="375" y="428" on="0"/>
        <pt x="395" y="390" on="0"/>
        <pt x="423" y="354" on="0"/>
        <pt x="454" y="328" on="0"/>
        <pt x="466" y="328" on="1"/>
        <pt x="466" y="333" on="0"/>
        <pt x="465" y="353" on="0"/>
        <pt x="464" y="377" on="0"/>
        <pt x="463" y="397" on="0"/>
        <pt x="463" y="402" on="1"/>
        <pt x="460" y="403" on="0"/>
        <pt x="461" y="427" on="0"/>
        <pt x="463" y="460" on="0"/>
        <pt x="466" y="499" on="0"/>
        <pt x="461" y="532" on="0"/>
        <pt x="449" y="556" on="0"/>
        <pt x="436" y="558" on="1"/>
        <pt x="435" y="557" on="0"/>
        <pt x="428" y="551" on="0"/>
        <pt x="427" y="550" on="1"/>
        <pt x="376" y="454" on="1"/>
        <pt x="376" y="452" on="0"/>
        <pt x="375" y="442" on="0"/>
      </contour>
      <contour>
        <pt x="288" y="296" on="1"/>
        <pt x="296" y="291" on="0"/>
        <pt x="319" y="286" on="0"/>
        <pt x="343" y="286" on="0"/>
        <pt x="364" y="286" on="0"/>
        <pt x="372" y="286" on="1"/>
        <pt x="376" y="286" on="0"/>
        <pt x="388" y="287" on="0"/>
        <pt x="400" y="287" on="0"/>
        <pt x="409" y="288" on="0"/>
        <pt x="410" y="288" on="1"/>
        <pt x="419" y="296" on="1"/>
        <pt x="421" y="298" on="0"/>
        <pt x="403" y="330" on="0"/>
        <pt x="376" y="365" on="0"/>
        <pt x="350" y="394" on="0"/>
        <pt x="345" y="394" on="1"/>
        <pt x="344" y="394" on="0"/>
        <pt x="342" y="392" on="0"/>
        <pt x="340" y="392" on="1"/>
        <pt x="325" y="370" on="0"/>
        <pt x="299" y="322" on="0"/>
      </contour>
      <contour>
        <pt x="526" y="376" on="1"/>
        <pt x="526" y="355" on="0"/>
        <pt x="527" y="339" on="1"/>
        <pt x="529" y="325" on="0"/>
        <pt x="532" y="303" on="0"/>
        <pt x="536" y="303" on="1"/>
        <pt x="545" y="303" on="1"/>
        <pt x="546" y="303" on="0"/>
        <pt x="570" y="313" on="0"/>
        <pt x="603" y="326" on="0"/>
        <pt x="638" y="341" on="0"/>
        <pt x="649" y="346" on="1"/>
        <pt x="684" y="364" on="1"/>
        <pt x="667" y="369" on="0"/>
        <pt x="625" y="373" on="0"/>
        <pt x="581" y="376" on="0"/>
        <pt x="561" y="376" on="1"/>
      </contour>
    </TTGlyph>
    <TTGlyph name="AEacute" xMin="17" yMin="-1" xMax="973" yMax="836">
      <component glyphName="AE" x="0" y="0" flags="0x1204"/>
      <component glyphName="acute" x="500" y="183" flags="0x1004"/>
    </TTGlyph>
    <TTGlyph name="Aacute" xMin="17" yMin="-1" xMax="655" yMax="838">
      <component glyphName="A" x="0" y="0" flags="0x1204"/>
      <component glyphName="acute" x="406" y="185" flags="0x1004"/>
    </TTGlyph>
    <TTGlyph name="Abreve" xMin="17" yMin="-1" xMax="655" yMax="794">
      <component glyphName="A" x="0" y="0" flags="0x1204"/>
      <component glyphName="breve" x="241" y="154" flags="0x1004"/>
    </TTGlyph>
    <TTGlyph name="Acircumflex" xMin="17" yMin="-1" xMax="655" yMax="857">
      <component glyphName="A" x="0" y="0" flags="0x1204"/>
      <component glyphName="circumflex" x="231" y="154" flags="0x1004"/>
    </TTGlyph>
    <TTGlyph name="Adieresis" xMin="17" yMin="-1" xMax="655" yMax="738">
      <component glyphName="A" x="0" y="0" flags="0x1204"/>
      <component glyphName="dieresis" x="267" y="162" flags="0x1004"/>
    </TTGlyph>
    <TTGlyph name="Agrave" xMin="17" yMin="-1" xMax="655" yMax="841">
      <component glyphName="A" x="0" y="0" flags="0x1204"/>
      <component glyphName="grave" x="363" y="177" flags="0x1004"/>
    </TTGlyph>
    <TTGlyph name="Amacron" xMin="17" yMin="-1" xMax="655" yMax="735">
      <component glyphName="A" x="0" y="0" flags="0x1204"/>
      <component glyphName="macron" x="276" y="166" flags="0x1004"/>
    </TTGlyph>
    <TTGlyph name="Aogonek" xMin="17" yMin="-116" xMax="655" yMax="646">
      <contour>
        <pt x="87" y="26" on="1"/>
        <pt x="87" y="28" on="0"/>
        <pt x="88" y="34" on="0"/>
        <pt x="88" y="34" on="1"/>
        <pt x="103" y="63" on="0"/>
        <pt x="136" y="117" on="0"/>
        <pt x="171" y="170" on="0"/>
        <pt x="204" y="225" on="0"/>
        <pt x="218" y="253" on="1"/>
        <pt x="214" y="262" on="0"/>
        <pt x="182" y="276" on="0"/>
        <pt x="137" y="292" on="0"/>
        <pt x="87" y="313" on="0"/>
        <pt x="45" y="342" on="0"/>
        <pt x="17" y="381" on="0"/>
        <pt x="17" y="407" on="1"/>
        <pt x="17" y="434" on="0"/>
        <pt x="53" y="475" on="0"/>
        <pt x="105" y="502" on="0"/>
        <pt x="163" y="516" on="0"/>
        <pt x="184" y="516" on="1"/>
        <pt x="228" y="516" on="0"/>
        <pt x="295" y="486" on="0"/>
        <pt x="331" y="462" on="1"/>
        <pt x="343" y="471" on="0"/>
        <pt x="360" y="493" on="0"/>
        <pt x="367" y="506" on="1"/>
        <pt x="370" y="513" on="0"/>
        <pt x="391" y="550" on="0"/>
        <pt x="412" y="592" on="0"/>
        <pt x="433" y="629" on="0"/>
        <pt x="436" y="637" on="1"/>
        <pt x="444" y="643" on="0"/>
        <pt x="454" y="646" on="0"/>
        <pt x="463" y="646" on="1"/>
        <pt x="464" y="646" on="0"/>
        <pt x="471" y="646" on="0"/>
        <pt x="472" y="646" on="1"/>
        <pt x="482" y="604" on="0"/>
        <pt x="492" y="516" on="0"/>
        <pt x="497" y="428" on="0"/>
        <pt x="501" y="340" on="0"/>
        <pt x="506" y="296" on="1"/>
        <pt x="509" y="296" on="0"/>
        <pt x="525" y="295" on="0"/>
        <pt x="529" y="295" on="1"/>
        <pt x="543" y="295" on="0"/>
        <pt x="571" y="301" on="0"/>
        <pt x="599" y="308" on="0"/>
        <pt x="628" y="314" on="0"/>
        <pt x="643" y="314" on="1"/>
        <pt x="646" y="314" on="1"/>
        <pt x="647" y="313" on="0"/>
        <pt x="650" y="310" on="1"/>
        <pt x="655" y="306" on="1"/>
        <pt x="649" y="295" on="0"/>
        <pt x="622" y="282" on="0"/>
        <pt x="589" y="274" on="0"/>
        <pt x="553" y="267" on="0"/>
        <pt x="525" y="258" on="0"/>
        <pt x="506" y="246" on="0"/>
        <pt x="506" y="235" on="1"/>
        <pt x="506" y="215" on="0"/>
        <pt x="511" y="175" on="0"/>
        <pt x="518" y="134" on="0"/>
        <pt x="524" y="93" on="0"/>
        <pt x="524" y="72" on="1"/>
        <pt x="524" y="67" on="0"/>
        <pt x="523" y="49" on="0"/>
        <pt x="520" y="31" on="0"/>
        <pt x="511" y="17" on="0"/>
        <pt x="502" y="17" on="1"/>
        <pt x="498" y="17" on="0"/>
        <pt x="493" y="19" on="1"/>
        <pt x="490" y="13" on="0"/>
        <pt x="487" y="5" on="1"/>
        <pt x="481" y="-20" on="0"/>
        <pt x="496" y="-59" on="1"/>
        <pt x="500" y="-71" on="0"/>
        <pt x="518" y="-75" on="0"/>
        <pt x="539" y="-68" on="0"/>
        <pt x="563" y="-56" on="0"/>
        <pt x="585" y="-50" on="0"/>
        <pt x="604" y="-56" on="0"/>
        <pt x="609" y="-71" on="1"/>
        <pt x="610" y="-84" on="0"/>
        <pt x="585" y="-104" on="0"/>
        <pt x="547" y="-116" on="0"/>
        <pt x="506" y="-116" on="0"/>
        <pt x="492" y="-110" on="1"/>
        <pt x="478" y="-107" on="0"/>
        <pt x="457" y="-82" on="0"/>
        <pt x="451" y="-65" on="1"/>
        <pt x="447" y="-54" on="0"/>
        <pt x="451" y="-17" on="0"/>
        <pt x="462" y="19" on="0"/>
        <pt x="469" y="32" on="1"/>
        <pt x="474" y="40" on="0"/>
        <pt x="478" y="44" on="1"/>
        <pt x="474" y="55" on="0"/>
        <pt x="471" y="70" on="1"/>
        <pt x="466" y="93" on="0"/>
        <pt x="459" y="148" on="0"/>
        <pt x="454" y="199" on="0"/>
        <pt x="448" y="238" on="0"/>
        <pt x="445" y="244" on="1"/>
        <pt x="437" y="245" on="0"/>
        <pt x="394" y="247" on="0"/>
        <pt x="347" y="250" on="0"/>
        <pt x="305" y="253" on="0"/>
        <pt x="297" y="253" on="1"/>
        <pt x="287" y="253" on="1"/>
        <pt x="267" y="253" on="0"/>
        <pt x="232" y="216" on="0"/>
        <pt x="203" y="159" on="0"/>
        <pt x="175" y="94" on="0"/>
        <pt x="149" y="37" on="0"/>
        <pt x="121" y="-1" on="0"/>
        <pt x="105" y="-1" on="1"/>
        <pt x="94" y="-1" on="0"/>
        <pt x="87" y="16" on="0"/>
      </contour>
      <contour>
        <pt x="61" y="408" on="1"/>
        <pt x="61" y="382" on="0"/>
        <pt x="97" y="343" on="0"/>
        <pt x="149" y="317" on="0"/>
        <pt x="207" y="305" on="0"/>
        <pt x="229" y="305" on="1"/>
        <pt x="243" y="305" on="0"/>
        <pt x="273" y="334" on="0"/>
        <pt x="298" y="372" on="0"/>
        <pt x="315" y="412" on="0"/>
        <pt x="315" y="423" on="1"/>
        <pt x="315" y="435" on="0"/>
        <pt x="283" y="456" on="0"/>
        <pt x="240" y="472" on="0"/>
        <pt x="198" y="481" on="0"/>
        <pt x="188" y="481" on="1"/>
        <pt x="173" y="481" on="0"/>
        <pt x="130" y="472" on="0"/>
        <pt x="89" y="454" on="0"/>
        <pt x="61" y="427" on="0"/>
      </contour>
      <contour>
        <pt x="375" y="441" on="1"/>
        <pt x="375" y="428" on="0"/>
        <pt x="395" y="390" on="0"/>
        <pt x="423" y="354" on="0"/>
        <pt x="454" y="328" on="0"/>
        <pt x="466" y="328" on="1"/>
        <pt x="466" y="333" on="0"/>
        <pt x="465" y="353" on="0"/>
        <pt x="464" y="377" on="0"/>
        <pt x="463" y="397" on="0"/>
        <pt x="463" y="402" on="1"/>
        <pt x="461" y="416" on="0"/>
        <pt x="456" y="462" on="0"/>
        <pt x="451" y="506" on="0"/>
        <pt x="446" y="540" on="0"/>
        <pt x="445" y="541" on="1"/>
        <pt x="436" y="558" on="1"/>
        <pt x="435" y="557" on="0"/>
        <pt x="428" y="551" on="0"/>
        <pt x="427" y="550" on="1"/>
        <pt x="424" y="544" on="0"/>
        <pt x="410" y="517" on="0"/>
        <pt x="393" y="487" on="0"/>
        <pt x="379" y="459" on="0"/>
        <pt x="376" y="454" on="1"/>
        <pt x="376" y="452" on="0"/>
        <pt x="375" y="442" on="0"/>
      </contour>
      <contour>
        <pt x="288" y="296" on="1"/>
        <pt x="296" y="291" on="0"/>
        <pt x="319" y="286" on="0"/>
        <pt x="343" y="286" on="0"/>
        <pt x="364" y="286" on="0"/>
        <pt x="372" y="286" on="1"/>
        <pt x="376" y="286" on="0"/>
        <pt x="388" y="287" on="0"/>
        <pt x="400" y="287" on="0"/>
        <pt x="409" y="288" on="0"/>
        <pt x="410" y="288" on="1"/>
        <pt x="419" y="296" on="1"/>
        <pt x="421" y="298" on="0"/>
        <pt x="403" y="330" on="0"/>
        <pt x="376" y="365" on="0"/>
        <pt x="350" y="394" on="0"/>
        <pt x="345" y="394" on="1"/>
        <pt x="344" y="394" on="0"/>
        <pt x="342" y="392" on="0"/>
        <pt x="340" y="392" on="1"/>
        <pt x="325" y="370" on="0"/>
        <pt x="299" y="322" on="0"/>
      </contour>
    </TTGlyph>
    <TTGlyph name="Aring" xMin="17" yMin="-1" xMax="655" yMax="779">
      <contour>
        <pt x="373" y="634" on="1"/>
        <pt x="373" y="637" on="0"/>
        <pt x="373" y="655" on="0"/>
        <pt x="373" y="658" on="1"/>
        <pt x="373" y="676" on="0"/>
        <pt x="384" y="719" on="0"/>
        <pt x="412" y="755" on="0"/>
        <pt x="457" y="779" on="0"/>
        <pt x="492" y="779" on="1"/>
        <pt x="507" y="779" on="0"/>
        <pt x="523" y="767" on="0"/>
        <pt x="529" y="750" on="0"/>
        <pt x="529" y="740" on="1"/>
        <pt x="529" y="724" on="1"/>
        <pt x="529" y="707" on="0"/>
        <pt x="520" y="670" on="0"/>
        <pt x="495" y="640" on="0"/>
        <pt x="475" y="630" on="1"/>
        <pt x="483" y="595" on="0"/>
        <pt x="487" y="559" on="1"/>
        <pt x="492" y="516" on="0"/>
        <pt x="497" y="428" on="0"/>
        <pt x="501" y="340" on="0"/>
        <pt x="506" y="296" on="1"/>
        <pt x="509" y="296" on="0"/>
        <pt x="525" y="295" on="0"/>
        <pt x="529" y="295" on="1"/>
        <pt x="543" y="295" on="0"/>
        <pt x="571" y="301" on="0"/>
        <pt x="599" y="308" on="0"/>
        <pt x="628" y="314" on="0"/>
        <pt x="643" y="314" on="1"/>
        <pt x="646" y="314" on="1"/>
        <pt x="647" y="313" on="0"/>
        <pt x="650" y="310" on="1"/>
        <pt x="655" y="306" on="1"/>
        <pt x="649" y="295" on="0"/>
        <pt x="622" y="282" on="0"/>
        <pt x="589" y="274" on="0"/>
        <pt x="553" y="267" on="0"/>
        <pt x="525" y="258" on="0"/>
        <pt x="506" y="246" on="0"/>
        <pt x="506" y="235" on="1"/>
        <pt x="506" y="215" on="0"/>
        <pt x="511" y="175" on="0"/>
        <pt x="518" y="134" on="0"/>
        <pt x="524" y="93" on="0"/>
        <pt x="524" y="72" on="1"/>
        <pt x="524" y="67" on="0"/>
        <pt x="523" y="49" on="0"/>
        <pt x="520" y="31" on="0"/>
        <pt x="511" y="17" on="0"/>
        <pt x="502" y="17" on="1"/>
        <pt x="492" y="17" on="0"/>
        <pt x="476" y="47" on="0"/>
        <pt x="466" y="93" on="0"/>
        <pt x="459" y="148" on="0"/>
        <pt x="454" y="199" on="0"/>
        <pt x="448" y="238" on="0"/>
        <pt x="445" y="244" on="1"/>
        <pt x="437" y="245" on="0"/>
        <pt x="394" y="247" on="0"/>
        <pt x="347" y="250" on="0"/>
        <pt x="305" y="253" on="0"/>
        <pt x="297" y="253" on="1"/>
        <pt x="287" y="253" on="1"/>
        <pt x="267" y="253" on="0"/>
        <pt x="232" y="216" on="0"/>
        <pt x="203" y="159" on="0"/>
        <pt x="175" y="94" on="0"/>
        <pt x="149" y="37" on="0"/>
        <pt x="121" y="-1" on="0"/>
        <pt x="105" y="-1" on="1"/>
        <pt x="94" y="-1" on="0"/>
        <pt x="87" y="16" on="0"/>
        <pt x="87" y="26" on="1"/>
        <pt x="87" y="28" on="0"/>
        <pt x="88" y="34" on="0"/>
        <pt x="88" y="34" on="1"/>
        <pt x="103" y="63" on="0"/>
        <pt x="136" y="117" on="0"/>
        <pt x="171" y="170" on="0"/>
        <pt x="204" y="225" on="0"/>
        <pt x="218" y="253" on="1"/>
        <pt x="214" y="262" on="0"/>
        <pt x="182" y="276" on="0"/>
        <pt x="137" y="292" on="0"/>
        <pt x="87" y="313" on="0"/>
        <pt x="45" y="342" on="0"/>
        <pt x="17" y="381" on="0"/>
        <pt x="17" y="407" on="1"/>
        <pt x="17" y="434" on="0"/>
        <pt x="53" y="475" on="0"/>
        <pt x="105" y="502" on="0"/>
        <pt x="163" y="516" on="0"/>
        <pt x="184" y="516" on="1"/>
        <pt x="228" y="516" on="0"/>
        <pt x="295" y="486" on="0"/>
        <pt x="331" y="462" on="1"/>
        <pt x="343" y="471" on="0"/>
        <pt x="360" y="493" on="0"/>
        <pt x="367" y="506" on="1"/>
        <pt x="370" y="513" on="0"/>
        <pt x="391" y="550" on="0"/>
        <pt x="412" y="592" on="0"/>
        <pt x="422" y="610" on="1"/>
        <pt x="425" y="615" on="0"/>
        <pt x="427" y="619" on="1"/>
        <pt x="423" y="619" on="1"/>
        <pt x="404" y="619" on="0"/>
        <pt x="385" y="625" on="0"/>
      </contour>
      <contour>
        <pt x="61" y="408" on="1"/>
        <pt x="61" y="382" on="0"/>
        <pt x="97" y="343" on="0"/>
        <pt x="149" y="317" on="0"/>
        <pt x="207" y="305" on="0"/>
        <pt x="229" y="305" on="1"/>
        <pt x="243" y="305" on="0"/>
        <pt x="273" y="334" on="0"/>
        <pt x="298" y="372" on="0"/>
        <pt x="315" y="412" on="0"/>
        <pt x="315" y="423" on="1"/>
        <pt x="315" y="435" on="0"/>
        <pt x="283" y="456" on="0"/>
        <pt x="240" y="472" on="0"/>
        <pt x="198" y="481" on="0"/>
        <pt x="188" y="481" on="1"/>
        <pt x="173" y="481" on="0"/>
        <pt x="130" y="472" on="0"/>
        <pt x="89" y="454" on="0"/>
        <pt x="61" y="427" on="0"/>
      </contour>
      <contour>
        <pt x="375" y="441" on="1"/>
        <pt x="375" y="428" on="0"/>
        <pt x="395" y="390" on="0"/>
        <pt x="423" y="354" on="0"/>
        <pt x="454" y="328" on="0"/>
        <pt x="466" y="328" on="1"/>
        <pt x="466" y="333" on="0"/>
        <pt x="465" y="353" on="0"/>
        <pt x="464" y="377" on="0"/>
        <pt x="463" y="397" on="0"/>
        <pt x="463" y="402" on="1"/>
        <pt x="461" y="416" on="0"/>
        <pt x="456" y="462" on="0"/>
        <pt x="451" y="506" on="0"/>
        <pt x="446" y="540" on="0"/>
        <pt x="445" y="541" on="1"/>
        <pt x="436" y="558" on="1"/>
        <pt x="435" y="557" on="0"/>
        <pt x="428" y="551" on="0"/>
        <pt x="427" y="550" on="1"/>
        <pt x="424" y="544" on="0"/>
        <pt x="410" y="517" on="0"/>
        <pt x="393" y="487" on="0"/>
        <pt x="379" y="459" on="0"/>
        <pt x="376" y="454" on="1"/>
        <pt x="376" y="452" on="0"/>
        <pt x="375" y="442" on="0"/>
      </contour>
      <contour>
        <pt x="396" y="642" on="1"/>
        <pt x="402" y="638" on="0"/>
        <pt x="410" y="638" on="1"/>
        <pt x="438" y="638" on="1"/>
        <pt x="444" y="643" on="0"/>
        <pt x="454" y="646" on="0"/>
        <pt x="463" y="646" on="1"/>
        <pt x="463" y="646" on="0"/>
        <pt x="465" y="646" on="1"/>
        <pt x="466" y="646" on="1"/>
        <pt x="482" y="655" on="0"/>
        <pt x="500" y="680" on="0"/>
        <pt x="507" y="710" on="0"/>
        <pt x="507" y="724" on="1"/>
        <pt x="507" y="730" on="0"/>
        <pt x="508" y="744" on="0"/>
        <pt x="504" y="757" on="0"/>
        <pt x="492" y="765" on="0"/>
        <pt x="479" y="765" on="1"/>
        <pt x="479" y="754" on="0"/>
        <pt x="468" y="748" on="0"/>
        <pt x="451" y="747" on="0"/>
        <pt x="433" y="743" on="0"/>
        <pt x="425" y="733" on="1"/>
        <pt x="415" y="714" on="0"/>
        <pt x="396" y="678" on="0"/>
        <pt x="396" y="658" on="1"/>
      </contour>
      <contour>
        <pt x="288" y="296" on="1"/>
        <pt x="296" y="291" on="0"/>
        <pt x="319" y="286" on="0"/>
        <pt x="343" y="286" on="0"/>
        <pt x="364" y="286" on="0"/>
        <pt x="372" y="286" on="1"/>
        <pt x="376" y="286" on="0"/>
        <pt x="388" y="287" on="0"/>
        <pt x="400" y="287" on="0"/>
        <pt x="409" y="288" on="0"/>
        <pt x="410" y="288" on="1"/>
        <pt x="419" y="296" on="1"/>
        <pt x="421" y="298" on="0"/>
        <pt x="403" y="330" on="0"/>
        <pt x="376" y="365" on="0"/>
        <pt x="350" y="394" on="0"/>
        <pt x="345" y="394" on="1"/>
        <pt x="344" y="394" on="0"/>
        <pt x="342" y="392" on="0"/>
        <pt x="340" y="392" on="1"/>
        <pt x="325" y="370" on="0"/>
        <pt x="299" y="322" on="0"/>
      </contour>
    </TTGlyph>
    <TTGlyph name="Atilde" xMin="17" yMin="-1" xMax="655" yMax="826">
      <component glyphName="A" x="0" y="0" flags="0x1204"/>
      <component glyphName="tilde" x="319" y="161" flags="0x1004"/>
    </TTGlyph>
    <TTGlyph name="B" xMin="18" yMin="-1" xMax="559" yMax="664">
      <contour>
        <pt x="18" y="157" on="1"/>
        <pt x="42" y="130" on="0"/>
        <pt x="94" y="85" on="0"/>
        <pt x="152" y="52" on="0"/>
        <pt x="217" y="34" on="0"/>
        <pt x="253" y="34" on="1"/>
        <pt x="298" y="34" on="0"/>
        <pt x="388" y="67" on="0"/>
        <pt x="461" y="126" on="0"/>
        <pt x="507" y="208" on="0"/>
        <pt x="507" y="256" on="1"/>
        <pt x="507" y="283" on="0"/>
        <pt x="481" y="324" on="0"/>
        <pt x="440" y="352" on="0"/>
        <pt x="389" y="367" on="0"/>
        <pt x="364" y="367" on="1"/>
        <pt x="351" y="367" on="0"/>
        <pt x="312" y="360" on="0"/>
        <pt x="268" y="349" on="0"/>
        <pt x="222" y="334" on="0"/>
        <pt x="182" y="316" on="0"/>
        <pt x="154" y="297" on="0"/>
        <pt x="148" y="288" on="1"/>
        <pt x="148" y="283" on="0"/>
        <pt x="145" y="259" on="0"/>
        <pt x="142" y="230" on="0"/>
        <pt x="140" y="205" on="0"/>
        <pt x="139" y="200" on="1"/>
        <pt x="139" y="194" on="0"/>
        <pt x="135" y="177" on="0"/>
        <pt x="130" y="160" on="0"/>
        <pt x="121" y="144" on="0"/>
        <pt x="114" y="139" on="1"/>
        <pt x="100" y="145" on="0"/>
        <pt x="88" y="172" on="0"/>
        <pt x="85" y="205" on="0"/>
        <pt x="87" y="238" on="0"/>
        <pt x="87" y="249" on="1"/>
        <pt x="87" y="259" on="0"/>
        <pt x="88" y="305" on="0"/>
        <pt x="91" y="367" on="0"/>
        <pt x="98" y="440" on="0"/>
        <pt x="110" y="513" on="0"/>
        <pt x="128" y="580" on="0"/>
        <pt x="154" y="633" on="0"/>
        <pt x="189" y="664" on="0"/>
        <pt x="211" y="664" on="1"/>
        <pt x="237" y="664" on="0"/>
        <pt x="278" y="640" on="0"/>
        <pt x="307" y="603" on="0"/>
        <pt x="324" y="556" on="0"/>
        <pt x="324" y="532" on="1"/>
        <pt x="324" y="513" on="0"/>
        <pt x="310" y="478" on="0"/>
        <pt x="295" y="446" on="0"/>
        <pt x="281" y="414" on="0"/>
        <pt x="281" y="397" on="1"/>
        <pt x="305" y="397" on="0"/>
        <pt x="365" y="395" on="0"/>
        <pt x="427" y="387" on="0"/>
        <pt x="486" y="368" on="0"/>
        <pt x="532" y="335" on="0"/>
        <pt x="559" y="285" on="0"/>
        <pt x="559" y="249" on="1"/>
        <pt x="559" y="213" on="0"/>
        <pt x="533" y="148" on="0"/>
        <pt x="488" y="92" on="0"/>
        <pt x="429" y="48" on="0"/>
        <pt x="362" y="16" on="0"/>
        <pt x="293" y="-1" on="0"/>
        <pt x="261" y="-1" on="1"/>
        <pt x="244" y="-1" on="0"/>
        <pt x="193" y="10" on="0"/>
        <pt x="139" y="29" on="0"/>
        <pt x="86" y="58" on="0"/>
        <pt x="44" y="91" on="0"/>
        <pt x="18" y="131" on="0"/>
        <pt x="18" y="153" on="1"/>
      </contour>
      <contour>
        <pt x="223" y="620" on="1"/>
        <pt x="210" y="620" on="0"/>
        <pt x="190" y="594" on="0"/>
        <pt x="175" y="553" on="0"/>
        <pt x="166" y="504" on="0"/>
        <pt x="159" y="457" on="0"/>
        <pt x="157" y="419" on="0"/>
        <pt x="157" y="410" on="1"/>
        <pt x="157" y="407" on="0"/>
        <pt x="157" y="392" on="0"/>
        <pt x="157" y="376" on="0"/>
        <pt x="157" y="361" on="0"/>
        <pt x="157" y="358" on="1"/>
        <pt x="181" y="374" on="0"/>
        <pt x="225" y="412" on="0"/>
        <pt x="260" y="455" on="0"/>
        <pt x="281" y="506" on="0"/>
        <pt x="281" y="537" on="1"/>
        <pt x="281" y="551" on="0"/>
        <pt x="275" y="581" on="0"/>
        <pt x="262" y="605" on="0"/>
        <pt x="239" y="620" on="0"/>
      </contour>
    </TTGlyph>
    <TTGlyph name="C" xMin="25" yMin="-1" xMax="445" yMax="568">
      <contour>
        <pt x="25" y="188" on="1"/>
        <pt x="25" y="211" on="0"/>
        <pt x="31" y="284" on="0"/>
        <pt x="46" y="369" on="0"/>
        <pt x="72" y="454" on="0"/>
        <pt x="109" y="524" on="0"/>
        <pt x="159" y="568" on="0"/>
        <pt x="192" y="568" on="1"/>
        <pt x="232" y="568" on="0"/>
        <pt x="289" y="522" on="0"/>
        <pt x="326" y="455" on="0"/>
        <pt x="346" y="379" on="0"/>
        <pt x="349" y="349" on="1"/>
        <pt x="347" y="337" on="0"/>
        <pt x="329" y="322" on="0"/>
        <pt x="319" y="322" on="1"/>
        <pt x="314" y="322" on="1"/>
        <pt x="313" y="324" on="0"/>
        <pt x="307" y="330" on="0"/>
        <pt x="306" y="331" on="1"/>
        <pt x="306" y="334" on="0"/>
        <pt x="305" y="343" on="0"/>
        <pt x="305" y="355" on="0"/>
        <pt x="304" y="364" on="0"/>
        <pt x="304" y="366" on="1"/>
        <pt x="304" y="385" on="0"/>
        <pt x="314" y="415" on="0"/>
        <pt x="314" y="431" on="1"/>
        <pt x="314" y="436" on="1"/>
        <pt x="302" y="450" on="0"/>
        <pt x="278" y="481" on="0"/>
        <pt x="251" y="507" on="0"/>
        <pt x="219" y="524" on="0"/>
        <pt x="199" y="524" on="1"/>
        <pt x="174" y="524" on="0"/>
        <pt x="133" y="487" on="0"/>
        <pt x="103" y="430" on="0"/>
        <pt x="81" y="359" on="0"/>
        <pt x="67" y="290" on="0"/>
        <pt x="61" y="231" on="0"/>
        <pt x="61" y="214" on="1"/>
        <pt x="61" y="175" on="0"/>
        <pt x="79" y="109" on="0"/>
        <pt x="119" y="61" on="0"/>
        <pt x="178" y="34" on="0"/>
        <pt x="219" y="34" on="1"/>
        <pt x="240" y="34" on="0"/>
        <pt x="286" y="42" on="0"/>
        <pt x="331" y="56" on="0"/>
        <pt x="374" y="76" on="0"/>
        <pt x="392" y="88" on="1"/>
        <pt x="394" y="88" on="0"/>
        <pt x="404" y="96" on="0"/>
        <pt x="415" y="105" on="0"/>
        <pt x="426" y="112" on="0"/>
        <pt x="427" y="114" on="1"/>
        <pt x="428" y="114" on="0"/>
        <pt x="435" y="115" on="0"/>
        <pt x="436" y="115" on="1"/>
        <pt x="438" y="115" on="0"/>
        <pt x="444" y="114" on="0"/>
        <pt x="445" y="114" on="1"/>
        <pt x="440" y="93" on="0"/>
        <pt x="412" y="60" on="0"/>
        <pt x="373" y="34" on="0"/>
        <pt x="325" y="16" on="0"/>
        <pt x="277" y="4" on="0"/>
        <pt x="234" y="-1" on="0"/>
        <pt x="217" y="-1" on="1"/>
        <pt x="174" y="-1" on="0"/>
        <pt x="103" y="25" on="0"/>
        <pt x="52" y="73" on="0"/>
        <pt x="25" y="143" on="0"/>
      </contour>
    </TTGlyph>
    <TTGlyph name="Cacute" xMin="25" yMin="-1" xMax="445" yMax="807">
      <component glyphName="C" x="0" y="0" flags="0x1204"/>
      <component glyphName="acute" x="156" y="154" flags="0x1004"/>
    </TTGlyph>
    <TTGlyph name="Ccaron" xMin="25" yMin="-1" xMax="445" yMax="801">
      <component glyphName="C" x="0" y="0" flags="0x1204"/>
      <component glyphName="caron" x="49" y="154" flags="0x1004"/>
    </TTGlyph>
    <TTGlyph name="Ccedilla" xMin="25" yMin="-223" xMax="445" yMax="568">
      <contour>
        <pt x="160" y="-151" on="1"/>
        <pt x="160" y="-145" on="1"/>
        <pt x="160" y="-141" on="0"/>
        <pt x="161" y="-131" on="0"/>
        <pt x="161" y="-126" on="1"/>
        <pt x="161" y="-121" on="1"/>
        <pt x="163" y="-118" on="0"/>
        <pt x="176" y="-110" on="0"/>
        <pt x="179" y="-111" on="1"/>
        <pt x="189" y="-113" on="0"/>
        <pt x="198" y="-131" on="0"/>
        <pt x="214" y="-153" on="0"/>
        <pt x="248" y="-174" on="0"/>
        <pt x="282" y="-179" on="1"/>
        <pt x="296" y="-182" on="0"/>
        <pt x="301" y="-167" on="0"/>
        <pt x="301" y="-158" on="1"/>
        <pt x="299" y="-141" on="0"/>
        <pt x="271" y="-121" on="0"/>
        <pt x="234" y="-104" on="0"/>
        <pt x="194" y="-87" on="0"/>
        <pt x="168" y="-59" on="0"/>
        <pt x="164" y="-35" on="1"/>
        <pt x="162" y="-20" on="0"/>
        <pt x="169" y="4" on="1"/>
        <pt x="153" y="7" on="0"/>
        <pt x="138" y="12" on="1"/>
        <pt x="103" y="25" on="0"/>
        <pt x="52" y="73" on="0"/>
        <pt x="25" y="143" on="0"/>
        <pt x="25" y="188" on="1"/>
        <pt x="25" y="211" on="0"/>
        <pt x="31" y="284" on="0"/>
        <pt x="46" y="369" on="0"/>
        <pt x="72" y="454" on="0"/>
        <pt x="109" y="524" on="0"/>
        <pt x="159" y="568" on="0"/>
        <pt x="192" y="568" on="1"/>
        <pt x="232" y="568" on="0"/>
        <pt x="289" y="522" on="0"/>
        <pt x="326" y="455" on="0"/>
        <pt x="346" y="379" on="0"/>
        <pt x="349" y="349" on="1"/>
        <pt x="347" y="337" on="0"/>
        <pt x="329" y="322" on="0"/>
        <pt x="319" y="322" on="1"/>
        <pt x="314" y="322" on="1"/>
        <pt x="310" y="327" on="1"/>
        <pt x="307" y="330" on="0"/>
        <pt x="306" y="331" on="1"/>
        <pt x="306" y="334" on="0"/>
        <pt x="305" y="343" on="0"/>
        <pt x="305" y="355" on="0"/>
        <pt x="304" y="364" on="0"/>
        <pt x="304" y="366" on="1"/>
        <pt x="304" y="385" on="0"/>
        <pt x="314" y="415" on="0"/>
        <pt x="314" y="431" on="1"/>
        <pt x="314" y="436" on="1"/>
        <pt x="302" y="450" on="0"/>
        <pt x="278" y="481" on="0"/>
        <pt x="251" y="507" on="0"/>
        <pt x="219" y="524" on="0"/>
        <pt x="199" y="524" on="1"/>
        <pt x="174" y="524" on="0"/>
        <pt x="133" y="487" on="0"/>
        <pt x="103" y="430" on="0"/>
        <pt x="81" y="359" on="0"/>
        <pt x="67" y="290" on="0"/>
        <pt x="61" y="231" on="0"/>
        <pt x="61" y="214" on="1"/>
        <pt x="61" y="175" on="0"/>
        <pt x="79" y="109" on="0"/>
        <pt x="119" y="61" on="0"/>
        <pt x="148" y="47" on="1"/>
        <pt x="163" y="40" on="0"/>
        <pt x="178" y="37" on="1"/>
        <pt x="180" y="41" on="0"/>
        <pt x="183" y="43" on="1"/>
        <pt x="189" y="48" on="0"/>
        <pt x="205" y="43" on="0"/>
        <pt x="212" y="36" on="1"/>
        <pt x="214" y="34" on="1"/>
        <pt x="219" y="34" on="1"/>
        <pt x="240" y="34" on="0"/>
        <pt x="286" y="42" on="0"/>
        <pt x="331" y="56" on="0"/>
        <pt x="374" y="76" on="0"/>
        <pt x="392" y="88" on="1"/>
        <pt x="394" y="88" on="0"/>
        <pt x="404" y="96" on="0"/>
        <pt x="415" y="105" on="0"/>
        <pt x="426" y="112" on="0"/>
        <pt x="427" y="114" on="1"/>
        <pt x="428" y="114" on="0"/>
        <pt x="435" y="115" on="0"/>
        <pt x="436" y="115" on="1"/>
        <pt x="438" y="115" on="0"/>
        <pt x="444" y="114" on="0"/>
        <pt x="445" y="114" on="1"/>
        <pt x="440" y="93" on="0"/>
        <pt x="412" y="60" on="0"/>
        <pt x="373" y="34" on="0"/>
        <pt x="325" y="16" on="0"/>
        <pt x="277" y="4" on="0"/>
        <pt x="256" y="1" on="1"/>
        <pt x="236" y="0" on="0"/>
        <pt x="221" y="-1" on="1"/>
        <pt x="217" y="-9" on="0"/>
        <pt x="205" y="-15" on="1"/>
        <pt x="205" y="-40" on="0"/>
        <pt x="226" y="-68" on="0"/>
        <pt x="256" y="-86" on="0"/>
        <pt x="292" y="-98" on="0"/>
        <pt x="323" y="-115" on="0"/>
        <pt x="344" y="-143" on="0"/>
        <pt x="344" y="-167" on="1"/>
        <pt x="344" y="-176" on="0"/>
        <pt x="335" y="-196" on="0"/>
        <pt x="320" y="-212" on="0"/>
        <pt x="301" y="-223" on="0"/>
        <pt x="292" y="-223" on="1"/>
        <pt x="263" y="-223" on="0"/>
        <pt x="215" y="-219" on="0"/>
        <pt x="180" y="-204" on="0"/>
        <pt x="160" y="-176" on="0"/>
      </contour>
    </TTGlyph>
    <TTGlyph name="Ccircumflex" xMin="25" yMin="-1" xMax="445" yMax="857">
      <component glyphName="C" x="0" y="0" flags="0x1204"/>
      <component glyphName="circumflex" x="56" y="154" flags="0x1004"/>
    </TTGlyph>
    <TTGlyph name="Cdotaccent" xMin="25" yMin="-1" xMax="445" yMax="717">
      <component glyphName="C" x="0" y="0" flags="0x1204"/>
      <component glyphName="dotaccent" x="145" y="154" flags="0x1004"/>
    </TTGlyph>
    <TTGlyph name="D" xMin="15" yMin="-1" xMax="490" yMax="629">
      <contour>
        <pt x="148" y="8" on="1"/>
        <pt x="142" y="13" on="0"/>
        <pt x="109" y="38" on="0"/>
        <pt x="73" y="67" on="0"/>
        <pt x="41" y="91" on="0"/>
        <pt x="35" y="96" on="1"/>
        <pt x="26" y="103" on="0"/>
        <pt x="15" y="114" on="0"/>
        <pt x="15" y="127" on="1"/>
        <pt x="30" y="127" on="0"/>
        <pt x="52" y="112" on="0"/>
        <pt x="73" y="95" on="0"/>
        <pt x="96" y="81" on="0"/>
        <pt x="111" y="81" on="1"/>
        <pt x="111" y="91" on="0"/>
        <pt x="112" y="142" on="0"/>
        <pt x="113" y="200" on="0"/>
        <pt x="114" y="251" on="0"/>
        <pt x="114" y="262" on="1"/>
        <pt x="114" y="266" on="0"/>
        <pt x="111" y="297" on="0"/>
        <pt x="108" y="332" on="0"/>
        <pt x="105" y="362" on="0"/>
        <pt x="105" y="366" on="1"/>
        <pt x="105" y="368" on="0"/>
        <pt x="107" y="387" on="0"/>
        <pt x="111" y="407" on="0"/>
        <pt x="114" y="425" on="0"/>
        <pt x="114" y="427" on="1"/>
        <pt x="114" y="449" on="1"/>
        <pt x="114" y="472" on="1"/>
        <pt x="114" y="474" on="0"/>
        <pt x="111" y="494" on="0"/>
        <pt x="107" y="518" on="0"/>
        <pt x="105" y="538" on="0"/>
        <pt x="105" y="541" on="1"/>
        <pt x="105" y="545" on="0"/>
        <pt x="107" y="565" on="0"/>
        <pt x="109" y="587" on="0"/>
        <pt x="112" y="607" on="0"/>
        <pt x="114" y="610" on="1"/>
        <pt x="129" y="623" on="0"/>
        <pt x="145" y="629" on="0"/>
        <pt x="160" y="629" on="1"/>
        <pt x="202" y="629" on="0"/>
        <pt x="284" y="598" on="0"/>
        <pt x="358" y="544" on="0"/>
        <pt x="419" y="472" on="0"/>
        <pt x="464" y="392" on="0"/>
        <pt x="490" y="307" on="0"/>
        <pt x="490" y="268" on="1"/>
        <pt x="490" y="223" on="0"/>
        <pt x="453" y="127" on="0"/>
        <pt x="389" y="49" on="0"/>
        <pt x="304" y="-1" on="0"/>
        <pt x="256" y="-1" on="1"/>
        <pt x="242" y="-1" on="0"/>
        <pt x="216" y="3" on="0"/>
        <pt x="189" y="7" on="0"/>
        <pt x="162" y="10" on="0"/>
      </contour>
      <contour>
        <pt x="175" y="52" on="1"/>
        <pt x="175" y="51" on="0"/>
        <pt x="181" y="44" on="0"/>
        <pt x="184" y="43" on="1"/>
        <pt x="186" y="42" on="0"/>
        <pt x="199" y="37" on="0"/>
        <pt x="216" y="31" on="0"/>
        <pt x="232" y="27" on="0"/>
        <pt x="235" y="26" on="1"/>
        <pt x="241" y="26" on="1"/>
        <pt x="266" y="26" on="0"/>
        <pt x="318" y="51" on="0"/>
        <pt x="366" y="91" on="0"/>
        <pt x="406" y="144" on="0"/>
        <pt x="436" y="200" on="0"/>
        <pt x="454" y="256" on="0"/>
        <pt x="454" y="280" on="1"/>
        <pt x="454" y="309" on="0"/>
        <pt x="430" y="377" on="0"/>
        <pt x="389" y="445" on="0"/>
        <pt x="335" y="508" on="0"/>
        <pt x="274" y="556" on="0"/>
        <pt x="211" y="585" on="0"/>
        <pt x="181" y="585" on="1"/>
        <pt x="174" y="585" on="0"/>
        <pt x="160" y="584" on="0"/>
        <pt x="148" y="580" on="0"/>
        <pt x="139" y="570" on="0"/>
        <pt x="139" y="561" on="1"/>
        <pt x="139" y="544" on="0"/>
        <pt x="139" y="510" on="0"/>
        <pt x="142" y="475" on="0"/>
        <pt x="149" y="442" on="0"/>
        <pt x="157" y="427" on="1"/>
      </contour>
    </TTGlyph>
    <TTGlyph name="Dcaron" xMin="15" yMin="-1" xMax="490" yMax="801">
      <component glyphName="D" x="0" y="0" flags="0x1204"/>
      <component glyphName="caron" x="75" y="154" flags="0x1004"/>
    </TTGlyph>
    <TTGlyph name="E" xMin="18" yMin="-1" xMax="559" yMax="514">
      <contour>
        <pt x="88" y="184" on="1"/>
        <pt x="74" y="191" on="0"/>
        <pt x="61" y="205" on="0"/>
        <pt x="61" y="218" on="1"/>
        <pt x="61" y="225" on="0"/>
        <pt x="66" y="235" on="0"/>
        <pt x="73" y="244" on="0"/>
        <pt x="79" y="254" on="0"/>
        <pt x="79" y="261" on="1"/>
        <pt x="79" y="273" on="0"/>
        <pt x="80" y="305" on="0"/>
        <pt x="76" y="338" on="0"/>
        <pt x="65" y="367" on="0"/>
        <pt x="52" y="376" on="1"/>
        <pt x="55" y="377" on="0"/>
        <pt x="68" y="390" on="0"/>
        <pt x="70" y="392" on="1"/>
        <pt x="70" y="394" on="1"/>
        <pt x="70" y="394" on="0"/>
        <pt x="70" y="396" on="0"/>
        <pt x="70" y="397" on="1"/>
        <pt x="70" y="410" on="0"/>
        <pt x="57" y="420" on="0"/>
        <pt x="40" y="424" on="0"/>
        <pt x="22" y="428" on="0"/>
        <pt x="18" y="436" on="1"/>
        <pt x="29" y="451" on="0"/>
        <pt x="79" y="473" on="0"/>
        <pt x="142" y="490" on="0"/>
        <pt x="211" y="502" on="0"/>
        <pt x="277" y="511" on="0"/>
        <pt x="329" y="514" on="0"/>
        <pt x="344" y="514" on="1"/>
        <pt x="367" y="514" on="1"/>
        <pt x="376" y="514" on="0"/>
        <pt x="405" y="511" on="0"/>
        <pt x="433" y="508" on="0"/>
        <pt x="454" y="506" on="0"/>
        <pt x="454" y="506" on="1"/>
        <pt x="463" y="498" on="1"/>
        <pt x="454" y="488" on="1"/>
        <pt x="367" y="485" on="0"/>
        <pt x="206" y="468" on="0"/>
        <pt x="122" y="445" on="1"/>
        <pt x="121" y="443" on="0"/>
        <pt x="119" y="431" on="0"/>
        <pt x="116" y="417" on="0"/>
        <pt x="114" y="404" on="0"/>
        <pt x="114" y="402" on="1"/>
        <pt x="114" y="400" on="0"/>
        <pt x="114" y="391" on="0"/>
        <pt x="115" y="381" on="0"/>
        <pt x="115" y="373" on="0"/>
        <pt x="115" y="370" on="1"/>
        <pt x="197" y="370" on="0"/>
        <pt x="357" y="385" on="0"/>
        <pt x="439" y="385" on="1"/>
        <pt x="445" y="385" on="0"/>
        <pt x="457" y="385" on="0"/>
        <pt x="466" y="382" on="0"/>
        <pt x="472" y="373" on="0"/>
        <pt x="472" y="365" on="1"/>
        <pt x="472" y="360" on="0"/>
        <pt x="423" y="342" on="0"/>
        <pt x="349" y="319" on="0"/>
        <pt x="262" y="291" on="0"/>
        <pt x="188" y="261" on="0"/>
        <pt x="139" y="229" on="0"/>
        <pt x="139" y="214" on="1"/>
        <pt x="139" y="211" on="1"/>
        <pt x="139" y="211" on="0"/>
        <pt x="139" y="210" on="1"/>
        <pt x="140" y="209" on="0"/>
        <pt x="148" y="202" on="0"/>
        <pt x="148" y="200" on="1"/>
        <pt x="148" y="199" on="0"/>
        <pt x="149" y="199" on="1"/>
        <pt x="149" y="197" on="1"/>
        <pt x="149" y="196" on="0"/>
        <pt x="150" y="196" on="1"/>
        <pt x="150" y="196" on="0"/>
        <pt x="149" y="195" on="0"/>
        <pt x="149" y="194" on="1"/>
        <pt x="148" y="193" on="0"/>
        <pt x="148" y="192" on="1"/>
        <pt x="148" y="191" on="0"/>
        <pt x="140" y="184" on="0"/>
        <pt x="139" y="184" on="1"/>
        <pt x="138" y="181" on="0"/>
        <pt x="131" y="167" on="0"/>
        <pt x="131" y="166" on="1"/>
        <pt x="131" y="133" on="0"/>
        <pt x="154" y="86" on="0"/>
        <pt x="192" y="57" on="0"/>
        <pt x="243" y="43" on="0"/>
        <pt x="271" y="43" on="1"/>
        <pt x="310" y="43" on="0"/>
        <pt x="374" y="65" on="0"/>
        <pt x="430" y="103" on="0"/>
        <pt x="481" y="154" on="0"/>
        <pt x="506" y="184" on="1"/>
        <pt x="507" y="184" on="0"/>
        <pt x="512" y="194" on="0"/>
        <pt x="518" y="205" on="0"/>
        <pt x="523" y="216" on="0"/>
        <pt x="523" y="218" on="1"/>
        <pt x="523" y="219" on="0"/>
        <pt x="524" y="226" on="0"/>
        <pt x="524" y="228" on="1"/>
        <pt x="524" y="234" on="0"/>
        <pt x="517" y="241" on="0"/>
        <pt x="507" y="245" on="0"/>
        <pt x="496" y="246" on="0"/>
        <pt x="490" y="246" on="1"/>
        <pt x="490" y="260" on="0"/>
        <pt x="516" y="270" on="0"/>
        <pt x="529" y="270" on="1"/>
        <pt x="544" y="270" on="0"/>
        <pt x="559" y="250" on="0"/>
        <pt x="559" y="235" on="1"/>
        <pt x="559" y="207" on="0"/>
        <pt x="529" y="150" on="0"/>
        <pt x="481" y="97" on="0"/>
        <pt x="418" y="52" on="0"/>
        <pt x="352" y="19" on="0"/>
        <pt x="288" y="-1" on="0"/>
        <pt x="262" y="-1" on="1"/>
        <pt x="218" y="-1" on="0"/>
        <pt x="160" y="28" on="0"/>
        <pt x="120" y="79" on="0"/>
        <pt x="97" y="146" on="0"/>
      </contour>
      <contour>
        <pt x="112" y="352" on="1"/>
        <pt x="112" y="331" on="0"/>
        <pt x="114" y="316" on="1"/>
        <pt x="115" y="302" on="0"/>
        <pt x="118" y="280" on="0"/>
        <pt x="122" y="280" on="1"/>
        <pt x="131" y="280" on="1"/>
        <pt x="132" y="280" on="0"/>
        <pt x="156" y="289" on="0"/>
        <pt x="189" y="303" on="0"/>
        <pt x="224" y="318" on="0"/>
        <pt x="235" y="322" on="1"/>
        <pt x="238" y="323" on="0"/>
        <pt x="247" y="329" on="0"/>
        <pt x="259" y="334" on="0"/>
        <pt x="268" y="340" on="0"/>
        <pt x="271" y="340" on="1"/>
        <pt x="253" y="345" on="0"/>
        <pt x="211" y="350" on="0"/>
        <pt x="168" y="352" on="0"/>
        <pt x="127" y="352" on="0"/>
      </contour>
    </TTGlyph>
    <TTGlyph name="Eacute" xMin="18" yMin="-1" xMax="559" yMax="807">
      <component glyphName="E" x="0" y="0" flags="0x1204"/>
      <component glyphName="acute" x="217" y="154" flags="0x1004"/>
    </TTGlyph>
    <TTGlyph name="Ebreve" xMin="18" yMin="-1" xMax="559" yMax="700">
      <component glyphName="E" x="0" y="0" flags="0x1204"/>
      <component glyphName="breve" x="124" y="60" flags="0x1004"/>
    </TTGlyph>
    <TTGlyph name="Ecaron" xMin="18" yMin="-1" xMax="559" yMax="801">
      <component glyphName="E" x="0" y="0" flags="0x1204"/>
      <component glyphName="caron" x="109" y="154" flags="0x1004"/>
    </TTGlyph>
    <TTGlyph name="Ecircumflex" xMin="18" yMin="-1" xMax="559" yMax="857">
      <component glyphName="E" x="0" y="0" flags="0x1204"/>
      <component glyphName="circumflex" x="117" y="154" flags="0x1004"/>
    </TTGlyph>
    <TTGlyph name="Edieresis" xMin="18" yMin="-1" xMax="559" yMax="730">
      <component glyphName="E" x="0" y="0" flags="0x1204"/>
      <component glyphName="dieresis" x="109" y="154" flags="0x1004"/>
    </TTGlyph>
    <TTGlyph name="Edotaccent" xMin="18" yMin="-1" xMax="559" yMax="717">
      <component glyphName="E" x="0" y="0" flags="0x1204"/>
      <component glyphName="dotaccent" x="207" y="154" flags="0x1004"/>
    </TTGlyph>
    <TTGlyph name="Egrave" xMin="18" yMin="-1" xMax="559" yMax="818">
      <component glyphName="E" x="0" y="0" flags="0x1204"/>
      <component glyphName="grave" x="241" y="154" flags="0x1004"/>
    </TTGlyph>
    <TTGlyph name="Emacron" xMin="18" yMin="-1" xMax="559" yMax="723">
      <component glyphName="E" x="0" y="0" flags="0x1204"/>
      <component glyphName="macron" x="109" y="154" flags="0x1004"/>
    </TTGlyph>
    <TTGlyph name="Eogonek" xMin="18" yMin="-85" xMax="559" yMax="514">
      <contour>
        <pt x="88" y="184" on="1"/>
        <pt x="74" y="191" on="0"/>
        <pt x="61" y="205" on="0"/>
        <pt x="61" y="218" on="1"/>
        <pt x="61" y="225" on="0"/>
        <pt x="66" y="235" on="0"/>
        <pt x="73" y="244" on="0"/>
        <pt x="79" y="254" on="0"/>
        <pt x="79" y="261" on="1"/>
        <pt x="79" y="273" on="0"/>
        <pt x="80" y="305" on="0"/>
        <pt x="76" y="338" on="0"/>
        <pt x="65" y="367" on="0"/>
        <pt x="52" y="376" on="1"/>
        <pt x="55" y="377" on="0"/>
        <pt x="68" y="390" on="0"/>
        <pt x="70" y="392" on="1"/>
        <pt x="70" y="394" on="1"/>
        <pt x="70" y="394" on="0"/>
        <pt x="70" y="396" on="0"/>
        <pt x="70" y="397" on="1"/>
        <pt x="70" y="410" on="0"/>
        <pt x="57" y="420" on="0"/>
        <pt x="40" y="424" on="0"/>
        <pt x="22" y="428" on="0"/>
        <pt x="18" y="436" on="1"/>
        <pt x="29" y="451" on="0"/>
        <pt x="79" y="473" on="0"/>
        <pt x="142" y="490" on="0"/>
        <pt x="211" y="502" on="0"/>
        <pt x="277" y="511" on="0"/>
        <pt x="329" y="514" on="0"/>
        <pt x="344" y="514" on="1"/>
        <pt x="367" y="514" on="1"/>
        <pt x="376" y="514" on="0"/>
        <pt x="405" y="511" on="0"/>
        <pt x="433" y="508" on="0"/>
        <pt x="443" y="507" on="1"/>
        <pt x="454" y="506" on="1"/>
        <pt x="463" y="498" on="1"/>
        <pt x="454" y="488" on="1"/>
        <pt x="367" y="485" on="0"/>
        <pt x="206" y="468" on="0"/>
        <pt x="122" y="445" on="1"/>
        <pt x="121" y="443" on="0"/>
        <pt x="119" y="431" on="0"/>
        <pt x="116" y="417" on="0"/>
        <pt x="114" y="404" on="0"/>
        <pt x="114" y="402" on="1"/>
        <pt x="114" y="395" on="1"/>
        <pt x="114" y="391" on="0"/>
        <pt x="115" y="381" on="0"/>
        <pt x="115" y="373" on="0"/>
        <pt x="115" y="370" on="1"/>
        <pt x="197" y="370" on="0"/>
        <pt x="357" y="385" on="0"/>
        <pt x="439" y="385" on="1"/>
        <pt x="451" y="385" on="1"/>
        <pt x="457" y="385" on="0"/>
        <pt x="466" y="382" on="0"/>
        <pt x="472" y="373" on="0"/>
        <pt x="472" y="365" on="1"/>
        <pt x="472" y="360" on="0"/>
        <pt x="423" y="342" on="0"/>
        <pt x="349" y="319" on="0"/>
        <pt x="262" y="291" on="0"/>
        <pt x="188" y="261" on="0"/>
        <pt x="139" y="229" on="0"/>
        <pt x="139" y="214" on="1"/>
        <pt x="139" y="211" on="1"/>
        <pt x="139" y="211" on="0"/>
        <pt x="139" y="210" on="1"/>
        <pt x="144" y="205" on="1"/>
        <pt x="148" y="202" on="0"/>
        <pt x="148" y="200" on="1"/>
        <pt x="148" y="199" on="0"/>
        <pt x="149" y="199" on="1"/>
        <pt x="149" y="197" on="1"/>
        <pt x="150" y="196" on="1"/>
        <pt x="149" y="194" on="1"/>
        <pt x="148" y="193" on="0"/>
        <pt x="148" y="192" on="1"/>
        <pt x="148" y="191" on="0"/>
        <pt x="140" y="184" on="0"/>
        <pt x="139" y="184" on="1"/>
        <pt x="134" y="174" on="1"/>
        <pt x="131" y="167" on="0"/>
        <pt x="131" y="166" on="1"/>
        <pt x="131" y="133" on="0"/>
        <pt x="154" y="86" on="0"/>
        <pt x="192" y="57" on="0"/>
        <pt x="243" y="43" on="0"/>
        <pt x="271" y="43" on="1"/>
        <pt x="310" y="43" on="0"/>
        <pt x="374" y="65" on="0"/>
        <pt x="430" y="103" on="0"/>
        <pt x="481" y="154" on="0"/>
        <pt x="506" y="184" on="1"/>
        <pt x="507" y="184" on="0"/>
        <pt x="512" y="194" on="0"/>
        <pt x="518" y="205" on="0"/>
        <pt x="523" y="216" on="0"/>
        <pt x="523" y="218" on="1"/>
        <pt x="523" y="219" on="0"/>
        <pt x="524" y="226" on="0"/>
        <pt x="524" y="228" on="1"/>
        <pt x="524" y="234" on="0"/>
        <pt x="517" y="241" on="0"/>
        <pt x="507" y="245" on="0"/>
        <pt x="496" y="246" on="0"/>
        <pt x="490" y="246" on="1"/>
        <pt x="490" y="260" on="0"/>
        <pt x="516" y="270" on="0"/>
        <pt x="529" y="270" on="1"/>
        <pt x="544" y="270" on="0"/>
        <pt x="559" y="250" on="0"/>
        <pt x="559" y="235" on="1"/>
        <pt x="559" y="207" on="0"/>
        <pt x="529" y="150" on="0"/>
        <pt x="481" y="97" on="0"/>
        <pt x="449" y="75" on="1"/>
        <pt x="438" y="66" on="0"/>
        <pt x="426" y="58" on="1"/>
        <pt x="418" y="49" on="0"/>
        <pt x="414" y="37" on="1"/>
        <pt x="407" y="11" on="0"/>
        <pt x="422" y="-27" on="1"/>
        <pt x="427" y="-40" on="0"/>
        <pt x="445" y="-44" on="0"/>
        <pt x="466" y="-37" on="0"/>
        <pt x="490" y="-25" on="0"/>
        <pt x="511" y="-19" on="0"/>
        <pt x="530" y="-25" on="0"/>
        <pt x="535" y="-39" on="1"/>
        <pt x="537" y="-53" on="0"/>
        <pt x="511" y="-73" on="0"/>
        <pt x="474" y="-84" on="0"/>
        <pt x="433" y="-85" on="0"/>
        <pt x="418" y="-79" on="1"/>
        <pt x="404" y="-76" on="0"/>
        <pt x="384" y="-50" on="0"/>
        <pt x="378" y="-34" on="1"/>
        <pt x="373" y="-23" on="0"/>
        <pt x="377" y="14" on="0"/>
        <pt x="382" y="32" on="1"/>
        <pt x="383" y="34" on="1"/>
        <pt x="351" y="18" on="0"/>
        <pt x="320" y="9" on="1"/>
        <pt x="288" y="-1" on="0"/>
        <pt x="262" y="-1" on="1"/>
        <pt x="218" y="-1" on="0"/>
        <pt x="160" y="28" on="0"/>
        <pt x="120" y="79" on="0"/>
        <pt x="97" y="146" on="0"/>
      </contour>
      <contour>
        <pt x="112" y="352" on="1"/>
        <pt x="112" y="331" on="0"/>
        <pt x="114" y="316" on="1"/>
        <pt x="115" y="302" on="0"/>
        <pt x="118" y="280" on="0"/>
        <pt x="122" y="280" on="1"/>
        <pt x="131" y="280" on="1"/>
        <pt x="132" y="280" on="0"/>
        <pt x="156" y="289" on="0"/>
        <pt x="189" y="303" on="0"/>
        <pt x="224" y="318" on="0"/>
        <pt x="235" y="322" on="1"/>
        <pt x="238" y="323" on="0"/>
        <pt x="247" y="329" on="0"/>
        <pt x="259" y="334" on="0"/>
        <pt x="268" y="340" on="0"/>
        <pt x="271" y="340" on="1"/>
        <pt x="253" y="345" on="0"/>
        <pt x="211" y="350" on="0"/>
        <pt x="168" y="352" on="0"/>
        <pt x="148" y="352" on="1"/>
      </contour>
    </TTGlyph>
    <TTGlyph name="Eth" xMin="13" yMin="-1" xMax="490" yMax="629">
      <contour>
        <pt x="13" y="288" on="1"/>
        <pt x="13" y="298" on="0"/>
        <pt x="20" y="309" on="0"/>
        <pt x="31" y="314" on="1"/>
        <pt x="36" y="314" on="0"/>
        <pt x="52" y="315" on="0"/>
        <pt x="73" y="316" on="0"/>
        <pt x="85" y="316" on="1"/>
        <pt x="109" y="318" on="1"/>
        <pt x="109" y="326" on="1"/>
        <pt x="109" y="328" on="0"/>
        <pt x="109" y="360" on="0"/>
        <pt x="107" y="406" on="0"/>
        <pt x="106" y="460" on="0"/>
        <pt x="106" y="507" on="0"/>
        <pt x="105" y="539" on="0"/>
        <pt x="105" y="541" on="1"/>
        <pt x="105" y="545" on="0"/>
        <pt x="107" y="565" on="0"/>
        <pt x="109" y="587" on="0"/>
        <pt x="112" y="607" on="0"/>
        <pt x="114" y="610" on="1"/>
        <pt x="129" y="623" on="0"/>
        <pt x="145" y="629" on="0"/>
        <pt x="160" y="629" on="1"/>
        <pt x="202" y="629" on="0"/>
        <pt x="284" y="598" on="0"/>
        <pt x="358" y="544" on="0"/>
        <pt x="419" y="472" on="0"/>
        <pt x="464" y="392" on="0"/>
        <pt x="490" y="307" on="0"/>
        <pt x="490" y="268" on="1"/>
        <pt x="490" y="223" on="0"/>
        <pt x="453" y="127" on="0"/>
        <pt x="389" y="49" on="0"/>
        <pt x="304" y="-1" on="0"/>
        <pt x="256" y="-1" on="1"/>
        <pt x="242" y="-1" on="0"/>
        <pt x="216" y="3" on="0"/>
        <pt x="189" y="7" on="0"/>
        <pt x="162" y="10" on="0"/>
        <pt x="148" y="8" on="1"/>
        <pt x="142" y="13" on="0"/>
        <pt x="109" y="38" on="0"/>
        <pt x="73" y="67" on="0"/>
        <pt x="41" y="91" on="0"/>
        <pt x="35" y="96" on="1"/>
        <pt x="26" y="103" on="0"/>
        <pt x="15" y="114" on="0"/>
        <pt x="15" y="127" on="1"/>
        <pt x="30" y="127" on="0"/>
        <pt x="52" y="112" on="0"/>
        <pt x="73" y="95" on="0"/>
        <pt x="96" y="81" on="0"/>
        <pt x="111" y="81" on="1"/>
        <pt x="114" y="119" on="0"/>
        <pt x="114" y="178" on="0"/>
        <pt x="112" y="223" on="0"/>
        <pt x="108" y="255" on="0"/>
        <pt x="108" y="268" on="1"/>
        <pt x="99" y="268" on="0"/>
        <pt x="74" y="269" on="0"/>
        <pt x="58" y="269" on="1"/>
        <pt x="50" y="269" on="1"/>
        <pt x="46" y="269" on="0"/>
        <pt x="34" y="270" on="0"/>
        <pt x="29" y="270" on="1"/>
        <pt x="22" y="270" on="1"/>
        <pt x="15" y="274" on="0"/>
        <pt x="13" y="283" on="0"/>
      </contour>
      <contour>
        <pt x="139" y="561" on="1"/>
        <pt x="139" y="547" on="0"/>
        <pt x="139" y="489" on="0"/>
        <pt x="139" y="419" on="0"/>
        <pt x="141" y="347" on="0"/>
        <pt x="145" y="320" on="1"/>
        <pt x="162" y="322" on="1"/>
        <pt x="178" y="325" on="0"/>
        <pt x="197" y="322" on="0"/>
        <pt x="213" y="319" on="0"/>
        <pt x="232" y="317" on="0"/>
        <pt x="249" y="321" on="1"/>
        <pt x="253" y="321" on="1"/>
        <pt x="260" y="321" on="0"/>
        <pt x="283" y="309" on="0"/>
        <pt x="283" y="299" on="1"/>
        <pt x="283" y="289" on="0"/>
        <pt x="279" y="268" on="0"/>
        <pt x="266" y="268" on="1"/>
        <pt x="257" y="268" on="0"/>
        <pt x="244" y="278" on="0"/>
        <pt x="235" y="278" on="1"/>
        <pt x="231" y="278" on="1"/>
        <pt x="196" y="270" on="0"/>
        <pt x="164" y="263" on="0"/>
        <pt x="155" y="263" on="1"/>
        <pt x="175" y="52" on="1"/>
        <pt x="175" y="51" on="0"/>
        <pt x="181" y="44" on="0"/>
        <pt x="184" y="43" on="1"/>
        <pt x="186" y="42" on="0"/>
        <pt x="199" y="37" on="0"/>
        <pt x="216" y="31" on="0"/>
        <pt x="232" y="27" on="0"/>
        <pt x="235" y="26" on="1"/>
        <pt x="241" y="26" on="1"/>
        <pt x="266" y="26" on="0"/>
        <pt x="318" y="51" on="0"/>
        <pt x="366" y="91" on="0"/>
        <pt x="406" y="144" on="0"/>
        <pt x="436" y="200" on="0"/>
        <pt x="454" y="256" on="0"/>
        <pt x="454" y="280" on="1"/>
        <pt x="454" y="309" on="0"/>
        <pt x="430" y="377" on="0"/>
        <pt x="389" y="445" on="0"/>
        <pt x="335" y="508" on="0"/>
        <pt x="274" y="556" on="0"/>
        <pt x="211" y="585" on="0"/>
        <pt x="181" y="585" on="1"/>
        <pt x="174" y="585" on="0"/>
        <pt x="160" y="584" on="0"/>
        <pt x="148" y="580" on="0"/>
        <pt x="139" y="570" on="0"/>
      </contour>
    </TTGlyph>
    <TTGlyph name="Euro" xMin="6" yMin="-1" xMax="503" yMax="568">
      <contour>
        <pt x="6" y="274" on="1"/>
        <pt x="6" y="286" on="0"/>
        <pt x="16" y="301" on="0"/>
        <pt x="31" y="310" on="0"/>
        <pt x="46" y="314" on="0"/>
        <pt x="50" y="316" on="1"/>
        <pt x="55" y="319" on="0"/>
        <pt x="65" y="322" on="1"/>
        <pt x="72" y="324" on="0"/>
        <pt x="78" y="326" on="1"/>
        <pt x="85" y="369" on="0"/>
        <pt x="111" y="454" on="0"/>
        <pt x="148" y="524" on="0"/>
        <pt x="198" y="568" on="0"/>
        <pt x="231" y="568" on="1"/>
        <pt x="286" y="572" on="0"/>
        <pt x="371" y="556" on="0"/>
        <pt x="436" y="526" on="0"/>
        <pt x="478" y="489" on="0"/>
        <pt x="501" y="455" on="0"/>
        <pt x="504" y="429" on="0"/>
        <pt x="487" y="422" on="0"/>
        <pt x="453" y="439" on="0"/>
        <pt x="427" y="466" on="1"/>
        <pt x="415" y="487" on="0"/>
        <pt x="373" y="515" on="0"/>
        <pt x="322" y="529" on="0"/>
        <pt x="265" y="530" on="0"/>
        <pt x="238" y="524" on="1"/>
        <pt x="213" y="524" on="0"/>
        <pt x="172" y="487" on="0"/>
        <pt x="142" y="430" on="0"/>
        <pt x="130" y="394" on="1"/>
        <pt x="121" y="365" on="0"/>
        <pt x="115" y="337" on="1"/>
        <pt x="311" y="337" on="1"/>
        <pt x="313" y="337" on="0"/>
        <pt x="322" y="329" on="0"/>
        <pt x="323" y="326" on="1"/>
        <pt x="323" y="325" on="1"/>
        <pt x="323" y="324" on="0"/>
        <pt x="324" y="322" on="0"/>
        <pt x="324" y="322" on="1"/>
        <pt x="323" y="320" on="1"/>
        <pt x="323" y="316" on="1"/>
        <pt x="322" y="315" on="0"/>
        <pt x="318" y="307" on="0"/>
        <pt x="317" y="307" on="1"/>
        <pt x="264" y="293" on="0"/>
        <pt x="160" y="289" on="0"/>
        <pt x="106" y="286" on="1"/>
        <pt x="104" y="273" on="0"/>
        <pt x="103" y="260" on="1"/>
        <pt x="100" y="238" on="0"/>
        <pt x="100" y="222" on="1"/>
        <pt x="109" y="222" on="0"/>
        <pt x="126" y="220" on="1"/>
        <pt x="145" y="220" on="0"/>
        <pt x="192" y="216" on="0"/>
        <pt x="241" y="210" on="0"/>
        <pt x="280" y="202" on="0"/>
        <pt x="306" y="192" on="0"/>
        <pt x="306" y="186" on="1"/>
        <pt x="306" y="185" on="0"/>
        <pt x="305" y="184" on="0"/>
        <pt x="305" y="183" on="1"/>
        <pt x="305" y="181" on="1"/>
        <pt x="305" y="178" on="0"/>
        <pt x="300" y="170" on="0"/>
        <pt x="298" y="170" on="1"/>
        <pt x="103" y="170" on="1"/>
        <pt x="105" y="156" on="0"/>
        <pt x="109" y="142" on="1"/>
        <pt x="119" y="109" on="0"/>
        <pt x="158" y="61" on="0"/>
        <pt x="217" y="34" on="0"/>
        <pt x="258" y="34" on="1"/>
        <pt x="279" y="34" on="0"/>
        <pt x="325" y="42" on="0"/>
        <pt x="370" y="56" on="0"/>
        <pt x="413" y="76" on="0"/>
        <pt x="431" y="88" on="1"/>
        <pt x="433" y="88" on="0"/>
        <pt x="443" y="96" on="0"/>
        <pt x="455" y="105" on="0"/>
        <pt x="466" y="112" on="0"/>
        <pt x="467" y="114" on="1"/>
        <pt x="468" y="114" on="0"/>
        <pt x="474" y="115" on="0"/>
        <pt x="475" y="115" on="1"/>
        <pt x="477" y="115" on="0"/>
        <pt x="483" y="114" on="0"/>
        <pt x="484" y="114" on="1"/>
        <pt x="477" y="82" on="0"/>
        <pt x="423" y="39" on="0"/>
        <pt x="353" y="11" on="0"/>
        <pt x="281" y="-1" on="0"/>
        <pt x="256" y="-1" on="1"/>
        <pt x="213" y="-1" on="0"/>
        <pt x="142" y="25" on="0"/>
        <pt x="91" y="73" on="0"/>
        <pt x="78" y="108" on="1"/>
        <pt x="67" y="136" on="0"/>
        <pt x="64" y="170" on="1"/>
        <pt x="14" y="170" on="1"/>
        <pt x="14" y="184" on="0"/>
        <pt x="20" y="202" on="0"/>
        <pt x="30" y="213" on="0"/>
        <pt x="43" y="218" on="0"/>
        <pt x="51" y="221" on="1"/>
        <pt x="65" y="221" on="1"/>
        <pt x="66" y="233" on="0"/>
        <pt x="67" y="247" on="1"/>
        <pt x="69" y="267" on="1"/>
        <pt x="61" y="265" on="0"/>
        <pt x="53" y="264" on="1"/>
        <pt x="44" y="263" on="0"/>
        <pt x="32" y="263" on="1"/>
        <pt x="28" y="263" on="0"/>
        <pt x="19" y="260" on="0"/>
        <pt x="11" y="260" on="0"/>
        <pt x="6" y="266" on="0"/>
      </contour>
    </TTGlyph>
    <TTGlyph name="F" xMin="17" yMin="-1" xMax="446" yMax="629">
      <contour>
        <pt x="96" y="244" on="1"/>
        <pt x="93" y="244" on="0"/>
        <pt x="76" y="244" on="0"/>
        <pt x="56" y="244" on="0"/>
        <pt x="38" y="244" on="0"/>
        <pt x="35" y="244" on="1"/>
        <pt x="23" y="246" on="0"/>
        <pt x="17" y="253" on="0"/>
        <pt x="17" y="261" on="1"/>
        <pt x="17" y="269" on="0"/>
        <pt x="37" y="285" on="0"/>
        <pt x="64" y="300" on="0"/>
        <pt x="90" y="315" on="0"/>
        <pt x="96" y="322" on="1"/>
        <pt x="96" y="333" on="1"/>
        <pt x="96" y="340" on="0"/>
        <pt x="97" y="357" on="0"/>
        <pt x="97" y="364" on="1"/>
        <pt x="97" y="407" on="1"/>
        <pt x="97" y="422" on="0"/>
        <pt x="94" y="450" on="0"/>
        <pt x="92" y="465" on="1"/>
        <pt x="91" y="475" on="0"/>
        <pt x="89" y="487" on="1"/>
        <pt x="89" y="482" on="1"/>
        <pt x="88" y="477" on="0"/>
        <pt x="82" y="472" on="0"/>
        <pt x="73" y="470" on="0"/>
        <pt x="67" y="470" on="1"/>
        <pt x="55" y="470" on="0"/>
        <pt x="35" y="487" on="0"/>
        <pt x="35" y="502" on="1"/>
        <pt x="35" y="522" on="0"/>
        <pt x="72" y="556" on="0"/>
        <pt x="129" y="585" on="0"/>
        <pt x="200" y="607" on="0"/>
        <pt x="268" y="622" on="0"/>
        <pt x="328" y="629" on="0"/>
        <pt x="345" y="629" on="1"/>
        <pt x="358" y="629" on="1"/>
        <pt x="367" y="629" on="0"/>
        <pt x="388" y="628" on="0"/>
        <pt x="397" y="628" on="1"/>
        <pt x="410" y="628" on="1"/>
        <pt x="446" y="617" on="0"/>
        <pt x="446" y="582" on="1"/>
        <pt x="446" y="572" on="1"/>
        <pt x="446" y="565" on="0"/>
        <pt x="444" y="551" on="0"/>
        <pt x="439" y="540" on="0"/>
        <pt x="433" y="540" on="1"/>
        <pt x="431" y="540" on="0"/>
        <pt x="428" y="541" on="0"/>
        <pt x="427" y="541" on="1"/>
        <pt x="424" y="553" on="0"/>
        <pt x="420" y="564" on="1"/>
        <pt x="416" y="573" on="0"/>
        <pt x="407" y="590" on="0"/>
        <pt x="402" y="594" on="1"/>
        <pt x="392" y="594" on="1"/>
        <pt x="385" y="594" on="0"/>
        <pt x="370" y="595" on="0"/>
        <pt x="363" y="595" on="1"/>
        <pt x="353" y="595" on="1"/>
        <pt x="332" y="595" on="0"/>
        <pt x="267" y="589" on="0"/>
        <pt x="202" y="571" on="0"/>
        <pt x="148" y="539" on="0"/>
        <pt x="139" y="514" on="1"/>
        <pt x="139" y="500" on="1"/>
        <pt x="139" y="490" on="0"/>
        <pt x="139" y="466" on="0"/>
        <pt x="139" y="456" on="1"/>
        <pt x="139" y="441" on="1"/>
        <pt x="139" y="409" on="0"/>
        <pt x="139" y="345" on="0"/>
        <pt x="148" y="314" on="1"/>
        <pt x="150" y="314" on="0"/>
        <pt x="160" y="313" on="0"/>
        <pt x="161" y="313" on="1"/>
        <pt x="188" y="313" on="0"/>
        <pt x="242" y="325" on="0"/>
        <pt x="295" y="339" on="0"/>
        <pt x="349" y="350" on="0"/>
        <pt x="377" y="350" on="1"/>
        <pt x="381" y="350" on="0"/>
        <pt x="401" y="352" on="0"/>
        <pt x="422" y="349" on="0"/>
        <pt x="439" y="341" on="0"/>
        <pt x="439" y="331" on="1"/>
        <pt x="439" y="330" on="0"/>
        <pt x="436" y="324" on="0"/>
        <pt x="436" y="322" on="1"/>
        <pt x="430" y="322" on="0"/>
        <pt x="403" y="320" on="0"/>
        <pt x="373" y="318" on="0"/>
        <pt x="346" y="315" on="0"/>
        <pt x="340" y="314" on="1"/>
        <pt x="337" y="313" on="0"/>
        <pt x="309" y="307" on="0"/>
        <pt x="276" y="298" on="0"/>
        <pt x="244" y="290" on="0"/>
        <pt x="235" y="288" on="1"/>
        <pt x="230" y="286" on="0"/>
        <pt x="207" y="279" on="0"/>
        <pt x="182" y="271" on="0"/>
        <pt x="160" y="263" on="0"/>
        <pt x="157" y="262" on="1"/>
        <pt x="156" y="261" on="0"/>
        <pt x="153" y="258" on="1"/>
        <pt x="148" y="253" on="1"/>
        <pt x="148" y="246" on="1"/>
        <pt x="148" y="241" on="0"/>
        <pt x="148" y="230" on="0"/>
        <pt x="148" y="225" on="1"/>
        <pt x="148" y="218" on="1"/>
        <pt x="148" y="199" on="0"/>
        <pt x="148" y="154" on="0"/>
        <pt x="153" y="109" on="0"/>
        <pt x="164" y="68" on="0"/>
        <pt x="175" y="52" on="1"/>
        <pt x="175" y="52" on="0"/>
        <pt x="183" y="46" on="0"/>
        <pt x="192" y="41" on="0"/>
        <pt x="200" y="35" on="0"/>
        <pt x="201" y="34" on="1"/>
        <pt x="201" y="30" on="1"/>
        <pt x="201" y="28" on="0"/>
        <pt x="202" y="25" on="0"/>
        <pt x="202" y="23" on="1"/>
        <pt x="202" y="9" on="0"/>
        <pt x="192" y="-1" on="0"/>
        <pt x="178" y="-1" on="1"/>
        <pt x="161" y="-1" on="0"/>
        <pt x="139" y="28" on="0"/>
        <pt x="124" y="73" on="0"/>
        <pt x="117" y="130" on="0"/>
        <pt x="110" y="184" on="0"/>
        <pt x="103" y="231" on="0"/>
      </contour>
    </TTGlyph>
    <TTGlyph name="G" xMin="31" yMin="-233" xMax="739" yMax="558">
      <contour>
        <pt x="468" y="182" on="1"/>
        <pt x="400" y="128" on="0"/>
        <pt x="266" y="34" on="0"/>
        <pt x="189" y="-2" on="1"/>
        <pt x="181" y="0" on="0"/>
        <pt x="167" y="-2" on="0"/>
        <pt x="154" y="-7" on="0"/>
        <pt x="139" y="-11" on="0"/>
        <pt x="132" y="-11" on="1"/>
        <pt x="112" y="-11" on="0"/>
        <pt x="75" y="5" on="0"/>
        <pt x="47" y="32" on="0"/>
        <pt x="31" y="68" on="0"/>
        <pt x="31" y="88" on="1"/>
        <pt x="31" y="148" on="0"/>
        <pt x="82" y="261" on="0"/>
        <pt x="157" y="364" on="0"/>
        <pt x="247" y="457" on="0"/>
        <pt x="285" y="496" on="1"/>
        <pt x="258" y="514" on="1"/>
        <pt x="267" y="522" on="1"/>
        <pt x="289" y="521" on="0"/>
        <pt x="325" y="532" on="0"/>
        <pt x="357" y="546" on="0"/>
        <pt x="390" y="558" on="0"/>
        <pt x="410" y="558" on="1"/>
        <pt x="416" y="558" on="0"/>
        <pt x="428" y="558" on="0"/>
        <pt x="437" y="555" on="0"/>
        <pt x="442" y="547" on="0"/>
        <pt x="442" y="540" on="1"/>
        <pt x="442" y="537" on="0"/>
        <pt x="410" y="514" on="0"/>
        <pt x="357" y="477" on="0"/>
        <pt x="289" y="427" on="0"/>
        <pt x="218" y="365" on="0"/>
        <pt x="151" y="294" on="0"/>
        <pt x="97" y="217" on="0"/>
        <pt x="65" y="133" on="0"/>
        <pt x="65" y="90" on="1"/>
        <pt x="65" y="73" on="0"/>
        <pt x="79" y="52" on="0"/>
        <pt x="100" y="38" on="0"/>
        <pt x="127" y="33" on="0"/>
        <pt x="140" y="33" on="1"/>
        <pt x="184" y="33" on="0"/>
        <pt x="280" y="79" on="0"/>
        <pt x="370" y="145" on="0"/>
        <pt x="449" y="221" on="0"/>
        <pt x="477" y="252" on="1"/>
        <pt x="483" y="258" on="0"/>
        <pt x="486" y="270" on="0"/>
        <pt x="486" y="278" on="1"/>
        <pt x="486" y="280" on="0"/>
        <pt x="485" y="286" on="0"/>
        <pt x="485" y="286" on="1"/>
        <pt x="455" y="280" on="0"/>
        <pt x="403" y="265" on="0"/>
        <pt x="352" y="248" on="0"/>
        <pt x="303" y="229" on="0"/>
        <pt x="276" y="217" on="1"/>
        <pt x="275" y="217" on="0"/>
        <pt x="274" y="217" on="1"/>
        <pt x="274" y="216" on="0"/>
        <pt x="271" y="216" on="1"/>
        <pt x="263" y="216" on="0"/>
        <pt x="257" y="228" on="0"/>
        <pt x="257" y="234" on="1"/>
        <pt x="257" y="245" on="0"/>
        <pt x="290" y="268" on="0"/>
        <pt x="334" y="287" on="0"/>
        <pt x="378" y="301" on="0"/>
        <pt x="389" y="304" on="1"/>
        <pt x="392" y="305" on="0"/>
        <pt x="421" y="313" on="0"/>
        <pt x="453" y="322" on="0"/>
        <pt x="481" y="329" on="0"/>
        <pt x="485" y="330" on="1"/>
        <pt x="493" y="332" on="0"/>
        <pt x="505" y="341" on="0"/>
        <pt x="517" y="350" on="0"/>
        <pt x="529" y="357" on="0"/>
        <pt x="538" y="357" on="1"/>
        <pt x="543" y="357" on="0"/>
        <pt x="552" y="355" on="0"/>
        <pt x="555" y="348" on="1"/>
        <pt x="712" y="348" on="1"/>
        <pt x="713" y="348" on="0"/>
        <pt x="721" y="346" on="0"/>
        <pt x="730" y="343" on="0"/>
        <pt x="736" y="340" on="0"/>
        <pt x="738" y="340" on="1"/>
        <pt x="738" y="339" on="0"/>
        <pt x="739" y="338" on="1"/>
        <pt x="739" y="337" on="0"/>
        <pt x="739" y="336" on="0"/>
        <pt x="739" y="335" on="1"/>
        <pt x="739" y="334" on="0"/>
        <pt x="739" y="333" on="0"/>
        <pt x="739" y="332" on="1"/>
        <pt x="738" y="331" on="0"/>
        <pt x="738" y="330" on="1"/>
        <pt x="737" y="328" on="0"/>
        <pt x="731" y="322" on="0"/>
        <pt x="730" y="322" on="1"/>
        <pt x="722" y="322" on="0"/>
        <pt x="685" y="319" on="0"/>
        <pt x="643" y="316" on="0"/>
        <pt x="606" y="314" on="0"/>
        <pt x="599" y="313" on="1"/>
        <pt x="577" y="310" on="0"/>
        <pt x="553" y="298" on="0"/>
        <pt x="546" y="278" on="1"/>
        <pt x="535" y="241" on="0"/>
        <pt x="523" y="178" on="0"/>
        <pt x="518" y="118" on="0"/>
        <pt x="518" y="54" on="0"/>
        <pt x="518" y="16" on="1"/>
        <pt x="518" y="10" on="0"/>
        <pt x="518" y="-26" on="0"/>
        <pt x="519" y="-65" on="0"/>
        <pt x="520" y="-99" on="0"/>
        <pt x="520" y="-106" on="1"/>
        <pt x="521" y="-112" on="0"/>
        <pt x="529" y="-142" on="0"/>
        <pt x="538" y="-175" on="0"/>
        <pt x="544" y="-205" on="0"/>
        <pt x="546" y="-211" on="1"/>
        <pt x="547" y="-213" on="0"/>
        <pt x="548" y="-230" on="0"/>
        <pt x="548" y="-233" on="1"/>
        <pt x="532" y="-233" on="0"/>
        <pt x="509" y="-209" on="0"/>
        <pt x="493" y="-171" on="0"/>
        <pt x="484" y="-125" on="0"/>
        <pt x="479" y="-81" on="0"/>
        <pt x="477" y="-45" on="0"/>
        <pt x="477" y="-36" on="1"/>
        <pt x="476" y="-24" on="0"/>
        <pt x="475" y="35" on="0"/>
        <pt x="475" y="102" on="0"/>
        <pt x="476" y="161" on="0"/>
        <pt x="477" y="173" on="1"/>
      </contour>
    </TTGlyph>
    <TTGlyph name="Gbreve" xMin="31" yMin="-233" xMax="739" yMax="794">
      <component glyphName="G" x="0" y="0" flags="0x1204"/>
      <component glyphName="breve" x="232" y="154" flags="0x1004"/>
    </TTGlyph>
    <TTGlyph name="Gcircumflex" xMin="31" yMin="-233" xMax="739" yMax="857">
      <component glyphName="G" x="0" y="0" flags="0x1204"/>
      <component glyphName="circumflex" x="152" y="154" flags="0x1004"/>
    </TTGlyph>
    <TTGlyph name="Gcommaaccent" xMin="31" yMin="-255" xMax="739" yMax="558">
      <component glyphName="G" x="0" y="0" flags="0x1204"/>
      <component glyphName="commaaccent" x="142" y="0" flags="0x1004"/>
    </TTGlyph>
    <TTGlyph name="Gdotaccent" xMin="31" yMin="-233" xMax="739" yMax="717">
      <component glyphName="G" x="0" y="0" flags="0x1204"/>
      <component glyphName="dotaccent" x="241" y="154" flags="0x1004"/>
    </TTGlyph>
    <TTGlyph name="H" xMin="18" yMin="-4" xMax="466" yMax="654">
      <contour>
        <pt x="376" y="454" on="1"/>
        <pt x="348" y="439" on="0"/>
        <pt x="290" y="414" on="0"/>
        <pt x="232" y="390" on="0"/>
        <pt x="175" y="365" on="0"/>
        <pt x="148" y="349" on="1"/>
        <pt x="148" y="347" on="0"/>
        <pt x="148" y="336" on="0"/>
        <pt x="148" y="323" on="0"/>
        <pt x="148" y="312" on="0"/>
        <pt x="148" y="310" on="1"/>
        <pt x="148" y="263" on="0"/>
        <pt x="155" y="167" on="0"/>
        <pt x="166" y="122" on="1"/>
        <pt x="166" y="121" on="0"/>
        <pt x="173" y="106" on="0"/>
        <pt x="175" y="104" on="1"/>
        <pt x="175" y="103" on="0"/>
        <pt x="175" y="97" on="0"/>
        <pt x="175" y="96" on="1"/>
        <pt x="175" y="90" on="0"/>
        <pt x="169" y="77" on="0"/>
        <pt x="161" y="77" on="1"/>
        <pt x="151" y="77" on="0"/>
        <pt x="136" y="103" on="0"/>
        <pt x="125" y="142" on="0"/>
        <pt x="118" y="187" on="0"/>
        <pt x="115" y="226" on="0"/>
        <pt x="114" y="253" on="0"/>
        <pt x="114" y="253" on="1"/>
        <pt x="112" y="261" on="0"/>
        <pt x="109" y="284" on="0"/>
        <pt x="107" y="306" on="0"/>
        <pt x="105" y="322" on="0"/>
        <pt x="105" y="322" on="1"/>
        <pt x="96" y="335" on="1"/>
        <pt x="26" y="335" on="1"/>
        <pt x="18" y="358" on="1"/>
        <pt x="32" y="366" on="0"/>
        <pt x="58" y="373" on="0"/>
        <pt x="77" y="384" on="0"/>
        <pt x="88" y="401" on="0"/>
        <pt x="88" y="418" on="1"/>
        <pt x="88" y="439" on="0"/>
        <pt x="77" y="482" on="0"/>
        <pt x="64" y="523" on="0"/>
        <pt x="52" y="565" on="0"/>
        <pt x="52" y="584" on="1"/>
        <pt x="52" y="591" on="0"/>
        <pt x="55" y="607" on="0"/>
        <pt x="61" y="620" on="0"/>
        <pt x="70" y="629" on="0"/>
        <pt x="79" y="629" on="1"/>
        <pt x="92" y="629" on="0"/>
        <pt x="106" y="595" on="0"/>
        <pt x="114" y="544" on="0"/>
        <pt x="118" y="486" on="0"/>
        <pt x="125" y="435" on="0"/>
        <pt x="136" y="401" on="0"/>
        <pt x="148" y="401" on="1"/>
        <pt x="158" y="401" on="0"/>
        <pt x="171" y="406" on="0"/>
        <pt x="184" y="410" on="1"/>
        <pt x="196" y="415" on="0"/>
        <pt x="235" y="428" on="0"/>
        <pt x="279" y="445" on="0"/>
        <pt x="324" y="466" on="0"/>
        <pt x="362" y="493" on="0"/>
        <pt x="389" y="523" on="0"/>
        <pt x="393" y="541" on="1"/>
        <pt x="394" y="550" on="0"/>
        <pt x="395" y="587" on="0"/>
        <pt x="401" y="625" on="0"/>
        <pt x="417" y="654" on="0"/>
        <pt x="433" y="654" on="1"/>
        <pt x="440" y="654" on="0"/>
        <pt x="449" y="642" on="0"/>
        <pt x="454" y="625" on="0"/>
        <pt x="454" y="609" on="0"/>
        <pt x="454" y="604" on="1"/>
        <pt x="454" y="602" on="0"/>
        <pt x="454" y="593" on="0"/>
        <pt x="454" y="584" on="0"/>
        <pt x="454" y="577" on="0"/>
        <pt x="454" y="576" on="1"/>
        <pt x="453" y="560" on="0"/>
        <pt x="449" y="496" on="0"/>
        <pt x="444" y="415" on="0"/>
        <pt x="439" y="325" on="0"/>
        <pt x="433" y="245" on="0"/>
        <pt x="429" y="181" on="0"/>
        <pt x="427" y="166" on="1"/>
        <pt x="427" y="161" on="0"/>
        <pt x="430" y="136" on="0"/>
        <pt x="433" y="108" on="0"/>
        <pt x="436" y="83" on="0"/>
        <pt x="436" y="78" on="1"/>
        <pt x="438" y="67" on="0"/>
        <pt x="448" y="48" on="0"/>
        <pt x="457" y="28" on="0"/>
        <pt x="466" y="8" on="0"/>
        <pt x="466" y="-4" on="1"/>
        <pt x="451" y="-4" on="0"/>
        <pt x="423" y="25" on="0"/>
        <pt x="402" y="64" on="0"/>
        <pt x="388" y="103" on="0"/>
        <pt x="388" y="114" on="1"/>
        <pt x="388" y="454" on="1"/>
      </contour>
    </TTGlyph>
    <TTGlyph name="Hcircumflex" xMin="18" yMin="-4" xMax="466" yMax="857">
      <component glyphName="H" x="0" y="0" flags="0x1204"/>
      <component glyphName="circumflex" x="69" y="154" flags="0x1004"/>
    </TTGlyph>
    <TTGlyph name="I" xMin="17" yMin="-6" xMax="115" yMax="612">
      <contour>
        <pt x="35" y="166" on="1"/>
        <pt x="28" y="262" on="0"/>
        <pt x="17" y="442" on="0"/>
        <pt x="17" y="537" on="1"/>
        <pt x="17" y="539" on="0"/>
        <pt x="17" y="553" on="0"/>
        <pt x="18" y="568" on="0"/>
        <pt x="18" y="582" on="0"/>
        <pt x="18" y="584" on="1"/>
        <pt x="19" y="591" on="0"/>
        <pt x="31" y="612" on="0"/>
        <pt x="39" y="612" on="1"/>
        <pt x="46" y="612" on="0"/>
        <pt x="55" y="600" on="0"/>
        <pt x="59" y="584" on="0"/>
        <pt x="61" y="570" on="0"/>
        <pt x="61" y="568" on="1"/>
        <pt x="62" y="560" on="0"/>
        <pt x="65" y="527" on="0"/>
        <pt x="67" y="491" on="0"/>
        <pt x="70" y="459" on="0"/>
        <pt x="70" y="454" on="1"/>
        <pt x="70" y="447" on="0"/>
        <pt x="70" y="407" on="0"/>
        <pt x="70" y="353" on="0"/>
        <pt x="70" y="292" on="0"/>
        <pt x="70" y="238" on="0"/>
        <pt x="70" y="199" on="0"/>
        <pt x="70" y="192" on="1"/>
        <pt x="70" y="166" on="0"/>
        <pt x="85" y="117" on="0"/>
        <pt x="101" y="68" on="0"/>
        <pt x="115" y="19" on="0"/>
        <pt x="115" y="-6" on="1"/>
        <pt x="103" y="-6" on="0"/>
        <pt x="82" y="16" on="0"/>
        <pt x="65" y="49" on="0"/>
        <pt x="52" y="89" on="0"/>
        <pt x="42" y="127" on="0"/>
        <pt x="36" y="158" on="0"/>
      </contour>
    </TTGlyph>
    <TTGlyph name="Iacute" xMin="9" yMin="-6" xMax="115" yMax="807">
      <component glyphName="I" x="0" y="0" flags="0x1204"/>
      <component glyphName="acute" x="-7" y="154" flags="0x1004"/>
    </TTGlyph>
    <TTGlyph name="Ibreve" xMin="16" yMin="-6" xMax="175" yMax="794">
      <component glyphName="I" x="0" y="0" flags="0x1204"/>
      <component glyphName="breve" x="-27" y="154" flags="0x1004"/>
    </TTGlyph>
    <TTGlyph name="Icircumflex" xMin="17" yMin="-6" xMax="194" yMax="857">
      <component glyphName="I" x="0" y="0" flags="0x1204"/>
      <component glyphName="circumflex" x="-108" y="154" flags="0x1004"/>
    </TTGlyph>
    <TTGlyph name="Idieresis" xMin="-31" yMin="-6" xMax="166" yMax="730">
      <component glyphName="I" x="0" y="0" flags="0x1204"/>
      <component glyphName="dieresis" x="-115" y="154" flags="0x1004"/>
    </TTGlyph>
    <TTGlyph name="Idotaccent" xMin="17" yMin="-6" xMax="115" yMax="717">
      <component glyphName="I" x="0" y="0" flags="0x1204"/>
      <component glyphName="dotaccent" x="-18" y="154" flags="0x1004"/>
    </TTGlyph>
    <TTGlyph name="Igrave" xMin="13" yMin="-6" xMax="134" yMax="818">
      <component glyphName="I" x="0" y="0" flags="0x1204"/>
      <component glyphName="grave" x="13" y="154" flags="0x1004"/>
    </TTGlyph>
    <TTGlyph name="Iogonek" xMin="17" yMin="-143" xMax="205" yMax="612">
      <contour>
        <pt x="115" y="13" on="1"/>
        <pt x="114" y="12" on="1"/>
        <pt x="115" y="3" on="0"/>
        <pt x="115" y="-6" on="1"/>
        <pt x="105" y="-6" on="0"/>
        <pt x="96" y="1" on="1"/>
        <pt x="88" y="-8" on="0"/>
        <pt x="84" y="-22" on="1"/>
        <pt x="77" y="-47" on="0"/>
        <pt x="92" y="-86" on="1"/>
        <pt x="97" y="-98" on="0"/>
        <pt x="115" y="-102" on="0"/>
        <pt x="136" y="-95" on="0"/>
        <pt x="160" y="-83" on="0"/>
        <pt x="181" y="-77" on="0"/>
        <pt x="200" y="-83" on="0"/>
        <pt x="205" y="-98" on="1"/>
        <pt x="207" y="-111" on="0"/>
        <pt x="181" y="-131" on="0"/>
        <pt x="144" y="-143" on="0"/>
        <pt x="103" y="-143" on="0"/>
        <pt x="88" y="-137" on="1"/>
        <pt x="74" y="-134" on="0"/>
        <pt x="54" y="-109" on="0"/>
        <pt x="48" y="-92" on="1"/>
        <pt x="43" y="-81" on="0"/>
        <pt x="47" y="-44" on="0"/>
        <pt x="58" y="-8" on="0"/>
        <pt x="66" y="5" on="1"/>
        <pt x="73" y="17" on="0"/>
        <pt x="79" y="21" on="1"/>
        <pt x="76" y="26" on="0"/>
        <pt x="73" y="32" on="1"/>
        <pt x="65" y="49" on="0"/>
        <pt x="52" y="89" on="0"/>
        <pt x="42" y="127" on="0"/>
        <pt x="36" y="158" on="0"/>
        <pt x="35" y="166" on="1"/>
        <pt x="28" y="262" on="0"/>
        <pt x="17" y="442" on="0"/>
        <pt x="17" y="537" on="1"/>
        <pt x="17" y="546" on="1"/>
        <pt x="17" y="553" on="0"/>
        <pt x="18" y="568" on="0"/>
        <pt x="18" y="575" on="1"/>
        <pt x="18" y="584" on="1"/>
        <pt x="19" y="591" on="0"/>
        <pt x="31" y="612" on="0"/>
        <pt x="39" y="612" on="1"/>
        <pt x="46" y="612" on="0"/>
        <pt x="55" y="600" on="0"/>
        <pt x="59" y="584" on="0"/>
        <pt x="61" y="570" on="0"/>
        <pt x="61" y="568" on="1"/>
        <pt x="62" y="560" on="0"/>
        <pt x="65" y="527" on="0"/>
        <pt x="67" y="491" on="0"/>
        <pt x="70" y="459" on="0"/>
        <pt x="70" y="454" on="1"/>
        <pt x="70" y="192" on="1"/>
        <pt x="70" y="166" on="0"/>
        <pt x="85" y="117" on="0"/>
        <pt x="101" y="68" on="0"/>
        <pt x="108" y="43" on="1"/>
        <pt x="112" y="28" on="0"/>
        <pt x="114" y="13" on="1"/>
      </contour>
    </TTGlyph>
    <TTGlyph name="Itilde" xMin="-65" yMin="-6" xMax="229" yMax="819">
      <component glyphName="I" x="0" y="0" flags="0x1204"/>
      <component glyphName="tilde" x="-55" y="154" flags="0x1004"/>
    </TTGlyph>
    <TTGlyph name="J" xMin="7" yMin="-680" xMax="532" yMax="568">
      <contour>
        <pt x="244" y="-301" on="1"/>
        <pt x="244" y="-279" on="0"/>
        <pt x="246" y="-229" on="0"/>
        <pt x="255" y="-178" on="0"/>
        <pt x="273" y="-131" on="0"/>
        <pt x="288" y="-113" on="1"/>
        <pt x="298" y="-102" on="0"/>
        <pt x="343" y="-65" on="0"/>
        <pt x="391" y="-23" on="0"/>
        <pt x="428" y="16" on="0"/>
        <pt x="428" y="31" on="1"/>
        <pt x="428" y="34" on="0"/>
        <pt x="427" y="50" on="0"/>
        <pt x="427" y="53" on="1"/>
        <pt x="415" y="55" on="0"/>
        <pt x="369" y="61" on="0"/>
        <pt x="311" y="70" on="0"/>
        <pt x="246" y="79" on="0"/>
        <pt x="188" y="88" on="0"/>
        <pt x="142" y="94" on="0"/>
        <pt x="130" y="96" on="1"/>
        <pt x="124" y="97" on="0"/>
        <pt x="92" y="100" on="0"/>
        <pt x="56" y="103" on="0"/>
        <pt x="24" y="105" on="0"/>
        <pt x="17" y="105" on="1"/>
        <pt x="10" y="107" on="0"/>
        <pt x="7" y="118" on="0"/>
        <pt x="7" y="124" on="1"/>
        <pt x="7" y="133" on="0"/>
        <pt x="13" y="136" on="0"/>
        <pt x="26" y="139" on="1"/>
        <pt x="31" y="142" on="0"/>
        <pt x="72" y="154" on="0"/>
        <pt x="119" y="169" on="0"/>
        <pt x="160" y="182" on="0"/>
        <pt x="166" y="184" on="1"/>
        <pt x="181" y="189" on="0"/>
        <pt x="226" y="206" on="0"/>
        <pt x="274" y="229" on="0"/>
        <pt x="322" y="256" on="0"/>
        <pt x="361" y="288" on="0"/>
        <pt x="385" y="322" on="0"/>
        <pt x="385" y="341" on="1"/>
        <pt x="385" y="366" on="0"/>
        <pt x="379" y="414" on="0"/>
        <pt x="371" y="463" on="0"/>
        <pt x="365" y="511" on="0"/>
        <pt x="365" y="535" on="1"/>
        <pt x="365" y="545" on="0"/>
        <pt x="369" y="563" on="0"/>
        <pt x="384" y="568" on="1"/>
        <pt x="403" y="556" on="0"/>
        <pt x="421" y="521" on="0"/>
        <pt x="430" y="479" on="0"/>
        <pt x="437" y="437" on="0"/>
        <pt x="445" y="419" on="1"/>
        <pt x="475" y="18" on="1"/>
        <pt x="532" y="18" on="1"/>
        <pt x="528" y="11" on="0"/>
        <pt x="511" y="2" on="0"/>
        <pt x="493" y="-5" on="0"/>
        <pt x="480" y="-14" on="0"/>
        <pt x="480" y="-21" on="1"/>
        <pt x="480" y="-63" on="0"/>
        <pt x="485" y="-148" on="0"/>
        <pt x="492" y="-232" on="0"/>
        <pt x="498" y="-317" on="0"/>
        <pt x="498" y="-359" on="1"/>
        <pt x="498" y="-371" on="0"/>
        <pt x="498" y="-407" on="0"/>
        <pt x="497" y="-443" on="0"/>
        <pt x="497" y="-470" on="0"/>
        <pt x="497" y="-471" on="1"/>
        <pt x="496" y="-485" on="0"/>
        <pt x="494" y="-525" on="0"/>
        <pt x="487" y="-570" on="0"/>
        <pt x="475" y="-616" on="0"/>
        <pt x="457" y="-653" on="0"/>
        <pt x="429" y="-679" on="0"/>
        <pt x="410" y="-680" on="1"/>
        <pt x="367" y="-648" on="0"/>
        <pt x="304" y="-560" on="0"/>
        <pt x="263" y="-460" on="0"/>
        <pt x="244" y="-353" on="0"/>
      </contour>
      <contour>
        <pt x="277" y="-293" on="1"/>
        <pt x="277" y="-338" on="0"/>
        <pt x="291" y="-431" on="0"/>
        <pt x="322" y="-521" on="0"/>
        <pt x="373" y="-599" on="0"/>
        <pt x="410" y="-629" on="1"/>
        <pt x="411" y="-629" on="0"/>
        <pt x="413" y="-629" on="0"/>
        <pt x="414" y="-629" on="1"/>
        <pt x="424" y="-629" on="0"/>
        <pt x="438" y="-605" on="0"/>
        <pt x="447" y="-572" on="0"/>
        <pt x="452" y="-541" on="0"/>
        <pt x="454" y="-533" on="1"/>
        <pt x="454" y="-527" on="0"/>
        <pt x="457" y="-503" on="0"/>
        <pt x="460" y="-477" on="0"/>
        <pt x="462" y="-457" on="0"/>
        <pt x="462" y="-454" on="1"/>
        <pt x="462" y="-452" on="0"/>
        <pt x="462" y="-426" on="0"/>
        <pt x="463" y="-392" on="0"/>
        <pt x="463" y="-357" on="0"/>
        <pt x="463" y="-347" on="1"/>
        <pt x="463" y="-274" on="0"/>
        <pt x="460" y="-125" on="0"/>
        <pt x="445" y="-53" on="1"/>
        <pt x="444" y="-50" on="0"/>
        <pt x="438" y="-36" on="0"/>
        <pt x="436" y="-35" on="1"/>
        <pt x="435" y="-35" on="1"/>
        <pt x="434" y="-35" on="0"/>
        <pt x="432" y="-34" on="0"/>
        <pt x="431" y="-34" on="1"/>
        <pt x="405" y="-34" on="0"/>
        <pt x="362" y="-62" on="0"/>
        <pt x="328" y="-107" on="0"/>
        <pt x="303" y="-165" on="0"/>
        <pt x="286" y="-222" on="0"/>
        <pt x="277" y="-275" on="0"/>
      </contour>
      <contour>
        <pt x="174" y="124" on="1"/>
        <pt x="200" y="124" on="0"/>
        <pt x="252" y="118" on="0"/>
        <pt x="303" y="111" on="0"/>
        <pt x="354" y="105" on="0"/>
        <pt x="380" y="105" on="1"/>
        <pt x="392" y="105" on="0"/>
        <pt x="406" y="107" on="0"/>
        <pt x="418" y="114" on="1"/>
        <pt x="418" y="117" on="0"/>
        <pt x="419" y="136" on="0"/>
        <pt x="419" y="139" on="1"/>
        <pt x="419" y="145" on="0"/>
        <pt x="418" y="164" on="0"/>
        <pt x="418" y="166" on="1"/>
        <pt x="417" y="177" on="0"/>
        <pt x="412" y="209" on="0"/>
        <pt x="406" y="240" on="0"/>
        <pt x="402" y="262" on="0"/>
        <pt x="401" y="262" on="1"/>
        <pt x="384" y="262" on="1"/>
        <pt x="334" y="227" on="0"/>
        <pt x="229" y="166" on="0"/>
        <pt x="174" y="139" on="1"/>
      </contour>
    </TTGlyph>
    <TTGlyph name="Jcircumflex" xMin="7" yMin="-680" xMax="532" yMax="857">
      <component glyphName="J" x="0" y="0" flags="0x1204"/>
      <component glyphName="circumflex" x="100" y="154" flags="0x1004"/>
    </TTGlyph>
    <TTGlyph name="K" xMin="26" yMin="-1" xMax="499" yMax="542">
      <contour>
        <pt x="26" y="523" on="1"/>
        <pt x="26" y="535" on="0"/>
        <pt x="34" y="542" on="0"/>
        <pt x="43" y="542" on="1"/>
        <pt x="55" y="542" on="0"/>
        <pt x="66" y="526" on="0"/>
        <pt x="70" y="514" on="1"/>
        <pt x="70" y="502" on="0"/>
        <pt x="69" y="452" on="0"/>
        <pt x="69" y="389" on="0"/>
        <pt x="69" y="319" on="0"/>
        <pt x="69" y="255" on="0"/>
        <pt x="70" y="204" on="0"/>
        <pt x="70" y="192" on="1"/>
        <pt x="70" y="187" on="0"/>
        <pt x="72" y="157" on="0"/>
        <pt x="74" y="124" on="0"/>
        <pt x="77" y="94" on="0"/>
        <pt x="78" y="88" on="1"/>
        <pt x="79" y="85" on="0"/>
        <pt x="86" y="71" on="0"/>
        <pt x="88" y="70" on="1"/>
        <pt x="88" y="69" on="0"/>
        <pt x="89" y="69" on="1"/>
        <pt x="91" y="69" on="1"/>
        <pt x="97" y="69" on="0"/>
        <pt x="126" y="115" on="0"/>
        <pt x="163" y="187" on="0"/>
        <pt x="208" y="275" on="0"/>
        <pt x="253" y="361" on="0"/>
        <pt x="296" y="433" on="0"/>
        <pt x="314" y="454" on="1"/>
        <pt x="315" y="454" on="0"/>
        <pt x="318" y="454" on="0"/>
        <pt x="319" y="454" on="1"/>
        <pt x="328" y="454" on="0"/>
        <pt x="332" y="439" on="0"/>
        <pt x="332" y="431" on="1"/>
        <pt x="332" y="406" on="0"/>
        <pt x="304" y="354" on="0"/>
        <pt x="271" y="292" on="0"/>
        <pt x="243" y="222" on="0"/>
        <pt x="243" y="179" on="1"/>
        <pt x="243" y="176" on="0"/>
        <pt x="243" y="163" on="0"/>
        <pt x="244" y="147" on="0"/>
        <pt x="244" y="133" on="0"/>
        <pt x="244" y="130" on="1"/>
        <pt x="251" y="105" on="0"/>
        <pt x="294" y="73" on="0"/>
        <pt x="350" y="55" on="0"/>
        <pt x="413" y="47" on="0"/>
        <pt x="465" y="43" on="0"/>
        <pt x="499" y="37" on="0"/>
        <pt x="499" y="31" on="1"/>
        <pt x="499" y="28" on="0"/>
        <pt x="498" y="26" on="1"/>
        <pt x="474" y="17" on="0"/>
        <pt x="430" y="17" on="0"/>
        <pt x="406" y="17" on="1"/>
        <pt x="353" y="17" on="0"/>
        <pt x="286" y="29" on="0"/>
        <pt x="241" y="62" on="0"/>
        <pt x="209" y="120" on="0"/>
        <pt x="192" y="166" on="1"/>
        <pt x="180" y="159" on="0"/>
        <pt x="164" y="129" on="0"/>
        <pt x="151" y="92" on="0"/>
        <pt x="140" y="52" on="0"/>
        <pt x="124" y="20" on="0"/>
        <pt x="100" y="-1" on="0"/>
        <pt x="83" y="-1" on="1"/>
        <pt x="67" y="-1" on="0"/>
        <pt x="47" y="31" on="0"/>
        <pt x="37" y="72" on="0"/>
        <pt x="34" y="109" on="0"/>
        <pt x="34" y="114" on="1"/>
      </contour>
    </TTGlyph>
    <TTGlyph name="Kcommaaccent" xMin="26" yMin="-255" xMax="499" yMax="542">
      <component glyphName="K" x="0" y="0" flags="0x1204"/>
      <component glyphName="commaaccent" x="68" y="0" flags="0x1004"/>
    </TTGlyph>
    <TTGlyph name="L" xMin="25" yMin="-1" xMax="506" yMax="580">
      <contour>
        <pt x="25" y="246" on="1"/>
        <pt x="25" y="321" on="0"/>
        <pt x="38" y="467" on="0"/>
        <pt x="52" y="541" on="1"/>
        <pt x="55" y="553" on="0"/>
        <pt x="61" y="568" on="0"/>
        <pt x="70" y="577" on="0"/>
        <pt x="85" y="580" on="0"/>
        <pt x="97" y="580" on="1"/>
        <pt x="97" y="576" on="0"/>
        <pt x="97" y="553" on="0"/>
        <pt x="96" y="550" on="1"/>
        <pt x="95" y="543" on="0"/>
        <pt x="90" y="500" on="0"/>
        <pt x="82" y="442" on="0"/>
        <pt x="74" y="378" on="0"/>
        <pt x="67" y="320" on="0"/>
        <pt x="61" y="277" on="0"/>
        <pt x="61" y="270" on="1"/>
        <pt x="61" y="262" on="1"/>
        <pt x="61" y="214" on="0"/>
        <pt x="86" y="131" on="0"/>
        <pt x="138" y="69" on="0"/>
        <pt x="214" y="34" on="0"/>
        <pt x="265" y="34" on="1"/>
        <pt x="295" y="34" on="0"/>
        <pt x="354" y="47" on="0"/>
        <pt x="412" y="64" on="0"/>
        <pt x="469" y="78" on="0"/>
        <pt x="498" y="78" on="1"/>
        <pt x="506" y="78" on="1"/>
        <pt x="498" y="61" on="1"/>
        <pt x="497" y="61" on="0"/>
        <pt x="483" y="55" on="0"/>
        <pt x="463" y="46" on="0"/>
        <pt x="443" y="37" on="0"/>
        <pt x="436" y="34" on="1"/>
        <pt x="393" y="18" on="0"/>
        <pt x="306" y="-1" on="0"/>
        <pt x="259" y="-1" on="1"/>
        <pt x="199" y="-1" on="0"/>
        <pt x="111" y="33" on="0"/>
        <pt x="53" y="97" on="0"/>
        <pt x="25" y="188" on="0"/>
      </contour>
    </TTGlyph>
    <TTGlyph name="Lacute" xMin="25" yMin="-1" xMax="506" yMax="807">
      <component glyphName="L" x="0" y="0" flags="0x1204"/>
      <component glyphName="acute" x="182" y="154" flags="0x1004"/>
    </TTGlyph>
    <TTGlyph name="Lcommaaccent" xMin="25" yMin="-255" xMax="506" yMax="580">
      <component glyphName="L" x="0" y="0" flags="0x1204"/>
      <component glyphName="commaaccent" x="73" y="0" flags="0x1004"/>
    </TTGlyph>
    <TTGlyph name="Ldot" xMin="25" yMin="-1" xMax="506" yMax="580">
      <component glyphName="L" x="0" y="0" flags="0x1204"/>
      <component glyphName="periodcentered" x="172" y="0" flags="0x1004"/>
    </TTGlyph>
    <TTGlyph name="Lslash" xMin="25" yMin="-1" xMax="506" yMax="580">
      <component glyphName="L" x="0" y="0" flags="0x1204"/>
      <component glyphName="hyphen" x="47" y="-21" scalex="0.642150878906" scaley="0.941589355469" flags="0x1004"/>
    </TTGlyph>
    <TTGlyph name="M" xMin="18" yMin="-5" xMax="724" yMax="637">
      <contour>
        <pt x="607" y="454" on="1"/>
        <pt x="596" y="450" on="0"/>
        <pt x="589" y="437" on="0"/>
        <pt x="585" y="427" on="1"/>
        <pt x="583" y="423" on="0"/>
        <pt x="571" y="394" on="0"/>
        <pt x="555" y="354" on="0"/>
        <pt x="536" y="310" on="0"/>
        <pt x="520" y="270" on="0"/>
        <pt x="508" y="240" on="0"/>
        <pt x="506" y="235" on="1"/>
        <pt x="499" y="219" on="0"/>
        <pt x="478" y="177" on="0"/>
        <pt x="449" y="139" on="0"/>
        <pt x="414" y="113" on="0"/>
        <pt x="393" y="113" on="1"/>
        <pt x="360" y="113" on="0"/>
        <pt x="320" y="164" on="0"/>
        <pt x="299" y="245" on="0"/>
        <pt x="291" y="346" on="0"/>
        <pt x="286" y="442" on="0"/>
        <pt x="280" y="526" on="0"/>
        <pt x="271" y="550" on="1"/>
        <pt x="269" y="550" on="0"/>
        <pt x="267" y="550" on="0"/>
        <pt x="266" y="550" on="1"/>
        <pt x="265" y="550" on="0"/>
        <pt x="265" y="550" on="0"/>
        <pt x="264" y="550" on="1"/>
        <pt x="262" y="550" on="1"/>
        <pt x="252" y="544" on="0"/>
        <pt x="235" y="520" on="0"/>
        <pt x="221" y="493" on="0"/>
        <pt x="212" y="469" on="0"/>
        <pt x="210" y="462" on="1"/>
        <pt x="96" y="96" on="1"/>
        <pt x="95" y="93" on="0"/>
        <pt x="91" y="83" on="0"/>
        <pt x="84" y="74" on="0"/>
        <pt x="75" y="68" on="0"/>
        <pt x="70" y="70" on="1"/>
        <pt x="67" y="70" on="0"/>
        <pt x="58" y="79" on="0"/>
        <pt x="50" y="90" on="0"/>
        <pt x="44" y="101" on="0"/>
        <pt x="43" y="104" on="1"/>
        <pt x="28" y="205" on="0"/>
        <pt x="24" y="415" on="0"/>
        <pt x="26" y="514" on="1"/>
        <pt x="25" y="516" on="0"/>
        <pt x="18" y="530" on="0"/>
        <pt x="18" y="532" on="1"/>
        <pt x="18" y="539" on="0"/>
        <pt x="27" y="554" on="0"/>
        <pt x="40" y="568" on="0"/>
        <pt x="55" y="577" on="0"/>
        <pt x="61" y="577" on="1"/>
        <pt x="71" y="577" on="0"/>
        <pt x="79" y="566" on="0"/>
        <pt x="79" y="556" on="1"/>
        <pt x="79" y="502" on="0"/>
        <pt x="69" y="396" on="0"/>
        <pt x="69" y="341" on="1"/>
        <pt x="69" y="334" on="0"/>
        <pt x="69" y="308" on="0"/>
        <pt x="70" y="283" on="0"/>
        <pt x="70" y="263" on="0"/>
        <pt x="70" y="262" on="1"/>
        <pt x="79" y="226" on="1"/>
        <pt x="80" y="228" on="0"/>
        <pt x="87" y="234" on="0"/>
        <pt x="88" y="235" on="1"/>
        <pt x="90" y="239" on="0"/>
        <pt x="100" y="261" on="0"/>
        <pt x="111" y="286" on="0"/>
        <pt x="121" y="309" on="0"/>
        <pt x="122" y="314" on="1"/>
        <pt x="124" y="319" on="0"/>
        <pt x="134" y="346" on="0"/>
        <pt x="148" y="385" on="0"/>
        <pt x="165" y="427" on="0"/>
        <pt x="179" y="465" on="0"/>
        <pt x="190" y="493" on="0"/>
        <pt x="192" y="498" on="1"/>
        <pt x="196" y="506" on="0"/>
        <pt x="213" y="547" on="0"/>
        <pt x="238" y="588" on="0"/>
        <pt x="267" y="620" on="0"/>
        <pt x="283" y="620" on="1"/>
        <pt x="298" y="620" on="0"/>
        <pt x="314" y="580" on="0"/>
        <pt x="323" y="515" on="0"/>
        <pt x="327" y="432" on="0"/>
        <pt x="330" y="344" on="0"/>
        <pt x="337" y="261" on="0"/>
        <pt x="351" y="196" on="0"/>
        <pt x="376" y="156" on="0"/>
        <pt x="397" y="156" on="1"/>
        <pt x="403" y="156" on="0"/>
        <pt x="418" y="169" on="0"/>
        <pt x="432" y="187" on="0"/>
        <pt x="443" y="205" on="0"/>
        <pt x="445" y="210" on="1"/>
        <pt x="452" y="223" on="0"/>
        <pt x="478" y="279" on="0"/>
        <pt x="511" y="349" on="0"/>
        <pt x="547" y="427" on="0"/>
        <pt x="579" y="498" on="0"/>
        <pt x="605" y="554" on="0"/>
        <pt x="611" y="568" on="1"/>
        <pt x="616" y="580" on="0"/>
        <pt x="633" y="622" on="0"/>
        <pt x="637" y="637" on="1"/>
        <pt x="649" y="635" on="0"/>
        <pt x="673" y="625" on="0"/>
        <pt x="673" y="612" on="1"/>
        <pt x="673" y="610" on="0"/>
        <pt x="672" y="603" on="0"/>
        <pt x="672" y="602" on="1"/>
        <pt x="658" y="520" on="0"/>
        <pt x="645" y="365" on="0"/>
        <pt x="645" y="283" on="1"/>
        <pt x="645" y="276" on="0"/>
        <pt x="645" y="241" on="0"/>
        <pt x="646" y="200" on="0"/>
        <pt x="646" y="165" on="0"/>
        <pt x="646" y="157" on="1"/>
        <pt x="651" y="116" on="0"/>
        <pt x="699" y="48" on="0"/>
        <pt x="724" y="18" on="1"/>
        <pt x="724" y="-5" on="1"/>
        <pt x="715" y="-5" on="0"/>
        <pt x="689" y="14" on="0"/>
        <pt x="663" y="44" on="0"/>
        <pt x="638" y="82" on="0"/>
        <pt x="619" y="118" on="0"/>
        <pt x="607" y="148" on="0"/>
        <pt x="607" y="157" on="1"/>
      </contour>
    </TTGlyph>
    <TTGlyph name="N" xMin="25" yMin="-1" xMax="550" yMax="585">
      <contour>
        <pt x="114" y="392" on="1"/>
        <pt x="114" y="392" on="0"/>
        <pt x="109" y="358" on="0"/>
        <pt x="104" y="310" on="0"/>
        <pt x="98" y="261" on="0"/>
        <pt x="96" y="244" on="1"/>
        <pt x="96" y="235" on="1"/>
        <pt x="94" y="226" on="0"/>
        <pt x="87" y="179" on="0"/>
        <pt x="79" y="126" on="0"/>
        <pt x="71" y="79" on="0"/>
        <pt x="70" y="70" on="1"/>
        <pt x="67" y="58" on="0"/>
        <pt x="50" y="43" on="0"/>
        <pt x="38" y="43" on="1"/>
        <pt x="32" y="43" on="0"/>
        <pt x="27" y="52" on="0"/>
        <pt x="25" y="66" on="0"/>
        <pt x="25" y="79" on="0"/>
        <pt x="25" y="82" on="1"/>
        <pt x="25" y="136" on="0"/>
        <pt x="35" y="253" on="0"/>
        <pt x="53" y="371" on="0"/>
        <pt x="79" y="487" on="0"/>
        <pt x="96" y="541" on="1"/>
        <pt x="97" y="546" on="0"/>
        <pt x="104" y="550" on="0"/>
        <pt x="113" y="550" on="0"/>
        <pt x="122" y="550" on="0"/>
        <pt x="124" y="550" on="1"/>
        <pt x="126" y="550" on="0"/>
        <pt x="131" y="550" on="0"/>
        <pt x="133" y="550" on="1"/>
        <pt x="139" y="550" on="1"/>
        <pt x="139" y="550" on="0"/>
        <pt x="142" y="541" on="0"/>
        <pt x="145" y="529" on="0"/>
        <pt x="148" y="518" on="0"/>
        <pt x="148" y="514" on="1"/>
        <pt x="154" y="487" on="0"/>
        <pt x="178" y="397" on="0"/>
        <pt x="215" y="292" on="0"/>
        <pt x="262" y="184" on="0"/>
        <pt x="319" y="97" on="0"/>
        <pt x="383" y="43" on="0"/>
        <pt x="418" y="43" on="1"/>
        <pt x="435" y="43" on="0"/>
        <pt x="463" y="67" on="0"/>
        <pt x="484" y="106" on="0"/>
        <pt x="499" y="154" on="0"/>
        <pt x="510" y="199" on="0"/>
        <pt x="515" y="238" on="0"/>
        <pt x="515" y="248" on="1"/>
        <pt x="515" y="327" on="0"/>
        <pt x="482" y="476" on="0"/>
        <pt x="454" y="550" on="1"/>
        <pt x="448" y="558" on="0"/>
        <pt x="424" y="572" on="0"/>
        <pt x="418" y="576" on="1"/>
        <pt x="421" y="583" on="0"/>
        <pt x="431" y="585" on="0"/>
        <pt x="437" y="585" on="1"/>
        <pt x="456" y="585" on="0"/>
        <pt x="487" y="539" on="0"/>
        <pt x="512" y="469" on="0"/>
        <pt x="532" y="385" on="0"/>
        <pt x="544" y="307" on="0"/>
        <pt x="550" y="245" on="0"/>
        <pt x="550" y="234" on="1"/>
        <pt x="550" y="202" on="0"/>
        <pt x="539" y="121" on="0"/>
        <pt x="509" y="49" on="0"/>
        <pt x="456" y="-1" on="0"/>
        <pt x="414" y="-1" on="1"/>
        <pt x="376" y="-1" on="0"/>
        <pt x="311" y="48" on="0"/>
        <pt x="256" y="125" on="0"/>
        <pt x="209" y="220" on="0"/>
        <pt x="169" y="311" on="0"/>
        <pt x="136" y="388" on="0"/>
        <pt x="122" y="410" on="1"/>
      </contour>
    </TTGlyph>
    <TTGlyph name="Nacute" xMin="25" yMin="-1" xMax="550" yMax="807">
      <component glyphName="N" x="0" y="0" flags="0x1204"/>
      <component glyphName="acute" x="213" y="154" flags="0x1004"/>
    </TTGlyph>
    <TTGlyph name="Ncaron" xMin="25" yMin="-1" xMax="550" yMax="801">
      <component glyphName="N" x="0" y="0" flags="0x1204"/>
      <component glyphName="caron" x="106" y="154" flags="0x1004"/>
    </TTGlyph>
    <TTGlyph name="Ncommaaccent" xMin="25" yMin="-255" xMax="550" yMax="585">
      <component glyphName="N" x="0" y="0" flags="0x1204"/>
      <component glyphName="commaaccent" x="103" y="0" flags="0x1004"/>
    </TTGlyph>
    <TTGlyph name="Ntilde" xMin="25" yMin="-1" xMax="550" yMax="819">
      <component glyphName="N" x="0" y="0" flags="0x1204"/>
      <component glyphName="tilde" x="165" y="154" flags="0x1004"/>
    </TTGlyph>
    <TTGlyph name="O" xMin="17" yMin="-1" xMax="446" yMax="498">
      <contour>
        <pt x="17" y="170" on="1"/>
        <pt x="17" y="199" on="0"/>
        <pt x="30" y="271" on="0"/>
        <pt x="55" y="344" on="0"/>
        <pt x="94" y="412" on="0"/>
        <pt x="145" y="466" on="0"/>
        <pt x="207" y="498" on="0"/>
        <pt x="244" y="498" on="1"/>
        <pt x="276" y="498" on="0"/>
        <pt x="330" y="469" on="0"/>
        <pt x="375" y="424" on="0"/>
        <pt x="409" y="364" on="0"/>
        <pt x="433" y="301" on="0"/>
        <pt x="446" y="240" on="0"/>
        <pt x="446" y="215" on="1"/>
        <pt x="446" y="180" on="0"/>
        <pt x="422" y="120" on="0"/>
        <pt x="381" y="72" on="0"/>
        <pt x="326" y="36" on="0"/>
        <pt x="264" y="11" on="0"/>
        <pt x="199" y="-1" on="0"/>
        <pt x="167" y="-1" on="1"/>
        <pt x="124" y="-1" on="0"/>
        <pt x="67" y="23" on="0"/>
        <pt x="32" y="68" on="0"/>
        <pt x="17" y="131" on="0"/>
      </contour>
      <contour>
        <pt x="52" y="148" on="1"/>
        <pt x="52" y="120" on="0"/>
        <pt x="70" y="79" on="0"/>
        <pt x="102" y="54" on="0"/>
        <pt x="146" y="43" on="0"/>
        <pt x="173" y="43" on="1"/>
        <pt x="215" y="43" on="0"/>
        <pt x="301" y="62" on="0"/>
        <pt x="369" y="105" on="0"/>
        <pt x="412" y="172" on="0"/>
        <pt x="412" y="220" on="1"/>
        <pt x="412" y="250" on="0"/>
        <pt x="389" y="334" on="0"/>
        <pt x="347" y="410" on="0"/>
        <pt x="286" y="463" on="0"/>
        <pt x="249" y="463" on="1"/>
        <pt x="232" y="463" on="0"/>
        <pt x="209" y="460" on="0"/>
        <pt x="192" y="454" on="1"/>
        <pt x="192" y="449" on="1"/>
        <pt x="192" y="445" on="1"/>
        <pt x="192" y="444" on="0"/>
        <pt x="195" y="436" on="0"/>
        <pt x="199" y="427" on="0"/>
        <pt x="201" y="419" on="0"/>
        <pt x="201" y="418" on="1"/>
        <pt x="201" y="409" on="0"/>
        <pt x="191" y="400" on="0"/>
        <pt x="178" y="396" on="0"/>
        <pt x="163" y="394" on="0"/>
        <pt x="157" y="392" on="1"/>
        <pt x="124" y="378" on="0"/>
        <pt x="83" y="322" on="0"/>
        <pt x="60" y="253" on="0"/>
        <pt x="52" y="179" on="0"/>
      </contour>
    </TTGlyph>
    <TTGlyph name="OE" xMin="17" yMin="-1" xMax="886" yMax="522">
      <contour>
        <pt x="17" y="170" on="1"/>
        <pt x="17" y="199" on="0"/>
        <pt x="30" y="271" on="0"/>
        <pt x="55" y="344" on="0"/>
        <pt x="94" y="412" on="0"/>
        <pt x="145" y="466" on="0"/>
        <pt x="207" y="498" on="0"/>
        <pt x="244" y="498" on="1"/>
        <pt x="274" y="498" on="0"/>
        <pt x="327" y="470" on="0"/>
        <pt x="349" y="448" on="1"/>
        <pt x="363" y="462" on="0"/>
        <pt x="414" y="483" on="0"/>
        <pt x="476" y="499" on="0"/>
        <pt x="544" y="511" on="0"/>
        <pt x="606" y="518" on="0"/>
        <pt x="657" y="522" on="0"/>
        <pt x="671" y="522" on="1"/>
        <pt x="694" y="522" on="1"/>
        <pt x="703" y="521" on="0"/>
        <pt x="733" y="519" on="0"/>
        <pt x="760" y="516" on="0"/>
        <pt x="770" y="514" on="1"/>
        <pt x="781" y="514" on="1"/>
        <pt x="790" y="505" on="1"/>
        <pt x="781" y="496" on="1"/>
        <pt x="737" y="495" on="0"/>
        <pt x="655" y="489" on="0"/>
        <pt x="573" y="479" on="0"/>
        <pt x="492" y="464" on="0"/>
        <pt x="449" y="453" on="1"/>
        <pt x="448" y="451" on="0"/>
        <pt x="446" y="439" on="0"/>
        <pt x="443" y="424" on="0"/>
        <pt x="441" y="412" on="0"/>
        <pt x="441" y="409" on="1"/>
        <pt x="441" y="403" on="1"/>
        <pt x="441" y="399" on="0"/>
        <pt x="442" y="388" on="0"/>
        <pt x="442" y="380" on="0"/>
        <pt x="442" y="378" on="1"/>
        <pt x="524" y="378" on="0"/>
        <pt x="685" y="392" on="0"/>
        <pt x="766" y="392" on="1"/>
        <pt x="778" y="392" on="1"/>
        <pt x="784" y="392" on="0"/>
        <pt x="793" y="389" on="0"/>
        <pt x="799" y="382" on="0"/>
        <pt x="799" y="373" on="1"/>
        <pt x="799" y="368" on="0"/>
        <pt x="750" y="350" on="0"/>
        <pt x="676" y="326" on="0"/>
        <pt x="589" y="298" on="0"/>
        <pt x="516" y="268" on="0"/>
        <pt x="466" y="237" on="0"/>
        <pt x="466" y="221" on="1"/>
        <pt x="466" y="219" on="1"/>
        <pt x="466" y="218" on="0"/>
        <pt x="467" y="217" on="1"/>
        <pt x="471" y="213" on="1"/>
        <pt x="475" y="210" on="0"/>
        <pt x="475" y="208" on="1"/>
        <pt x="475" y="207" on="0"/>
        <pt x="476" y="206" on="1"/>
        <pt x="476" y="205" on="1"/>
        <pt x="477" y="204" on="1"/>
        <pt x="476" y="202" on="1"/>
        <pt x="475" y="201" on="0"/>
        <pt x="475" y="199" on="1"/>
        <pt x="467" y="191" on="1"/>
        <pt x="466" y="188" on="0"/>
        <pt x="458" y="175" on="0"/>
        <pt x="458" y="173" on="1"/>
        <pt x="458" y="141" on="0"/>
        <pt x="481" y="94" on="0"/>
        <pt x="520" y="65" on="0"/>
        <pt x="570" y="51" on="0"/>
        <pt x="598" y="51" on="1"/>
        <pt x="637" y="51" on="0"/>
        <pt x="701" y="73" on="0"/>
        <pt x="757" y="112" on="0"/>
        <pt x="808" y="163" on="0"/>
        <pt x="833" y="191" on="1"/>
        <pt x="834" y="192" on="0"/>
        <pt x="840" y="202" on="0"/>
        <pt x="845" y="213" on="0"/>
        <pt x="850" y="223" on="0"/>
        <pt x="851" y="226" on="1"/>
        <pt x="851" y="226" on="0"/>
        <pt x="852" y="233" on="0"/>
        <pt x="852" y="235" on="1"/>
        <pt x="852" y="247" on="0"/>
        <pt x="828" y="253" on="0"/>
        <pt x="818" y="253" on="1"/>
        <pt x="818" y="268" on="0"/>
        <pt x="843" y="278" on="0"/>
        <pt x="856" y="278" on="1"/>
        <pt x="871" y="278" on="0"/>
        <pt x="886" y="258" on="0"/>
        <pt x="886" y="244" on="1"/>
        <pt x="886" y="215" on="0"/>
        <pt x="857" y="158" on="0"/>
        <pt x="808" y="105" on="0"/>
        <pt x="746" y="60" on="0"/>
        <pt x="680" y="26" on="0"/>
        <pt x="615" y="7" on="0"/>
        <pt x="589" y="7" on="1"/>
        <pt x="553" y="7" on="0"/>
        <pt x="501" y="27" on="0"/>
        <pt x="463" y="61" on="0"/>
        <pt x="438" y="109" on="0"/>
        <pt x="429" y="137" on="1"/>
        <pt x="412" y="103" on="0"/>
        <pt x="355" y="51" on="0"/>
        <pt x="283" y="16" on="0"/>
        <pt x="205" y="-1" on="0"/>
        <pt x="167" y="-1" on="1"/>
        <pt x="124" y="-1" on="0"/>
        <pt x="67" y="23" on="0"/>
        <pt x="32" y="68" on="0"/>
        <pt x="17" y="131" on="0"/>
      </contour>
      <contour>
        <pt x="52" y="148" on="1"/>
        <pt x="52" y="120" on="0"/>
        <pt x="70" y="79" on="0"/>
        <pt x="102" y="54" on="0"/>
        <pt x="146" y="43" on="0"/>
        <pt x="173" y="43" on="1"/>
        <pt x="212" y="43" on="0"/>
        <pt x="292" y="59" on="0"/>
        <pt x="358" y="96" on="0"/>
        <pt x="404" y="153" on="0"/>
        <pt x="410" y="193" on="1"/>
        <pt x="399" y="200" on="0"/>
        <pt x="388" y="214" on="0"/>
        <pt x="388" y="226" on="1"/>
        <pt x="388" y="232" on="0"/>
        <pt x="393" y="242" on="0"/>
        <pt x="400" y="251" on="0"/>
        <pt x="406" y="261" on="0"/>
        <pt x="406" y="267" on="1"/>
        <pt x="400" y="299" on="0"/>
        <pt x="373" y="368" on="0"/>
        <pt x="332" y="425" on="0"/>
        <pt x="280" y="463" on="0"/>
        <pt x="249" y="463" on="1"/>
        <pt x="232" y="463" on="0"/>
        <pt x="209" y="460" on="0"/>
        <pt x="192" y="454" on="1"/>
        <pt x="192" y="445" on="1"/>
        <pt x="192" y="444" on="0"/>
        <pt x="195" y="436" on="0"/>
        <pt x="199" y="427" on="0"/>
        <pt x="201" y="419" on="0"/>
        <pt x="201" y="418" on="1"/>
        <pt x="201" y="409" on="0"/>
        <pt x="191" y="400" on="0"/>
        <pt x="178" y="396" on="0"/>
        <pt x="163" y="394" on="0"/>
        <pt x="157" y="392" on="1"/>
        <pt x="124" y="378" on="0"/>
        <pt x="83" y="322" on="0"/>
        <pt x="60" y="253" on="0"/>
        <pt x="52" y="179" on="0"/>
      </contour>
      <contour>
        <pt x="439" y="359" on="1"/>
        <pt x="439" y="339" on="0"/>
        <pt x="441" y="323" on="1"/>
        <pt x="442" y="310" on="0"/>
        <pt x="445" y="287" on="0"/>
        <pt x="449" y="287" on="1"/>
        <pt x="458" y="287" on="1"/>
        <pt x="459" y="287" on="0"/>
        <pt x="483" y="297" on="0"/>
        <pt x="517" y="310" on="0"/>
        <pt x="552" y="325" on="0"/>
        <pt x="563" y="330" on="1"/>
        <pt x="598" y="348" on="1"/>
        <pt x="580" y="352" on="0"/>
        <pt x="538" y="358" on="0"/>
        <pt x="494" y="359" on="0"/>
        <pt x="474" y="359" on="1"/>
      </contour>
      <contour>
        <pt x="365" y="431" on="1"/>
        <pt x="380" y="414" on="0"/>
        <pt x="391" y="394" on="1"/>
        <pt x="396" y="398" on="0"/>
        <pt x="397" y="400" on="1"/>
        <pt x="397" y="402" on="1"/>
        <pt x="397" y="403" on="0"/>
        <pt x="397" y="404" on="0"/>
        <pt x="397" y="405" on="1"/>
        <pt x="397" y="421" on="0"/>
        <pt x="377" y="429" on="0"/>
      </contour>
    </TTGlyph>
    <TTGlyph name="Oacute" xMin="17" yMin="-1" xMax="446" yMax="673">
      <component glyphName="O" x="0" y="0" flags="0x1204"/>
      <component glyphName="acute" x="145" y="20" flags="0x1004"/>
    </TTGlyph>
    <TTGlyph name="Obreve" xMin="17" yMin="-1" xMax="446" yMax="794">
      <component glyphName="O" x="0" y="0" flags="0x1204"/>
      <component glyphName="breve" x="142" y="154" flags="0x1004"/>
    </TTGlyph>
    <TTGlyph name="Ocircumflex" xMin="17" yMin="-1" xMax="446" yMax="728">
      <component glyphName="O" x="0" y="0" flags="0x1204"/>
      <component glyphName="circumflex" x="29" y="25" flags="0x1004"/>
    </TTGlyph>
    <TTGlyph name="Odieresis" xMin="17" yMin="-1" xMax="446" yMax="585">
      <component glyphName="O" x="0" y="0" flags="0x1204"/>
      <component glyphName="dieresis" x="53" y="9" flags="0x1004"/>
    </TTGlyph>
    <TTGlyph name="Ograve" xMin="17" yMin="-1" xMax="446" yMax="676">
      <component glyphName="O" x="0" y="0" flags="0x1204"/>
      <component glyphName="grave" x="192" y="12" flags="0x1004"/>
    </TTGlyph>
    <TTGlyph name="Ohungarumlaut" xMin="17" yMin="-1" xMax="446" yMax="796">
      <component glyphName="O" x="0" y="0" flags="0x1204"/>
      <component glyphName="hungarumlaut" x="108" y="154" flags="0x1004"/>
    </TTGlyph>
    <TTGlyph name="Omacron" xMin="17" yMin="-1" xMax="446" yMax="723">
      <component glyphName="O" x="0" y="0" flags="0x1204"/>
      <component glyphName="macron" x="52" y="154" flags="0x1004"/>
    </TTGlyph>
    <TTGlyph name="Oslash" xMin="17" yMin="-77" xMax="446" yMax="542">
      <contour>
        <pt x="73" y="-57" on="1"/>
        <pt x="82" y="-21" on="0"/>
        <pt x="91" y="13" on="1"/>
        <pt x="66" y="25" on="0"/>
        <pt x="49" y="46" on="1"/>
        <pt x="32" y="68" on="0"/>
        <pt x="17" y="131" on="0"/>
        <pt x="17" y="170" on="1"/>
        <pt x="17" y="199" on="0"/>
        <pt x="30" y="271" on="0"/>
        <pt x="55" y="344" on="0"/>
        <pt x="94" y="412" on="0"/>
        <pt x="145" y="466" on="0"/>
        <pt x="207" y="498" on="0"/>
        <pt x="244" y="498" on="1"/>
        <pt x="276" y="498" on="0"/>
        <pt x="303" y="484" on="1"/>
        <pt x="306" y="482" on="1"/>
        <pt x="313" y="496" on="1"/>
        <pt x="364" y="542" on="1"/>
        <pt x="380" y="542" on="1"/>
        <pt x="380" y="529" on="0"/>
        <pt x="368" y="499" on="0"/>
        <pt x="358" y="481" on="1"/>
        <pt x="352" y="469" on="0"/>
        <pt x="343" y="455" on="1"/>
        <pt x="352" y="446" on="1"/>
        <pt x="375" y="424" on="0"/>
        <pt x="409" y="364" on="0"/>
        <pt x="433" y="301" on="0"/>
        <pt x="446" y="240" on="0"/>
        <pt x="446" y="215" on="1"/>
        <pt x="446" y="180" on="0"/>
        <pt x="422" y="120" on="0"/>
        <pt x="381" y="72" on="0"/>
        <pt x="326" y="36" on="0"/>
        <pt x="264" y="11" on="0"/>
        <pt x="199" y="-1" on="0"/>
        <pt x="167" y="-1" on="1"/>
        <pt x="139" y="-1" on="0"/>
        <pt x="116" y="4" on="1"/>
        <pt x="102" y="-30" on="1"/>
        <pt x="102" y="-38" on="1"/>
        <pt x="102" y="-45" on="0"/>
        <pt x="100" y="-60" on="0"/>
        <pt x="94" y="-74" on="0"/>
        <pt x="88" y="-77" on="1"/>
        <pt x="87" y="-77" on="1"/>
        <pt x="82" y="-77" on="1"/>
        <pt x="82" y="-77" on="0"/>
        <pt x="81" y="-77" on="1"/>
        <pt x="80" y="-75" on="0"/>
        <pt x="75" y="-66" on="0"/>
        <pt x="73" y="-63" on="1"/>
      </contour>
      <contour>
        <pt x="173" y="43" on="1"/>
        <pt x="215" y="43" on="0"/>
        <pt x="301" y="62" on="0"/>
        <pt x="369" y="105" on="0"/>
        <pt x="412" y="172" on="0"/>
        <pt x="412" y="220" on="1"/>
        <pt x="412" y="250" on="0"/>
        <pt x="389" y="334" on="0"/>
        <pt x="368" y="372" on="1"/>
        <pt x="350" y="404" on="0"/>
        <pt x="325" y="428" on="1"/>
        <pt x="319" y="419" on="0"/>
        <pt x="313" y="411" on="1"/>
        <pt x="302" y="394" on="0"/>
        <pt x="282" y="363" on="0"/>
        <pt x="277" y="352" on="1"/>
        <pt x="229" y="257" on="0"/>
        <pt x="185" y="162" on="1"/>
        <pt x="159" y="104" on="0"/>
        <pt x="133" y="46" on="1"/>
        <pt x="152" y="43" on="0"/>
      </contour>
      <contour>
        <pt x="52" y="148" on="1"/>
        <pt x="52" y="120" on="0"/>
        <pt x="70" y="79" on="0"/>
        <pt x="85" y="67" on="1"/>
        <pt x="94" y="60" on="0"/>
        <pt x="104" y="55" on="1"/>
        <pt x="113" y="78" on="0"/>
        <pt x="124" y="101" on="1"/>
        <pt x="292" y="453" on="1"/>
        <pt x="271" y="463" on="0"/>
        <pt x="249" y="463" on="1"/>
        <pt x="232" y="463" on="0"/>
        <pt x="209" y="460" on="0"/>
        <pt x="192" y="454" on="1"/>
        <pt x="192" y="445" on="1"/>
        <pt x="192" y="444" on="0"/>
        <pt x="195" y="436" on="0"/>
        <pt x="199" y="427" on="0"/>
        <pt x="201" y="419" on="0"/>
        <pt x="201" y="418" on="1"/>
        <pt x="201" y="409" on="0"/>
        <pt x="191" y="400" on="0"/>
        <pt x="178" y="396" on="0"/>
        <pt x="163" y="394" on="0"/>
        <pt x="157" y="392" on="1"/>
        <pt x="124" y="378" on="0"/>
        <pt x="83" y="322" on="0"/>
        <pt x="60" y="253" on="0"/>
        <pt x="52" y="179" on="0"/>
      </contour>
    </TTGlyph>
    <TTGlyph name="Oslashacute" xMin="17" yMin="-120" xMax="446" yMax="759">
      <contour>
        <pt x="64" y="-98" on="1"/>
        <pt x="74" y="-55" on="0"/>
        <pt x="88" y="-13" on="1"/>
        <pt x="91" y="-1" on="0"/>
        <pt x="96" y="11" on="1"/>
        <pt x="67" y="23" on="0"/>
        <pt x="32" y="68" on="0"/>
        <pt x="17" y="131" on="0"/>
        <pt x="17" y="170" on="1"/>
        <pt x="17" y="199" on="0"/>
        <pt x="30" y="271" on="0"/>
        <pt x="55" y="344" on="0"/>
        <pt x="94" y="412" on="0"/>
        <pt x="145" y="466" on="0"/>
        <pt x="207" y="498" on="0"/>
        <pt x="244" y="498" on="1"/>
        <pt x="276" y="498" on="0"/>
        <pt x="303" y="484" on="1"/>
        <pt x="316" y="476" on="0"/>
        <pt x="328" y="467" on="1"/>
        <pt x="341" y="492" on="1"/>
        <pt x="400" y="541" on="1"/>
        <pt x="420" y="541" on="1"/>
        <pt x="420" y="527" on="0"/>
        <pt x="406" y="494" on="0"/>
        <pt x="383" y="457" on="0"/>
        <pt x="370" y="438" on="1"/>
        <pt x="365" y="432" on="1"/>
        <pt x="380" y="415" on="0"/>
        <pt x="392" y="394" on="1"/>
        <pt x="409" y="364" on="0"/>
        <pt x="433" y="301" on="0"/>
        <pt x="446" y="240" on="0"/>
        <pt x="446" y="215" on="1"/>
        <pt x="446" y="180" on="0"/>
        <pt x="422" y="120" on="0"/>
        <pt x="381" y="72" on="0"/>
        <pt x="326" y="36" on="0"/>
        <pt x="264" y="11" on="0"/>
        <pt x="199" y="-1" on="0"/>
        <pt x="167" y="-1" on="1"/>
        <pt x="146" y="-1" on="0"/>
        <pt x="129" y="1" on="1"/>
        <pt x="112" y="-34" on="0"/>
        <pt x="97" y="-70" on="1"/>
        <pt x="97" y="-79" on="1"/>
        <pt x="97" y="-86" on="0"/>
        <pt x="94" y="-102" on="0"/>
        <pt x="87" y="-117" on="0"/>
        <pt x="81" y="-119" on="1"/>
        <pt x="79" y="-120" on="0"/>
        <pt x="79" y="-120" on="1"/>
        <pt x="73" y="-120" on="1"/>
        <pt x="73" y="-120" on="0"/>
        <pt x="72" y="-119" on="1"/>
        <pt x="71" y="-118" on="0"/>
        <pt x="65" y="-108" on="0"/>
        <pt x="64" y="-105" on="1"/>
      </contour>
      <contour>
        <pt x="52" y="148" on="1"/>
        <pt x="52" y="120" on="0"/>
        <pt x="70" y="79" on="0"/>
        <pt x="85" y="67" on="1"/>
        <pt x="98" y="57" on="0"/>
        <pt x="113" y="52" on="1"/>
        <pt x="118" y="61" on="0"/>
        <pt x="123" y="70" on="1"/>
        <pt x="313" y="439" on="1"/>
        <pt x="284" y="463" on="0"/>
        <pt x="249" y="463" on="1"/>
        <pt x="232" y="463" on="0"/>
        <pt x="209" y="460" on="0"/>
        <pt x="192" y="454" on="1"/>
        <pt x="192" y="445" on="1"/>
        <pt x="192" y="444" on="0"/>
        <pt x="195" y="436" on="0"/>
        <pt x="199" y="427" on="0"/>
        <pt x="201" y="419" on="0"/>
        <pt x="201" y="418" on="1"/>
        <pt x="201" y="409" on="0"/>
        <pt x="191" y="400" on="0"/>
        <pt x="178" y="396" on="0"/>
        <pt x="163" y="394" on="0"/>
        <pt x="157" y="392" on="1"/>
        <pt x="124" y="378" on="0"/>
        <pt x="83" y="322" on="0"/>
        <pt x="60" y="253" on="0"/>
        <pt x="52" y="179" on="0"/>
      </contour>
      <contour>
        <pt x="173" y="43" on="1"/>
        <pt x="215" y="43" on="0"/>
        <pt x="301" y="62" on="0"/>
        <pt x="369" y="105" on="0"/>
        <pt x="412" y="172" on="0"/>
        <pt x="412" y="220" on="1"/>
        <pt x="412" y="250" on="0"/>
        <pt x="389" y="334" on="0"/>
        <pt x="368" y="372" on="1"/>
        <pt x="358" y="390" on="0"/>
        <pt x="346" y="406" on="1"/>
        <pt x="344" y="403" on="0"/>
        <pt x="343" y="400" on="1"/>
        <pt x="329" y="382" on="0"/>
        <pt x="305" y="349" on="0"/>
        <pt x="299" y="337" on="1"/>
        <pt x="244" y="237" on="0"/>
        <pt x="193" y="135" on="1"/>
        <pt x="170" y="89" on="0"/>
        <pt x="148" y="43" on="1"/>
        <pt x="160" y="43" on="0"/>
      </contour>
      <contour>
        <pt x="220" y="673" on="1"/>
        <pt x="215" y="667" on="0"/>
        <pt x="202" y="649" on="0"/>
        <pt x="187" y="636" on="0"/>
        <pt x="172" y="633" on="0"/>
        <pt x="164" y="643" on="1"/>
        <pt x="200" y="705" on="1"/>
        <pt x="205" y="720" on="0"/>
        <pt x="228" y="749" on="0"/>
        <pt x="238" y="759" on="1"/>
        <pt x="247" y="772" on="0"/>
        <pt x="259" y="758" on="1"/>
        <pt x="267" y="749" on="0"/>
        <pt x="261" y="725" on="0"/>
        <pt x="245" y="700" on="0"/>
        <pt x="226" y="679" on="0"/>
      </contour>
    </TTGlyph>
    <TTGlyph name="Otilde" xMin="17" yMin="-1" xMax="446" yMax="666">
      <component glyphName="O" x="0" y="0" flags="0x1204"/>
      <component glyphName="tilde" x="100" y="1" flags="0x1004"/>
    </TTGlyph>
    <TTGlyph name="P" xMin="15" yMin="-1" xMax="402" yMax="700">
      <contour>
        <pt x="79" y="226" on="1"/>
        <pt x="72" y="229" on="0"/>
        <pt x="50" y="240" on="0"/>
        <pt x="30" y="254" on="0"/>
        <pt x="15" y="271" on="0"/>
        <pt x="15" y="281" on="1"/>
        <pt x="30" y="281" on="0"/>
        <pt x="55" y="271" on="0"/>
        <pt x="68" y="271" on="1"/>
        <pt x="68" y="343" on="0"/>
        <pt x="61" y="485" on="0"/>
        <pt x="61" y="558" on="1"/>
        <pt x="61" y="562" on="0"/>
        <pt x="61" y="582" on="0"/>
        <pt x="61" y="604" on="0"/>
        <pt x="61" y="625" on="0"/>
        <pt x="61" y="628" on="1"/>
        <pt x="67" y="664" on="0"/>
        <pt x="114" y="700" on="0"/>
        <pt x="150" y="700" on="1"/>
        <pt x="173" y="700" on="0"/>
        <pt x="228" y="676" on="0"/>
        <pt x="284" y="638" on="0"/>
        <pt x="337" y="587" on="0"/>
        <pt x="377" y="532" on="0"/>
        <pt x="402" y="478" on="0"/>
        <pt x="402" y="454" on="1"/>
        <pt x="402" y="387" on="0"/>
        <pt x="364" y="299" on="0"/>
        <pt x="294" y="245" on="0"/>
        <pt x="197" y="217" on="0"/>
        <pt x="139" y="210" on="1"/>
        <pt x="142" y="187" on="0"/>
        <pt x="146" y="148" on="0"/>
        <pt x="148" y="111" on="0"/>
        <pt x="150" y="74" on="0"/>
        <pt x="150" y="54" on="1"/>
        <pt x="150" y="49" on="0"/>
        <pt x="149" y="31" on="0"/>
        <pt x="145" y="13" on="0"/>
        <pt x="136" y="-1" on="0"/>
        <pt x="127" y="-1" on="1"/>
        <pt x="123" y="-1" on="0"/>
        <pt x="115" y="5" on="0"/>
        <pt x="109" y="14" on="0"/>
        <pt x="105" y="23" on="0"/>
        <pt x="105" y="26" on="1"/>
      </contour>
      <contour>
        <pt x="121" y="379" on="1"/>
        <pt x="121" y="363" on="0"/>
        <pt x="117" y="319" on="0"/>
        <pt x="121" y="280" on="0"/>
        <pt x="141" y="252" on="0"/>
        <pt x="165" y="252" on="1"/>
        <pt x="205" y="252" on="0"/>
        <pt x="275" y="281" on="0"/>
        <pt x="328" y="332" on="0"/>
        <pt x="358" y="402" on="0"/>
        <pt x="358" y="442" on="1"/>
        <pt x="358" y="464" on="0"/>
        <pt x="339" y="514" on="0"/>
        <pt x="307" y="564" on="0"/>
        <pt x="264" y="609" on="0"/>
        <pt x="217" y="644" on="0"/>
        <pt x="169" y="664" on="0"/>
        <pt x="148" y="664" on="1"/>
        <pt x="130" y="664" on="0"/>
        <pt x="106" y="642" on="0"/>
        <pt x="92" y="609" on="0"/>
        <pt x="87" y="571" on="0"/>
        <pt x="87" y="557" on="1"/>
        <pt x="87" y="535" on="0"/>
        <pt x="101" y="517" on="0"/>
        <pt x="118" y="508" on="0"/>
        <pt x="132" y="500" on="0"/>
        <pt x="132" y="489" on="1"/>
        <pt x="132" y="478" on="0"/>
        <pt x="127" y="464" on="0"/>
        <pt x="122" y="454" on="1"/>
        <pt x="122" y="449" on="0"/>
        <pt x="122" y="428" on="0"/>
        <pt x="121" y="405" on="0"/>
        <pt x="121" y="384" on="0"/>
      </contour>
    </TTGlyph>
    <TTGlyph name="Q" xMin="18" yMin="0" xMax="603" yMax="725">
      <contour>
        <pt x="433" y="192" on="1"/>
        <pt x="424" y="192" on="0"/>
        <pt x="401" y="181" on="0"/>
        <pt x="379" y="166" on="0"/>
        <pt x="358" y="152" on="0"/>
        <pt x="349" y="148" on="1"/>
        <pt x="331" y="140" on="0"/>
        <pt x="299" y="130" on="0"/>
        <pt x="268" y="124" on="0"/>
        <pt x="235" y="121" on="0"/>
        <pt x="214" y="121" on="1"/>
        <pt x="174" y="121" on="0"/>
        <pt x="116" y="135" on="0"/>
        <pt x="79" y="167" on="0"/>
        <pt x="61" y="223" on="0"/>
        <pt x="61" y="265" on="1"/>
        <pt x="61" y="296" on="0"/>
        <pt x="70" y="352" on="0"/>
        <pt x="70" y="382" on="1"/>
        <pt x="70" y="396" on="0"/>
        <pt x="54" y="424" on="0"/>
        <pt x="34" y="451" on="0"/>
        <pt x="18" y="481" on="0"/>
        <pt x="18" y="498" on="1"/>
        <pt x="18" y="538" on="0"/>
        <pt x="46" y="603" on="0"/>
        <pt x="94" y="653" on="0"/>
        <pt x="158" y="690" on="0"/>
        <pt x="229" y="714" on="0"/>
        <pt x="301" y="725" on="0"/>
        <pt x="335" y="725" on="1"/>
        <pt x="393" y="725" on="0"/>
        <pt x="478" y="679" on="0"/>
        <pt x="534" y="604" on="0"/>
        <pt x="561" y="506" on="0"/>
        <pt x="561" y="454" on="1"/>
        <pt x="561" y="418" on="0"/>
        <pt x="541" y="358" on="0"/>
        <pt x="517" y="299" on="0"/>
        <pt x="497" y="240" on="0"/>
        <pt x="497" y="206" on="1"/>
        <pt x="497" y="175" on="0"/>
        <pt x="503" y="114" on="0"/>
        <pt x="523" y="88" on="1"/>
        <pt x="528" y="82" on="0"/>
        <pt x="551" y="64" on="0"/>
        <pt x="577" y="44" on="0"/>
        <pt x="598" y="25" on="0"/>
        <pt x="602" y="18" on="1"/>
        <pt x="602" y="16" on="1"/>
        <pt x="602" y="13" on="1"/>
        <pt x="602" y="13" on="0"/>
        <pt x="603" y="13" on="1"/>
        <pt x="603" y="12" on="0"/>
        <pt x="602" y="11" on="0"/>
        <pt x="602" y="10" on="1"/>
        <pt x="602" y="8" on="1"/>
        <pt x="601" y="7" on="0"/>
        <pt x="595" y="1" on="0"/>
        <pt x="594" y="0" on="1"/>
        <pt x="589" y="0" on="1"/>
        <pt x="564" y="0" on="0"/>
        <pt x="523" y="28" on="0"/>
        <pt x="492" y="71" on="0"/>
        <pt x="468" y="121" on="0"/>
        <pt x="450" y="163" on="0"/>
        <pt x="437" y="192" on="0"/>
      </contour>
      <contour>
        <pt x="87" y="267" on="1"/>
        <pt x="87" y="237" on="0"/>
        <pt x="108" y="195" on="0"/>
        <pt x="144" y="168" on="0"/>
        <pt x="191" y="156" on="0"/>
        <pt x="218" y="156" on="1"/>
        <pt x="241" y="156" on="0"/>
        <pt x="312" y="172" on="0"/>
        <pt x="379" y="202" on="0"/>
        <pt x="428" y="244" on="0"/>
        <pt x="428" y="270" on="1"/>
        <pt x="428" y="294" on="0"/>
        <pt x="425" y="333" on="0"/>
        <pt x="419" y="358" on="1"/>
        <pt x="416" y="358" on="0"/>
        <pt x="400" y="358" on="0"/>
        <pt x="397" y="358" on="1"/>
        <pt x="360" y="358" on="0"/>
        <pt x="287" y="348" on="0"/>
        <pt x="249" y="348" on="1"/>
        <pt x="229" y="348" on="0"/>
        <pt x="196" y="348" on="0"/>
        <pt x="164" y="351" on="0"/>
        <pt x="133" y="358" on="0"/>
        <pt x="114" y="366" on="1"/>
        <pt x="106" y="349" on="0"/>
        <pt x="96" y="325" on="0"/>
        <pt x="89" y="304" on="0"/>
        <pt x="87" y="281" on="0"/>
      </contour>
      <contour>
        <pt x="499" y="460" on="1"/>
        <pt x="499" y="442" on="0"/>
        <pt x="491" y="410" on="0"/>
        <pt x="481" y="379" on="0"/>
        <pt x="474" y="345" on="0"/>
        <pt x="474" y="322" on="1"/>
        <pt x="489" y="322" on="1"/>
        <pt x="496" y="322" on="0"/>
        <pt x="510" y="359" on="0"/>
        <pt x="519" y="406" on="0"/>
        <pt x="524" y="448" on="0"/>
        <pt x="524" y="454" on="1"/>
        <pt x="524" y="493" on="0"/>
        <pt x="508" y="576" on="0"/>
        <pt x="470" y="646" on="0"/>
        <pt x="408" y="691" on="0"/>
        <pt x="362" y="691" on="1"/>
        <pt x="352" y="691" on="0"/>
        <pt x="331" y="689" on="0"/>
        <pt x="323" y="680" on="1"/>
        <pt x="336" y="676" on="0"/>
        <pt x="361" y="661" on="0"/>
        <pt x="381" y="640" on="0"/>
        <pt x="393" y="613" on="0"/>
        <pt x="393" y="598" on="1"/>
        <pt x="393" y="594" on="1"/>
        <pt x="391" y="592" on="0"/>
        <pt x="385" y="585" on="0"/>
        <pt x="384" y="584" on="1"/>
        <pt x="331" y="637" on="1"/>
        <pt x="330" y="637" on="1"/>
        <pt x="329" y="637" on="0"/>
        <pt x="328" y="638" on="0"/>
        <pt x="327" y="638" on="1"/>
        <pt x="309" y="638" on="0"/>
        <pt x="269" y="613" on="0"/>
        <pt x="232" y="578" on="0"/>
        <pt x="202" y="538" on="0"/>
        <pt x="192" y="523" on="1"/>
        <pt x="188" y="517" on="0"/>
        <pt x="171" y="488" on="0"/>
        <pt x="151" y="454" on="0"/>
        <pt x="134" y="424" on="0"/>
        <pt x="131" y="418" on="1"/>
        <pt x="131" y="418" on="0"/>
        <pt x="130" y="415" on="0"/>
        <pt x="130" y="415" on="1"/>
        <pt x="130" y="401" on="0"/>
        <pt x="165" y="385" on="0"/>
        <pt x="209" y="378" on="0"/>
        <pt x="250" y="376" on="0"/>
        <pt x="256" y="376" on="1"/>
        <pt x="259" y="376" on="0"/>
        <pt x="285" y="378" on="0"/>
        <pt x="322" y="381" on="0"/>
        <pt x="364" y="386" on="0"/>
        <pt x="400" y="391" on="0"/>
        <pt x="423" y="398" on="0"/>
        <pt x="423" y="402" on="1"/>
        <pt x="423" y="514" on="1"/>
        <pt x="423" y="519" on="0"/>
        <pt x="433" y="523" on="0"/>
        <pt x="444" y="524" on="0"/>
        <pt x="454" y="524" on="0"/>
        <pt x="454" y="524" on="1"/>
        <pt x="468" y="524" on="0"/>
        <pt x="485" y="513" on="0"/>
        <pt x="495" y="494" on="0"/>
        <pt x="499" y="472" on="0"/>
      </contour>
      <contour>
        <pt x="52" y="498" on="1"/>
        <pt x="52" y="492" on="0"/>
        <pt x="59" y="471" on="0"/>
        <pt x="70" y="451" on="0"/>
        <pt x="85" y="436" on="0"/>
        <pt x="92" y="436" on="1"/>
        <pt x="94" y="436" on="1"/>
        <pt x="95" y="436" on="0"/>
        <pt x="96" y="436" on="1"/>
        <pt x="97" y="437" on="0"/>
        <pt x="103" y="444" on="0"/>
        <pt x="105" y="445" on="1"/>
        <pt x="125" y="477" on="0"/>
        <pt x="163" y="540" on="0"/>
        <pt x="204" y="600" on="0"/>
        <pt x="250" y="655" on="0"/>
        <pt x="280" y="680" on="1"/>
        <pt x="277" y="680" on="0"/>
        <pt x="264" y="681" on="0"/>
        <pt x="262" y="681" on="1"/>
        <pt x="226" y="681" on="0"/>
        <pt x="151" y="652" on="0"/>
        <pt x="91" y="603" on="0"/>
        <pt x="52" y="536" on="0"/>
      </contour>
    </TTGlyph>
    <TTGlyph name="R" xMin="26" yMin="-1" xMax="499" yMax="691">
      <contour>
        <pt x="114" y="184" on="1"/>
        <pt x="113" y="184" on="0"/>
        <pt x="111" y="172" on="0"/>
        <pt x="108" y="154" on="0"/>
        <pt x="105" y="136" on="0"/>
        <pt x="104" y="130" on="1"/>
        <pt x="103" y="126" on="0"/>
        <pt x="101" y="101" on="0"/>
        <pt x="98" y="73" on="0"/>
        <pt x="96" y="49" on="0"/>
        <pt x="96" y="43" on="1"/>
        <pt x="95" y="42" on="0"/>
        <pt x="89" y="36" on="0"/>
        <pt x="88" y="34" on="1"/>
        <pt x="86" y="34" on="0"/>
        <pt x="85" y="34" on="1"/>
        <pt x="83" y="34" on="1"/>
        <pt x="80" y="34" on="1"/>
        <pt x="79" y="34" on="0"/>
        <pt x="78" y="34" on="1"/>
        <pt x="76" y="36" on="0"/>
        <pt x="62" y="50" on="0"/>
        <pt x="61" y="52" on="1"/>
        <pt x="59" y="60" on="0"/>
        <pt x="52" y="100" on="0"/>
        <pt x="43" y="144" on="0"/>
        <pt x="36" y="184" on="0"/>
        <pt x="34" y="192" on="1"/>
        <pt x="34" y="200" on="1"/>
        <pt x="34" y="207" on="0"/>
        <pt x="33" y="247" on="0"/>
        <pt x="31" y="301" on="0"/>
        <pt x="29" y="361" on="0"/>
        <pt x="28" y="415" on="0"/>
        <pt x="26" y="455" on="0"/>
        <pt x="26" y="462" on="1"/>
        <pt x="26" y="468" on="1"/>
        <pt x="26" y="508" on="0"/>
        <pt x="55" y="587" on="0"/>
        <pt x="106" y="651" on="0"/>
        <pt x="177" y="691" on="0"/>
        <pt x="219" y="691" on="1"/>
        <pt x="242" y="691" on="0"/>
        <pt x="286" y="673" on="0"/>
        <pt x="320" y="643" on="0"/>
        <pt x="341" y="601" on="0"/>
        <pt x="341" y="577" on="1"/>
        <pt x="341" y="542" on="0"/>
        <pt x="307" y="478" on="0"/>
        <pt x="256" y="422" on="0"/>
        <pt x="197" y="372" on="0"/>
        <pt x="146" y="328" on="0"/>
        <pt x="112" y="288" on="0"/>
        <pt x="112" y="270" on="1"/>
        <pt x="112" y="256" on="0"/>
        <pt x="137" y="221" on="0"/>
        <pt x="176" y="184" on="0"/>
        <pt x="224" y="149" on="0"/>
        <pt x="271" y="118" on="0"/>
        <pt x="311" y="94" on="0"/>
        <pt x="322" y="88" on="1"/>
        <pt x="326" y="85" on="0"/>
        <pt x="350" y="73" on="0"/>
        <pt x="379" y="59" on="0"/>
        <pt x="404" y="46" on="0"/>
        <pt x="410" y="43" on="1"/>
        <pt x="419" y="40" on="0"/>
        <pt x="448" y="37" on="0"/>
        <pt x="478" y="33" on="0"/>
        <pt x="499" y="24" on="0"/>
        <pt x="499" y="13" on="1"/>
        <pt x="499" y="12" on="0"/>
        <pt x="498" y="11" on="0"/>
        <pt x="498" y="10" on="1"/>
        <pt x="498" y="8" on="1"/>
        <pt x="496" y="7" on="0"/>
        <pt x="490" y="1" on="0"/>
        <pt x="488" y="0" on="1"/>
        <pt x="487" y="0" on="0"/>
        <pt x="478" y="0" on="0"/>
        <pt x="468" y="-1" on="0"/>
        <pt x="459" y="-1" on="0"/>
        <pt x="457" y="-1" on="1"/>
        <pt x="411" y="-1" on="0"/>
        <pt x="319" y="36" on="0"/>
        <pt x="233" y="91" on="0"/>
        <pt x="155" y="155" on="0"/>
        <pt x="122" y="184" on="1"/>
      </contour>
      <contour>
        <pt x="95" y="526" on="1"/>
        <pt x="95" y="505" on="0"/>
        <pt x="93" y="458" on="0"/>
        <pt x="94" y="412" on="0"/>
        <pt x="103" y="368" on="0"/>
        <pt x="114" y="349" on="1"/>
        <pt x="123" y="355" on="0"/>
        <pt x="159" y="384" on="0"/>
        <pt x="202" y="423" on="0"/>
        <pt x="247" y="469" on="0"/>
        <pt x="283" y="514" on="0"/>
        <pt x="307" y="556" on="0"/>
        <pt x="307" y="571" on="1"/>
        <pt x="307" y="594" on="0"/>
        <pt x="289" y="623" on="0"/>
        <pt x="261" y="640" on="0"/>
        <pt x="225" y="646" on="0"/>
        <pt x="206" y="646" on="1"/>
        <pt x="149" y="646" on="0"/>
        <pt x="95" y="580" on="0"/>
      </contour>
    </TTGlyph>
    <TTGlyph name="Racute" xMin="26" yMin="-1" xMax="499" yMax="858">
      <component glyphName="R" x="0" y="0" flags="0x1204"/>
      <component glyphName="acute" x="137" y="205" flags="0x1004"/>
    </TTGlyph>
    <TTGlyph name="Rcaron" xMin="26" yMin="-1" xMax="499" yMax="879">
      <component glyphName="R" x="0" y="0" flags="0x1204"/>
      <component glyphName="caron" x="-10" y="232" flags="0x1004"/>
    </TTGlyph>
    <TTGlyph name="Rcommaaccent" xMin="26" yMin="-255" xMax="499" yMax="691">
      <component glyphName="R" x="0" y="0" flags="0x1204"/>
      <component glyphName="commaaccent" x="73" y="0" flags="0x1004"/>
    </TTGlyph>
    <TTGlyph name="S" xMin="18" yMin="0" xMax="499" yMax="664">
      <contour>
        <pt x="18" y="226" on="1"/>
        <pt x="18" y="249" on="0"/>
        <pt x="43" y="280" on="0"/>
        <pt x="79" y="298" on="0"/>
        <pt x="121" y="306" on="0"/>
        <pt x="139" y="306" on="1"/>
        <pt x="143" y="306" on="0"/>
        <pt x="163" y="298" on="0"/>
        <pt x="166" y="296" on="1"/>
        <pt x="166" y="295" on="1"/>
        <pt x="166" y="294" on="0"/>
        <pt x="166" y="293" on="1"/>
        <pt x="166" y="284" on="0"/>
        <pt x="151" y="276" on="0"/>
        <pt x="127" y="271" on="0"/>
        <pt x="100" y="267" on="0"/>
        <pt x="76" y="257" on="0"/>
        <pt x="61" y="239" on="0"/>
        <pt x="61" y="223" on="1"/>
        <pt x="61" y="201" on="0"/>
        <pt x="103" y="155" on="0"/>
        <pt x="168" y="115" on="0"/>
        <pt x="248" y="80" on="0"/>
        <pt x="324" y="55" on="0"/>
        <pt x="386" y="42" on="0"/>
        <pt x="402" y="43" on="1"/>
        <pt x="405" y="43" on="0"/>
        <pt x="420" y="48" on="0"/>
        <pt x="436" y="54" on="0"/>
        <pt x="451" y="60" on="0"/>
        <pt x="454" y="61" on="1"/>
        <pt x="454" y="63" on="0"/>
        <pt x="455" y="76" on="0"/>
        <pt x="455" y="78" on="1"/>
        <pt x="455" y="90" on="0"/>
        <pt x="449" y="107" on="0"/>
        <pt x="438" y="122" on="0"/>
        <pt x="421" y="137" on="0"/>
        <pt x="410" y="148" on="1"/>
        <pt x="401" y="157" on="0"/>
        <pt x="365" y="193" on="0"/>
        <pt x="319" y="238" on="0"/>
        <pt x="268" y="287" on="0"/>
        <pt x="220" y="332" on="0"/>
        <pt x="184" y="367" on="0"/>
        <pt x="175" y="376" on="1"/>
        <pt x="146" y="413" on="0"/>
        <pt x="113" y="485" on="0"/>
        <pt x="113" y="532" on="1"/>
        <pt x="113" y="574" on="0"/>
        <pt x="146" y="642" on="0"/>
        <pt x="184" y="664" on="1"/>
        <pt x="186" y="664" on="0"/>
        <pt x="198" y="664" on="0"/>
        <pt x="212" y="664" on="0"/>
        <pt x="225" y="664" on="0"/>
        <pt x="227" y="664" on="1"/>
        <pt x="255" y="664" on="0"/>
        <pt x="317" y="643" on="0"/>
        <pt x="369" y="605" on="0"/>
        <pt x="403" y="551" on="0"/>
        <pt x="403" y="519" on="1"/>
        <pt x="403" y="515" on="0"/>
        <pt x="401" y="498" on="0"/>
        <pt x="393" y="498" on="1"/>
        <pt x="378" y="498" on="0"/>
        <pt x="355" y="517" on="0"/>
        <pt x="334" y="547" on="0"/>
        <pt x="314" y="580" on="0"/>
        <pt x="289" y="610" on="0"/>
        <pt x="256" y="629" on="0"/>
        <pt x="235" y="629" on="1"/>
        <pt x="219" y="629" on="0"/>
        <pt x="187" y="610" on="0"/>
        <pt x="163" y="582" on="0"/>
        <pt x="148" y="548" on="0"/>
        <pt x="148" y="533" on="1"/>
        <pt x="148" y="511" on="0"/>
        <pt x="160" y="464" on="0"/>
        <pt x="182" y="421" on="0"/>
        <pt x="211" y="382" on="0"/>
        <pt x="227" y="366" on="1"/>
        <pt x="463" y="139" on="1"/>
        <pt x="478" y="126" on="0"/>
        <pt x="499" y="82" on="0"/>
        <pt x="499" y="62" on="1"/>
        <pt x="499" y="46" on="0"/>
        <pt x="485" y="22" on="0"/>
        <pt x="463" y="7" on="0"/>
        <pt x="434" y="0" on="0"/>
        <pt x="419" y="0" on="1"/>
        <pt x="410" y="0" on="1"/>
        <pt x="402" y="1" on="0"/>
        <pt x="368" y="10" on="0"/>
        <pt x="332" y="18" on="0"/>
        <pt x="301" y="25" on="0"/>
        <pt x="297" y="26" on="1"/>
        <pt x="281" y="31" on="0"/>
        <pt x="228" y="52" on="0"/>
        <pt x="166" y="81" on="0"/>
        <pt x="102" y="118" on="0"/>
        <pt x="51" y="160" on="0"/>
        <pt x="18" y="205" on="0"/>
      </contour>
    </TTGlyph>
    <TTGlyph name="Sacute" xMin="18" yMin="0" xMax="499" yMax="820">
      <component glyphName="S" x="0" y="0" flags="0x1204"/>
      <component glyphName="acute" x="182" y="167" flags="0x1004"/>
    </TTGlyph>
    <TTGlyph name="Scaron" xMin="18" yMin="0" xMax="499" yMax="801">
      <component glyphName="S" x="0" y="0" flags="0x1204"/>
      <component glyphName="caron" x="74" y="154" flags="0x1004"/>
    </TTGlyph>
    <TTGlyph name="Scedilla" xMin="18" yMin="-200" xMax="499" yMax="664">
      <contour>
        <pt x="206" y="-128" on="1"/>
        <pt x="206" y="-122" on="1"/>
        <pt x="206" y="-118" on="0"/>
        <pt x="207" y="-107" on="0"/>
        <pt x="207" y="-103" on="1"/>
        <pt x="207" y="-98" on="1"/>
        <pt x="208" y="-95" on="0"/>
        <pt x="222" y="-87" on="0"/>
        <pt x="225" y="-88" on="1"/>
        <pt x="235" y="-90" on="0"/>
        <pt x="244" y="-108" on="0"/>
        <pt x="260" y="-130" on="0"/>
        <pt x="294" y="-151" on="0"/>
        <pt x="328" y="-156" on="1"/>
        <pt x="342" y="-159" on="0"/>
        <pt x="346" y="-143" on="0"/>
        <pt x="346" y="-135" on="1"/>
        <pt x="345" y="-118" on="0"/>
        <pt x="317" y="-98" on="0"/>
        <pt x="280" y="-81" on="0"/>
        <pt x="240" y="-64" on="0"/>
        <pt x="214" y="-35" on="0"/>
        <pt x="207" y="10" on="0"/>
        <pt x="222" y="47" on="1"/>
        <pt x="222" y="54" on="1"/>
        <pt x="210" y="60" on="0"/>
        <pt x="196" y="66" on="1"/>
        <pt x="166" y="81" on="0"/>
        <pt x="102" y="118" on="0"/>
        <pt x="51" y="160" on="0"/>
        <pt x="18" y="205" on="0"/>
        <pt x="18" y="226" on="1"/>
        <pt x="18" y="249" on="0"/>
        <pt x="43" y="280" on="0"/>
        <pt x="79" y="298" on="0"/>
        <pt x="121" y="306" on="0"/>
        <pt x="139" y="306" on="1"/>
        <pt x="143" y="306" on="0"/>
        <pt x="163" y="298" on="0"/>
        <pt x="166" y="296" on="1"/>
        <pt x="166" y="295" on="1"/>
        <pt x="166" y="294" on="0"/>
        <pt x="166" y="293" on="1"/>
        <pt x="166" y="284" on="0"/>
        <pt x="151" y="276" on="0"/>
        <pt x="127" y="271" on="0"/>
        <pt x="100" y="267" on="0"/>
        <pt x="76" y="257" on="0"/>
        <pt x="61" y="239" on="0"/>
        <pt x="61" y="223" on="1"/>
        <pt x="61" y="201" on="0"/>
        <pt x="103" y="155" on="0"/>
        <pt x="168" y="115" on="0"/>
        <pt x="248" y="80" on="0"/>
        <pt x="324" y="55" on="0"/>
        <pt x="386" y="42" on="0"/>
        <pt x="402" y="43" on="1"/>
        <pt x="405" y="43" on="0"/>
        <pt x="420" y="48" on="0"/>
        <pt x="436" y="54" on="0"/>
        <pt x="451" y="60" on="0"/>
        <pt x="454" y="61" on="1"/>
        <pt x="454" y="63" on="0"/>
        <pt x="455" y="76" on="0"/>
        <pt x="455" y="78" on="1"/>
        <pt x="455" y="90" on="0"/>
        <pt x="449" y="107" on="0"/>
        <pt x="438" y="122" on="0"/>
        <pt x="421" y="137" on="0"/>
        <pt x="410" y="148" on="1"/>
        <pt x="383" y="175" on="1"/>
        <pt x="365" y="193" on="0"/>
        <pt x="319" y="238" on="0"/>
        <pt x="268" y="287" on="0"/>
        <pt x="220" y="332" on="0"/>
        <pt x="184" y="367" on="0"/>
        <pt x="175" y="376" on="1"/>
        <pt x="146" y="413" on="0"/>
        <pt x="113" y="485" on="0"/>
        <pt x="113" y="532" on="1"/>
        <pt x="113" y="574" on="0"/>
        <pt x="146" y="642" on="0"/>
        <pt x="184" y="664" on="1"/>
        <pt x="192" y="664" on="1"/>
        <pt x="198" y="664" on="0"/>
        <pt x="212" y="664" on="0"/>
        <pt x="218" y="664" on="1"/>
        <pt x="227" y="664" on="1"/>
        <pt x="255" y="664" on="0"/>
        <pt x="317" y="643" on="0"/>
        <pt x="369" y="605" on="0"/>
        <pt x="403" y="551" on="0"/>
        <pt x="403" y="519" on="1"/>
        <pt x="403" y="515" on="0"/>
        <pt x="401" y="498" on="0"/>
        <pt x="393" y="498" on="1"/>
        <pt x="378" y="498" on="0"/>
        <pt x="355" y="517" on="0"/>
        <pt x="334" y="547" on="0"/>
        <pt x="314" y="580" on="0"/>
        <pt x="289" y="610" on="0"/>
        <pt x="256" y="629" on="0"/>
        <pt x="235" y="629" on="1"/>
        <pt x="219" y="629" on="0"/>
        <pt x="187" y="610" on="0"/>
        <pt x="163" y="582" on="0"/>
        <pt x="148" y="548" on="0"/>
        <pt x="148" y="533" on="1"/>
        <pt x="148" y="511" on="0"/>
        <pt x="160" y="464" on="0"/>
        <pt x="182" y="421" on="0"/>
        <pt x="211" y="382" on="0"/>
        <pt x="227" y="366" on="1"/>
        <pt x="463" y="139" on="1"/>
        <pt x="478" y="126" on="0"/>
        <pt x="499" y="82" on="0"/>
        <pt x="499" y="62" on="1"/>
        <pt x="499" y="46" on="0"/>
        <pt x="485" y="22" on="0"/>
        <pt x="463" y="7" on="0"/>
        <pt x="434" y="0" on="0"/>
        <pt x="419" y="0" on="1"/>
        <pt x="410" y="0" on="1"/>
        <pt x="402" y="1" on="0"/>
        <pt x="368" y="10" on="0"/>
        <pt x="332" y="18" on="0"/>
        <pt x="301" y="25" on="0"/>
        <pt x="297" y="26" on="1"/>
        <pt x="286" y="29" on="0"/>
        <pt x="269" y="35" on="1"/>
        <pt x="270" y="29" on="0"/>
        <pt x="268" y="24" on="1"/>
        <pt x="264" y="14" on="0"/>
        <pt x="250" y="8" on="1"/>
        <pt x="250" y="-17" on="0"/>
        <pt x="271" y="-45" on="0"/>
        <pt x="302" y="-63" on="0"/>
        <pt x="338" y="-74" on="0"/>
        <pt x="369" y="-92" on="0"/>
        <pt x="390" y="-119" on="0"/>
        <pt x="390" y="-143" on="1"/>
        <pt x="390" y="-153" on="0"/>
        <pt x="381" y="-173" on="0"/>
        <pt x="366" y="-189" on="0"/>
        <pt x="347" y="-200" on="0"/>
        <pt x="337" y="-200" on="1"/>
        <pt x="309" y="-200" on="0"/>
        <pt x="261" y="-196" on="0"/>
        <pt x="226" y="-181" on="0"/>
        <pt x="206" y="-152" on="0"/>
      </contour>
    </TTGlyph>
    <TTGlyph name="Scircumflex" xMin="18" yMin="0" xMax="499" yMax="892">
      <component glyphName="S" x="0" y="0" flags="0x1204"/>
      <component glyphName="circumflex" x="60" y="189" flags="0x1004"/>
    </TTGlyph>
    <TTGlyph name="T" xMin="8" yMin="-1" xMax="579" yMax="499">
      <contour>
        <pt x="340" y="43" on="1"/>
        <pt x="340" y="55" on="0"/>
        <pt x="338" y="106" on="0"/>
        <pt x="337" y="169" on="0"/>
        <pt x="334" y="240" on="0"/>
        <pt x="333" y="304" on="0"/>
        <pt x="331" y="354" on="0"/>
        <pt x="331" y="366" on="1"/>
        <pt x="331" y="375" on="0"/>
        <pt x="332" y="403" on="0"/>
        <pt x="328" y="427" on="0"/>
        <pt x="316" y="445" on="0"/>
        <pt x="302" y="445" on="1"/>
        <pt x="265" y="445" on="0"/>
        <pt x="192" y="438" on="0"/>
        <pt x="121" y="420" on="0"/>
        <pt x="55" y="389" on="0"/>
        <pt x="26" y="366" on="1"/>
        <pt x="22" y="367" on="0"/>
        <pt x="9" y="380" on="0"/>
        <pt x="8" y="384" on="1"/>
        <pt x="4" y="400" on="0"/>
        <pt x="43" y="430" on="0"/>
        <pt x="110" y="456" on="0"/>
        <pt x="192" y="476" on="0"/>
        <pt x="268" y="491" on="0"/>
        <pt x="329" y="499" on="0"/>
        <pt x="340" y="499" on="1"/>
        <pt x="349" y="499" on="0"/>
        <pt x="358" y="495" on="0"/>
        <pt x="366" y="488" on="1"/>
        <pt x="579" y="488" on="1"/>
        <pt x="579" y="481" on="0"/>
        <pt x="564" y="472" on="0"/>
        <pt x="544" y="465" on="0"/>
        <pt x="526" y="462" on="0"/>
        <pt x="523" y="462" on="1"/>
        <pt x="516" y="461" on="0"/>
        <pt x="478" y="459" on="0"/>
        <pt x="437" y="456" on="0"/>
        <pt x="400" y="454" on="0"/>
        <pt x="392" y="454" on="1"/>
        <pt x="385" y="451" on="0"/>
        <pt x="371" y="443" on="0"/>
        <pt x="366" y="436" on="1"/>
        <pt x="367" y="431" on="0"/>
        <pt x="370" y="406" on="0"/>
        <pt x="373" y="379" on="0"/>
        <pt x="375" y="354" on="0"/>
        <pt x="375" y="349" on="1"/>
        <pt x="375" y="343" on="0"/>
        <pt x="375" y="301" on="0"/>
        <pt x="375" y="244" on="0"/>
        <pt x="375" y="182" on="0"/>
        <pt x="375" y="126" on="0"/>
        <pt x="375" y="85" on="0"/>
        <pt x="375" y="78" on="1"/>
        <pt x="375" y="76" on="0"/>
        <pt x="377" y="58" on="0"/>
        <pt x="380" y="37" on="0"/>
        <pt x="383" y="20" on="0"/>
        <pt x="384" y="18" on="1"/>
        <pt x="384" y="12" on="1"/>
        <pt x="384" y="4" on="0"/>
        <pt x="373" y="-1" on="0"/>
        <pt x="366" y="-1" on="1"/>
        <pt x="358" y="-1" on="0"/>
        <pt x="348" y="8" on="0"/>
        <pt x="343" y="22" on="0"/>
        <pt x="341" y="37" on="0"/>
      </contour>
    </TTGlyph>
    <TTGlyph name="Tcaron" xMin="8" yMin="-1" xMax="579" yMax="717">
      <component glyphName="T" x="0" y="0" flags="0x1204"/>
      <component glyphName="caron" x="109" y="70" flags="0x1004"/>
    </TTGlyph>
    <TTGlyph name="Tcommaaccent" xMin="8" yMin="-256" xMax="579" yMax="499">
      <component glyphName="T" x="0" y="0" flags="0x1204"/>
      <component glyphName="commaaccent" x="193" y="-1" flags="0x1004"/>
    </TTGlyph>
    <TTGlyph name="Thorn" xMin="16" yMin="-18" xMax="312" yMax="653">
      <contour>
        <pt x="77" y="100" on="1"/>
        <pt x="64" y="31" on="0"/>
        <pt x="37" y="-26" on="0"/>
        <pt x="19" y="-9" on="0"/>
        <pt x="14" y="77" on="0"/>
        <pt x="22" y="152" on="1"/>
        <pt x="32" y="201" on="0"/>
        <pt x="44" y="290" on="0"/>
        <pt x="50" y="378" on="0"/>
        <pt x="52" y="468" on="0"/>
        <pt x="52" y="517" on="1"/>
        <pt x="49" y="572" on="0"/>
        <pt x="72" y="641" on="0"/>
        <pt x="98" y="664" on="0"/>
        <pt x="116" y="637" on="0"/>
        <pt x="109" y="598" on="1"/>
        <pt x="109" y="576" on="1"/>
        <pt x="109" y="562" on="0"/>
        <pt x="109" y="526" on="0"/>
        <pt x="108" y="486" on="0"/>
        <pt x="107" y="450" on="0"/>
        <pt x="106" y="421" on="0"/>
        <pt x="106" y="414" on="1"/>
        <pt x="118" y="414" on="1"/>
        <pt x="122" y="418" on="0"/>
        <pt x="142" y="438" on="0"/>
        <pt x="166" y="460" on="0"/>
        <pt x="193" y="476" on="0"/>
        <pt x="205" y="476" on="1"/>
        <pt x="222" y="476" on="0"/>
        <pt x="250" y="451" on="0"/>
        <pt x="274" y="410" on="0"/>
        <pt x="292" y="360" on="0"/>
        <pt x="305" y="312" on="0"/>
        <pt x="312" y="271" on="0"/>
        <pt x="312" y="260" on="1"/>
        <pt x="312" y="227" on="0"/>
        <pt x="275" y="169" on="0"/>
        <pt x="220" y="124" on="0"/>
        <pt x="154" y="99" on="0"/>
        <pt x="124" y="99" on="1"/>
        <pt x="111" y="99" on="0"/>
        <pt x="104" y="97" on="0"/>
        <pt x="100" y="96" on="0"/>
        <pt x="92" y="97" on="0"/>
      </contour>
      <contour>
        <pt x="197" y="431" on="1"/>
        <pt x="167" y="405" on="0"/>
        <pt x="121" y="334" on="0"/>
        <pt x="89" y="254" on="0"/>
        <pt x="73" y="170" on="0"/>
        <pt x="73" y="131" on="1"/>
        <pt x="102" y="131" on="0"/>
        <pt x="169" y="145" on="0"/>
        <pt x="228" y="176" on="0"/>
        <pt x="268" y="227" on="0"/>
        <pt x="268" y="265" on="1"/>
        <pt x="268" y="285" on="0"/>
        <pt x="260" y="334" on="0"/>
        <pt x="244" y="382" on="0"/>
        <pt x="217" y="421" on="0"/>
      </contour>
    </TTGlyph>
    <TTGlyph name="U" xMin="18" yMin="0" xMax="367" yMax="577">
      <contour>
        <pt x="39" y="446" on="1"/>
        <pt x="44" y="446" on="0"/>
        <pt x="53" y="437" on="0"/>
        <pt x="58" y="425" on="0"/>
        <pt x="61" y="413" on="0"/>
        <pt x="61" y="410" on="1"/>
        <pt x="61" y="184" on="1"/>
        <pt x="61" y="161" on="0"/>
        <pt x="79" y="112" on="0"/>
        <pt x="109" y="70" on="0"/>
        <pt x="149" y="43" on="0"/>
        <pt x="173" y="43" on="1"/>
        <pt x="204" y="43" on="0"/>
        <pt x="252" y="73" on="0"/>
        <pt x="289" y="121" on="0"/>
        <pt x="316" y="184" on="0"/>
        <pt x="333" y="247" on="0"/>
        <pt x="340" y="307" on="0"/>
        <pt x="340" y="331" on="1"/>
        <pt x="340" y="340" on="0"/>
        <pt x="340" y="381" on="0"/>
        <pt x="335" y="432" on="0"/>
        <pt x="327" y="486" on="0"/>
        <pt x="311" y="528" on="0"/>
        <pt x="288" y="553" on="0"/>
        <pt x="271" y="550" on="1"/>
        <pt x="271" y="550" on="0"/>
        <pt x="269" y="553" on="0"/>
        <pt x="269" y="554" on="1"/>
        <pt x="269" y="565" on="0"/>
        <pt x="288" y="577" on="0"/>
        <pt x="297" y="577" on="1"/>
        <pt x="310" y="577" on="0"/>
        <pt x="330" y="559" on="0"/>
        <pt x="346" y="532" on="0"/>
        <pt x="356" y="497" on="0"/>
        <pt x="363" y="464" on="0"/>
        <pt x="366" y="436" on="0"/>
        <pt x="367" y="427" on="1"/>
        <pt x="367" y="426" on="0"/>
        <pt x="367" y="403" on="0"/>
        <pt x="367" y="373" on="0"/>
        <pt x="367" y="341" on="0"/>
        <pt x="367" y="331" on="1"/>
        <pt x="367" y="325" on="0"/>
        <pt x="367" y="298" on="0"/>
        <pt x="367" y="268" on="0"/>
        <pt x="367" y="241" on="0"/>
        <pt x="367" y="235" on="1"/>
        <pt x="358" y="200" on="0"/>
        <pt x="328" y="118" on="0"/>
        <pt x="281" y="47" on="0"/>
        <pt x="215" y="0" on="0"/>
        <pt x="170" y="0" on="1"/>
        <pt x="138" y="0" on="0"/>
        <pt x="82" y="35" on="0"/>
        <pt x="41" y="89" on="0"/>
        <pt x="18" y="154" on="0"/>
        <pt x="18" y="184" on="1"/>
        <pt x="18" y="427" on="1"/>
        <pt x="18" y="429" on="0"/>
        <pt x="31" y="442" on="0"/>
        <pt x="35" y="445" on="1"/>
        <pt x="37" y="445" on="1"/>
        <pt x="37" y="445" on="0"/>
        <pt x="38" y="446" on="0"/>
      </contour>
    </TTGlyph>
    <TTGlyph name="Uacute" xMin="18" yMin="0" xMax="367" yMax="807">
      <component glyphName="U" x="0" y="0" flags="0x1204"/>
      <component glyphName="acute" x="121" y="154" flags="0x1004"/>
    </TTGlyph>
    <TTGlyph name="Ubreve" xMin="18" yMin="0" xMax="367" yMax="794">
      <component glyphName="U" x="0" y="0" flags="0x1204"/>
      <component glyphName="breve" x="102" y="154" flags="0x1004"/>
    </TTGlyph>
    <TTGlyph name="Ucircumflex" xMin="18" yMin="0" xMax="367" yMax="801">
      <component glyphName="U" x="0" y="0" flags="0x1204"/>
      <component glyphName="circumflex" x="-40" y="98" flags="0x1004"/>
    </TTGlyph>
    <TTGlyph name="Udieresis" xMin="18" yMin="0" xMax="367" yMax="730">
      <component glyphName="U" x="0" y="0" flags="0x1204"/>
      <component glyphName="dieresis" x="13" y="154" flags="0x1004"/>
    </TTGlyph>
    <TTGlyph name="Ugrave" xMin="18" yMin="0" xMax="367" yMax="818">
      <component glyphName="U" x="0" y="0" flags="0x1204"/>
      <component glyphName="grave" x="145" y="154" flags="0x1004"/>
    </TTGlyph>
    <TTGlyph name="Uhungarumlaut" xMin="18" yMin="0" xMax="367" yMax="796">
      <component glyphName="U" x="0" y="0" flags="0x1204"/>
      <component glyphName="hungarumlaut" x="68" y="154" flags="0x1004"/>
    </TTGlyph>
    <TTGlyph name="Umacron" xMin="18" yMin="0" xMax="367" yMax="723">
      <component glyphName="U" x="0" y="0" flags="0x1204"/>
      <component glyphName="macron" x="13" y="154" flags="0x1004"/>
    </TTGlyph>
    <TTGlyph name="Uogonek" xMin="18" yMin="-137" xMax="367" yMax="577">
      <contour>
        <pt x="39" y="446" on="1"/>
        <pt x="44" y="446" on="0"/>
        <pt x="53" y="437" on="0"/>
        <pt x="58" y="425" on="0"/>
        <pt x="61" y="413" on="0"/>
        <pt x="61" y="410" on="1"/>
        <pt x="61" y="184" on="1"/>
        <pt x="61" y="161" on="0"/>
        <pt x="79" y="112" on="0"/>
        <pt x="109" y="70" on="0"/>
        <pt x="149" y="43" on="0"/>
        <pt x="173" y="43" on="1"/>
        <pt x="204" y="43" on="0"/>
        <pt x="252" y="73" on="0"/>
        <pt x="289" y="121" on="0"/>
        <pt x="316" y="184" on="0"/>
        <pt x="333" y="247" on="0"/>
        <pt x="340" y="307" on="0"/>
        <pt x="340" y="331" on="1"/>
        <pt x="340" y="340" on="0"/>
        <pt x="340" y="381" on="0"/>
        <pt x="335" y="432" on="0"/>
        <pt x="327" y="486" on="0"/>
        <pt x="311" y="528" on="0"/>
        <pt x="288" y="553" on="0"/>
        <pt x="271" y="550" on="1"/>
        <pt x="271" y="550" on="0"/>
        <pt x="269" y="553" on="0"/>
        <pt x="269" y="554" on="1"/>
        <pt x="269" y="565" on="0"/>
        <pt x="288" y="577" on="0"/>
        <pt x="297" y="577" on="1"/>
        <pt x="310" y="577" on="0"/>
        <pt x="330" y="559" on="0"/>
        <pt x="346" y="532" on="0"/>
        <pt x="356" y="497" on="0"/>
        <pt x="363" y="464" on="0"/>
        <pt x="366" y="436" on="0"/>
        <pt x="367" y="427" on="1"/>
        <pt x="367" y="414" on="1"/>
        <pt x="367" y="403" on="0"/>
        <pt x="367" y="373" on="0"/>
        <pt x="367" y="357" on="1"/>
        <pt x="367" y="312" on="1"/>
        <pt x="367" y="298" on="0"/>
        <pt x="367" y="268" on="0"/>
        <pt x="367" y="254" on="1"/>
        <pt x="367" y="235" on="1"/>
        <pt x="358" y="200" on="0"/>
        <pt x="328" y="118" on="0"/>
        <pt x="281" y="47" on="0"/>
        <pt x="248" y="23" on="1"/>
        <pt x="231" y="11" on="0"/>
        <pt x="210" y="5" on="1"/>
        <pt x="204" y="-3" on="0"/>
        <pt x="200" y="-15" on="1"/>
        <pt x="193" y="-41" on="0"/>
        <pt x="208" y="-79" on="1"/>
        <pt x="213" y="-92" on="0"/>
        <pt x="231" y="-95" on="0"/>
        <pt x="252" y="-89" on="0"/>
        <pt x="276" y="-77" on="0"/>
        <pt x="298" y="-71" on="0"/>
        <pt x="316" y="-77" on="0"/>
        <pt x="322" y="-91" on="1"/>
        <pt x="323" y="-104" on="0"/>
        <pt x="298" y="-125" on="0"/>
        <pt x="260" y="-136" on="0"/>
        <pt x="219" y="-137" on="0"/>
        <pt x="205" y="-131" on="1"/>
        <pt x="190" y="-128" on="0"/>
        <pt x="170" y="-102" on="0"/>
        <pt x="164" y="-86" on="1"/>
        <pt x="160" y="-74" on="0"/>
        <pt x="163" y="-38" on="0"/>
        <pt x="169" y="-20" on="1"/>
        <pt x="172" y="-9" on="0"/>
        <pt x="176" y="0" on="1"/>
        <pt x="170" y="0" on="1"/>
        <pt x="138" y="0" on="0"/>
        <pt x="82" y="35" on="0"/>
        <pt x="41" y="89" on="0"/>
        <pt x="18" y="154" on="0"/>
        <pt x="18" y="184" on="1"/>
        <pt x="18" y="427" on="1"/>
        <pt x="18" y="429" on="0"/>
        <pt x="31" y="442" on="0"/>
        <pt x="35" y="445" on="1"/>
        <pt x="37" y="445" on="1"/>
      </contour>
    </TTGlyph>
    <TTGlyph name="Uring" xMin="18" yMin="0" xMax="367" yMax="783">
      <component glyphName="U" x="0" y="0" flags="0x1204"/>
      <component glyphName="ring" x="39" y="154" flags="0x1004"/>
    </TTGlyph>
    <TTGlyph name="Utilde" xMin="18" yMin="0" xMax="367" yMax="819">
      <component glyphName="U" x="0" y="0" flags="0x1204"/>
      <component glyphName="tilde" x="73" y="154" flags="0x1004"/>
    </TTGlyph>
    <TTGlyph name="V" xMin="18" yMin="-1" xMax="410" yMax="524">
      <contour>
        <pt x="18" y="462" on="1"/>
        <pt x="18" y="469" on="0"/>
        <pt x="22" y="490" on="0"/>
        <pt x="31" y="510" on="0"/>
        <pt x="43" y="524" on="0"/>
        <pt x="52" y="524" on="1"/>
        <pt x="58" y="524" on="0"/>
        <pt x="67" y="522" on="0"/>
        <pt x="70" y="514" on="1"/>
        <pt x="64" y="470" on="0"/>
        <pt x="70" y="394" on="0"/>
        <pt x="89" y="321" on="0"/>
        <pt x="116" y="249" on="0"/>
        <pt x="131" y="210" on="1"/>
        <pt x="132" y="209" on="0"/>
        <pt x="132" y="202" on="0"/>
        <pt x="131" y="200" on="1"/>
        <pt x="133" y="196" on="0"/>
        <pt x="145" y="173" on="0"/>
        <pt x="159" y="148" on="0"/>
        <pt x="172" y="127" on="0"/>
        <pt x="175" y="122" on="1"/>
        <pt x="180" y="113" on="0"/>
        <pt x="193" y="88" on="0"/>
        <pt x="209" y="67" on="0"/>
        <pt x="229" y="52" on="0"/>
        <pt x="241" y="52" on="1"/>
        <pt x="254" y="52" on="0"/>
        <pt x="275" y="74" on="0"/>
        <pt x="291" y="106" on="0"/>
        <pt x="302" y="139" on="0"/>
        <pt x="306" y="148" on="1"/>
        <pt x="322" y="193" on="0"/>
        <pt x="346" y="277" on="0"/>
        <pt x="364" y="362" on="0"/>
        <pt x="378" y="450" on="0"/>
        <pt x="384" y="498" on="1"/>
        <pt x="393" y="506" on="1"/>
        <pt x="406" y="500" on="0"/>
        <pt x="410" y="490" on="0"/>
        <pt x="410" y="481" on="1"/>
        <pt x="410" y="472" on="1"/>
        <pt x="409" y="462" on="0"/>
        <pt x="402" y="410" on="0"/>
        <pt x="394" y="352" on="0"/>
        <pt x="385" y="298" on="0"/>
        <pt x="384" y="288" on="1"/>
        <pt x="382" y="277" on="0"/>
        <pt x="371" y="225" on="0"/>
        <pt x="353" y="160" on="0"/>
        <pt x="329" y="92" on="0"/>
        <pt x="298" y="36" on="0"/>
        <pt x="262" y="-1" on="0"/>
        <pt x="241" y="-1" on="1"/>
        <pt x="221" y="-1" on="0"/>
        <pt x="179" y="39" on="0"/>
        <pt x="139" y="102" on="0"/>
        <pt x="100" y="178" on="0"/>
        <pt x="70" y="252" on="0"/>
        <pt x="48" y="314" on="0"/>
        <pt x="43" y="331" on="1"/>
        <pt x="42" y="337" on="0"/>
        <pt x="35" y="371" on="0"/>
        <pt x="27" y="410" on="0"/>
        <pt x="19" y="446" on="0"/>
        <pt x="18" y="454" on="1"/>
      </contour>
    </TTGlyph>
    <TTGlyph name="W" xMin="23" yMin="-1" xMax="620" yMax="533">
      <contour>
        <pt x="280" y="262" on="1"/>
        <pt x="278" y="256" on="0"/>
        <pt x="271" y="226" on="0"/>
        <pt x="262" y="193" on="0"/>
        <pt x="254" y="163" on="0"/>
        <pt x="253" y="157" on="1"/>
        <pt x="247" y="141" on="0"/>
        <pt x="234" y="98" on="0"/>
        <pt x="213" y="60" on="0"/>
        <pt x="182" y="34" on="0"/>
        <pt x="160" y="34" on="1"/>
        <pt x="129" y="34" on="0"/>
        <pt x="84" y="68" on="0"/>
        <pt x="54" y="124" on="0"/>
        <pt x="37" y="194" on="0"/>
        <pt x="28" y="265" on="0"/>
        <pt x="25" y="330" on="0"/>
        <pt x="25" y="353" on="1"/>
        <pt x="25" y="367" on="0"/>
        <pt x="22" y="416" on="0"/>
        <pt x="28" y="465" on="0"/>
        <pt x="49" y="500" on="0"/>
        <pt x="72" y="500" on="1"/>
        <pt x="72" y="494" on="0"/>
        <pt x="71" y="461" on="0"/>
        <pt x="70" y="424" on="0"/>
        <pt x="70" y="391" on="0"/>
        <pt x="70" y="384" on="1"/>
        <pt x="70" y="382" on="0"/>
        <pt x="67" y="367" on="0"/>
        <pt x="64" y="349" on="0"/>
        <pt x="61" y="334" on="0"/>
        <pt x="61" y="331" on="1"/>
        <pt x="61" y="325" on="0"/>
        <pt x="65" y="286" on="0"/>
        <pt x="71" y="242" on="0"/>
        <pt x="76" y="201" on="0"/>
        <pt x="78" y="192" on="1"/>
        <pt x="80" y="178" on="0"/>
        <pt x="92" y="139" on="0"/>
        <pt x="112" y="103" on="0"/>
        <pt x="139" y="77" on="0"/>
        <pt x="158" y="77" on="1"/>
        <pt x="181" y="77" on="0"/>
        <pt x="207" y="123" on="0"/>
        <pt x="222" y="190" on="0"/>
        <pt x="231" y="271" on="0"/>
        <pt x="242" y="338" on="0"/>
        <pt x="259" y="384" on="0"/>
        <pt x="275" y="384" on="1"/>
        <pt x="280" y="384" on="1"/>
        <pt x="281" y="383" on="0"/>
        <pt x="287" y="377" on="0"/>
        <pt x="288" y="376" on="1"/>
        <pt x="303" y="331" on="0"/>
        <pt x="343" y="238" on="0"/>
        <pt x="394" y="150" on="0"/>
        <pt x="458" y="73" on="0"/>
        <pt x="498" y="43" on="1"/>
        <pt x="499" y="43" on="0"/>
        <pt x="509" y="43" on="0"/>
        <pt x="511" y="43" on="1"/>
        <pt x="529" y="43" on="0"/>
        <pt x="544" y="70" on="0"/>
        <pt x="550" y="88" on="1"/>
        <pt x="552" y="96" on="0"/>
        <pt x="561" y="130" on="0"/>
        <pt x="569" y="166" on="0"/>
        <pt x="576" y="196" on="0"/>
        <pt x="576" y="200" on="1"/>
        <pt x="576" y="201" on="0"/>
        <pt x="576" y="224" on="0"/>
        <pt x="577" y="254" on="0"/>
        <pt x="577" y="286" on="0"/>
        <pt x="577" y="295" on="1"/>
        <pt x="577" y="307" on="0"/>
        <pt x="577" y="343" on="0"/>
        <pt x="576" y="380" on="0"/>
        <pt x="576" y="408" on="0"/>
        <pt x="576" y="410" on="1"/>
        <pt x="575" y="432" on="0"/>
        <pt x="572" y="457" on="0"/>
        <pt x="563" y="475" on="0"/>
        <pt x="546" y="489" on="0"/>
        <pt x="532" y="498" on="1"/>
        <pt x="532" y="501" on="1"/>
        <pt x="532" y="514" on="0"/>
        <pt x="538" y="533" on="0"/>
        <pt x="552" y="533" on="1"/>
        <pt x="571" y="533" on="0"/>
        <pt x="590" y="517" on="0"/>
        <pt x="594" y="498" on="1"/>
        <pt x="595" y="488" on="0"/>
        <pt x="600" y="455" on="0"/>
        <pt x="605" y="415" on="0"/>
        <pt x="611" y="374" on="0"/>
        <pt x="616" y="337" on="0"/>
        <pt x="619" y="310" on="0"/>
        <pt x="619" y="306" on="1"/>
        <pt x="619" y="304" on="0"/>
        <pt x="619" y="292" on="0"/>
        <pt x="620" y="277" on="0"/>
        <pt x="620" y="262" on="0"/>
        <pt x="620" y="257" on="1"/>
        <pt x="620" y="242" on="0"/>
        <pt x="616" y="192" on="0"/>
        <pt x="607" y="135" on="0"/>
        <pt x="592" y="76" on="0"/>
        <pt x="567" y="29" on="0"/>
        <pt x="533" y="-1" on="0"/>
        <pt x="511" y="-1" on="1"/>
        <pt x="508" y="-1" on="0"/>
        <pt x="491" y="0" on="0"/>
        <pt x="488" y="0" on="1"/>
        <pt x="452" y="34" on="0"/>
        <pt x="400" y="91" on="0"/>
        <pt x="356" y="151" on="0"/>
        <pt x="314" y="218" on="0"/>
        <pt x="288" y="262" on="1"/>
      </contour>
    </TTGlyph>
    <TTGlyph name="Wacute" xMin="23" yMin="-1" xMax="620" yMax="807">
      <component glyphName="W" x="0" y="0" flags="0x1204"/>
      <component glyphName="acute" x="248" y="154" flags="0x1004"/>
    </TTGlyph>
    <TTGlyph name="Wcircumflex" xMin="23" yMin="-1" xMax="620" yMax="857">
      <component glyphName="W" x="0" y="0" flags="0x1204"/>
      <component glyphName="circumflex" x="148" y="154" flags="0x1004"/>
    </TTGlyph>
    <TTGlyph name="Wdieresis" xMin="23" yMin="-1" xMax="620" yMax="730">
      <component glyphName="W" x="0" y="0" flags="0x1204"/>
      <component glyphName="dieresis" x="140" y="154" flags="0x1004"/>
    </TTGlyph>
    <TTGlyph name="Wgrave" xMin="23" yMin="-1" xMax="620" yMax="818">
      <component glyphName="W" x="0" y="0" flags="0x1204"/>
      <component glyphName="grave" x="271" y="154" flags="0x1004"/>
    </TTGlyph>
    <TTGlyph name="X" xMin="7" yMin="-4" xMax="488" yMax="550">
      <contour>
        <pt x="356" y="169" on="1"/>
        <pt x="356" y="196" on="0"/>
        <pt x="367" y="250" on="0"/>
        <pt x="381" y="301" on="0"/>
        <pt x="392" y="353" on="0"/>
        <pt x="392" y="379" on="1"/>
        <pt x="392" y="392" on="1"/>
        <pt x="379" y="376" on="0"/>
        <pt x="349" y="320" on="0"/>
        <pt x="318" y="254" on="0"/>
        <pt x="283" y="186" on="0"/>
        <pt x="245" y="130" on="0"/>
        <pt x="205" y="95" on="0"/>
        <pt x="183" y="95" on="1"/>
        <pt x="170" y="95" on="0"/>
        <pt x="164" y="110" on="0"/>
        <pt x="164" y="121" on="1"/>
        <pt x="164" y="157" on="0"/>
        <pt x="194" y="220" on="0"/>
        <pt x="239" y="276" on="0"/>
        <pt x="292" y="325" on="0"/>
        <pt x="314" y="349" on="1"/>
        <pt x="314" y="352" on="0"/>
        <pt x="315" y="367" on="0"/>
        <pt x="315" y="371" on="1"/>
        <pt x="315" y="400" on="0"/>
        <pt x="296" y="451" on="0"/>
        <pt x="262" y="487" on="0"/>
        <pt x="213" y="508" on="0"/>
        <pt x="182" y="508" on="1"/>
        <pt x="157" y="508" on="0"/>
        <pt x="109" y="485" on="0"/>
        <pt x="66" y="458" on="0"/>
        <pt x="31" y="436" on="0"/>
        <pt x="22" y="436" on="1"/>
        <pt x="13" y="436" on="0"/>
        <pt x="7" y="448" on="0"/>
        <pt x="7" y="454" on="1"/>
        <pt x="7" y="475" on="0"/>
        <pt x="53" y="509" on="0"/>
        <pt x="115" y="535" on="0"/>
        <pt x="176" y="550" on="0"/>
        <pt x="192" y="550" on="1"/>
        <pt x="236" y="550" on="0"/>
        <pt x="285" y="524" on="0"/>
        <pt x="316" y="482" on="0"/>
        <pt x="339" y="430" on="0"/>
        <pt x="358" y="402" on="1"/>
        <pt x="358" y="401" on="0"/>
        <pt x="359" y="401" on="1"/>
        <pt x="361" y="401" on="1"/>
        <pt x="376" y="401" on="0"/>
        <pt x="398" y="419" on="0"/>
        <pt x="416" y="447" on="0"/>
        <pt x="430" y="478" on="0"/>
        <pt x="445" y="506" on="0"/>
        <pt x="461" y="524" on="0"/>
        <pt x="471" y="524" on="1"/>
        <pt x="478" y="524" on="0"/>
        <pt x="488" y="518" on="0"/>
        <pt x="488" y="511" on="1"/>
        <pt x="488" y="506" on="1"/>
        <pt x="475" y="466" on="0"/>
        <pt x="442" y="389" on="0"/>
        <pt x="412" y="310" on="0"/>
        <pt x="391" y="229" on="0"/>
        <pt x="391" y="187" on="1"/>
        <pt x="391" y="154" on="0"/>
        <pt x="402" y="106" on="0"/>
        <pt x="424" y="67" on="0"/>
        <pt x="461" y="34" on="0"/>
        <pt x="488" y="18" on="1"/>
        <pt x="488" y="-4" on="1"/>
        <pt x="452" y="-4" on="0"/>
        <pt x="402" y="29" on="0"/>
        <pt x="370" y="79" on="0"/>
        <pt x="356" y="140" on="0"/>
      </contour>
      <contour>
        <pt x="270" y="253" on="1"/>
        <pt x="257" y="245" on="0"/>
        <pt x="240" y="214" on="0"/>
        <pt x="235" y="200" on="1"/>
        <pt x="247" y="210" on="0"/>
        <pt x="264" y="239" on="0"/>
      </contour>
    </TTGlyph>
    <TTGlyph name="Y" xMin="16" yMin="-194" xMax="419" yMax="550">
      <contour>
        <pt x="244" y="-45" on="1"/>
        <pt x="244" y="-19" on="0"/>
        <pt x="252" y="33" on="0"/>
        <pt x="262" y="84" on="0"/>
        <pt x="271" y="135" on="0"/>
        <pt x="271" y="161" on="1"/>
        <pt x="271" y="166" on="1"/>
        <pt x="217" y="176" on="0"/>
        <pt x="124" y="217" on="0"/>
        <pt x="56" y="283" on="0"/>
        <pt x="17" y="374" on="0"/>
        <pt x="17" y="435" on="1"/>
        <pt x="17" y="444" on="0"/>
        <pt x="16" y="475" on="0"/>
        <pt x="22" y="503" on="0"/>
        <pt x="37" y="524" on="0"/>
        <pt x="52" y="524" on="1"/>
        <pt x="66" y="524" on="0"/>
        <pt x="79" y="518" on="0"/>
        <pt x="79" y="503" on="1"/>
        <pt x="79" y="490" on="0"/>
        <pt x="73" y="466" on="0"/>
        <pt x="67" y="443" on="0"/>
        <pt x="61" y="418" on="0"/>
        <pt x="61" y="406" on="1"/>
        <pt x="61" y="370" on="0"/>
        <pt x="91" y="301" on="0"/>
        <pt x="142" y="249" on="0"/>
        <pt x="208" y="217" on="0"/>
        <pt x="244" y="217" on="1"/>
        <pt x="247" y="217" on="0"/>
        <pt x="256" y="217" on="0"/>
        <pt x="268" y="218" on="0"/>
        <pt x="277" y="218" on="0"/>
        <pt x="280" y="218" on="1"/>
        <pt x="298" y="230" on="0"/>
        <pt x="319" y="289" on="0"/>
        <pt x="333" y="362" on="0"/>
        <pt x="343" y="442" on="0"/>
        <pt x="359" y="507" on="0"/>
        <pt x="382" y="550" on="0"/>
        <pt x="402" y="550" on="1"/>
        <pt x="403" y="550" on="0"/>
        <pt x="409" y="543" on="0"/>
        <pt x="410" y="541" on="1"/>
        <pt x="411" y="540" on="0"/>
        <pt x="413" y="527" on="0"/>
        <pt x="415" y="510" on="0"/>
        <pt x="418" y="493" on="0"/>
        <pt x="419" y="488" on="1"/>
        <pt x="419" y="484" on="1"/>
        <pt x="419" y="436" on="0"/>
        <pt x="398" y="345" on="0"/>
        <pt x="367" y="258" on="0"/>
        <pt x="331" y="173" on="0"/>
        <pt x="300" y="86" on="0"/>
        <pt x="279" y="-4" on="0"/>
        <pt x="279" y="-53" on="1"/>
        <pt x="279" y="-89" on="0"/>
        <pt x="290" y="-158" on="0"/>
        <pt x="290" y="-194" on="1"/>
        <pt x="277" y="-194" on="0"/>
        <pt x="259" y="-176" on="0"/>
        <pt x="249" y="-148" on="0"/>
        <pt x="244" y="-113" on="0"/>
        <pt x="243" y="-80" on="0"/>
        <pt x="244" y="-52" on="0"/>
      </contour>
    </TTGlyph>
    <TTGlyph name="Yacute" xMin="16" yMin="-194" xMax="419" yMax="807">
      <component glyphName="Y" x="0" y="0" flags="0x1204"/>
      <component glyphName="acute" x="148" y="154" flags="0x1004"/>
    </TTGlyph>
    <TTGlyph name="Ycircumflex" xMin="16" yMin="-194" xMax="419" yMax="857">
      <component glyphName="Y" x="0" y="0" flags="0x1204"/>
      <component glyphName="circumflex" x="48" y="154" flags="0x1004"/>
    </TTGlyph>
    <TTGlyph name="Ydieresis" xMin="16" yMin="-194" xMax="419" yMax="651">
      <component glyphName="Y" x="0" y="0" flags="0x1204"/>
      <component glyphName="dieresis" x="36" y="75" flags="0x1004"/>
    </TTGlyph>
    <TTGlyph name="Ygrave" xMin="16" yMin="-194" xMax="419" yMax="818">
      <component glyphName="Y" x="0" y="0" flags="0x1204"/>
      <component glyphName="grave" x="172" y="154" flags="0x1004"/>
    </TTGlyph>
    <TTGlyph name="Z" xMin="17" yMin="0" xMax="604" yMax="655">
      <contour>
        <pt x="175" y="83" on="1"/>
        <pt x="175" y="119" on="0"/>
        <pt x="217" y="193" on="0"/>
        <pt x="282" y="268" on="0"/>
        <pt x="356" y="344" on="0"/>
        <pt x="421" y="423" on="0"/>
        <pt x="463" y="503" on="0"/>
        <pt x="463" y="544" on="1"/>
        <pt x="463" y="573" on="0"/>
        <pt x="433" y="604" on="0"/>
        <pt x="388" y="617" on="0"/>
        <pt x="336" y="619" on="0"/>
        <pt x="314" y="619" on="1"/>
        <pt x="296" y="619" on="0"/>
        <pt x="253" y="617" on="0"/>
        <pt x="209" y="611" on="0"/>
        <pt x="166" y="601" on="0"/>
        <pt x="148" y="594" on="1"/>
        <pt x="146" y="592" on="0"/>
        <pt x="131" y="584" on="0"/>
        <pt x="113" y="575" on="0"/>
        <pt x="98" y="568" on="0"/>
        <pt x="96" y="568" on="1"/>
        <pt x="95" y="567" on="0"/>
        <pt x="87" y="566" on="0"/>
        <pt x="76" y="565" on="0"/>
        <pt x="64" y="565" on="0"/>
        <pt x="61" y="565" on="1"/>
        <pt x="59" y="565" on="0"/>
        <pt x="49" y="565" on="0"/>
        <pt x="38" y="566" on="0"/>
        <pt x="28" y="567" on="0"/>
        <pt x="26" y="568" on="1"/>
        <pt x="19" y="570" on="0"/>
        <pt x="17" y="579" on="0"/>
        <pt x="17" y="584" on="1"/>
        <pt x="17" y="598" on="0"/>
        <pt x="57" y="619" on="0"/>
        <pt x="119" y="634" on="0"/>
        <pt x="194" y="645" on="0"/>
        <pt x="265" y="652" on="0"/>
        <pt x="320" y="655" on="0"/>
        <pt x="332" y="655" on="1"/>
        <pt x="363" y="655" on="0"/>
        <pt x="425" y="645" on="0"/>
        <pt x="475" y="619" on="0"/>
        <pt x="507" y="573" on="0"/>
        <pt x="507" y="536" on="1"/>
        <pt x="507" y="493" on="0"/>
        <pt x="464" y="413" on="0"/>
        <pt x="400" y="337" on="0"/>
        <pt x="324" y="262" on="0"/>
        <pt x="259" y="190" on="0"/>
        <pt x="217" y="119" on="0"/>
        <pt x="217" y="83" on="1"/>
        <pt x="217" y="70" on="0"/>
        <pt x="220" y="49" on="0"/>
        <pt x="235" y="43" on="1"/>
        <pt x="238" y="43" on="0"/>
        <pt x="246" y="43" on="0"/>
        <pt x="256" y="43" on="0"/>
        <pt x="265" y="43" on="0"/>
        <pt x="266" y="43" on="1"/>
        <pt x="283" y="43" on="0"/>
        <pt x="307" y="45" on="0"/>
        <pt x="328" y="50" on="0"/>
        <pt x="355" y="61" on="0"/>
        <pt x="376" y="70" on="1"/>
        <pt x="382" y="73" on="0"/>
        <pt x="412" y="86" on="0"/>
        <pt x="451" y="103" on="0"/>
        <pt x="492" y="122" on="0"/>
        <pt x="530" y="139" on="0"/>
        <pt x="560" y="154" on="0"/>
        <pt x="568" y="157" on="1"/>
        <pt x="604" y="157" on="1"/>
        <pt x="604" y="151" on="0"/>
        <pt x="599" y="142" on="0"/>
        <pt x="594" y="139" on="1"/>
        <pt x="323" y="8" on="1"/>
        <pt x="322" y="8" on="0"/>
        <pt x="309" y="6" on="0"/>
        <pt x="292" y="3" on="0"/>
        <pt x="276" y="1" on="0"/>
        <pt x="271" y="0" on="1"/>
        <pt x="257" y="0" on="1"/>
        <pt x="219" y="0" on="0"/>
        <pt x="175" y="44" on="0"/>
      </contour>
    </TTGlyph>
    <TTGlyph name="Zacute" xMin="17" yMin="0" xMax="604" yMax="807">
      <component glyphName="Z" x="0" y="0" flags="0x1204"/>
      <component glyphName="acute" x="235" y="154" flags="0x1004"/>
    </TTGlyph>
    <TTGlyph name="Zcaron" xMin="17" yMin="0" xMax="604" yMax="801">
      <component glyphName="Z" x="0" y="0" flags="0x1204"/>
      <component glyphName="caron" x="127" y="154" flags="0x1004"/>
    </TTGlyph>
    <TTGlyph name="Zdotaccent" xMin="17" yMin="0" xMax="604" yMax="801">
      <component glyphName="Z" x="0" y="0" flags="0x1204"/>
      <component glyphName="dotaccent" x="208" y="238" flags="0x1004"/>
    </TTGlyph>
    <TTGlyph name="a" xMin="17" yMin="-1" xMax="484" yMax="348">
      <contour>
        <pt x="244" y="122" on="1"/>
        <pt x="229" y="104" on="0"/>
        <pt x="190" y="64" on="0"/>
        <pt x="145" y="30" on="0"/>
        <pt x="96" y="7" on="0"/>
        <pt x="70" y="7" on="1"/>
        <pt x="17" y="7" on="0"/>
        <pt x="17" y="58" on="1"/>
        <pt x="17" y="79" on="0"/>
        <pt x="52" y="148" on="0"/>
        <pt x="108" y="224" on="0"/>
        <pt x="176" y="295" on="0"/>
        <pt x="244" y="342" on="0"/>
        <pt x="301" y="354" on="0"/>
        <pt x="319" y="331" on="1"/>
        <pt x="319" y="304" on="0"/>
        <pt x="311" y="250" on="0"/>
        <pt x="303" y="197" on="0"/>
        <pt x="295" y="145" on="0"/>
        <pt x="295" y="118" on="1"/>
        <pt x="295" y="112" on="0"/>
        <pt x="298" y="87" on="0"/>
        <pt x="305" y="62" on="0"/>
        <pt x="317" y="43" on="0"/>
        <pt x="327" y="43" on="1"/>
        <pt x="351" y="43" on="0"/>
        <pt x="382" y="55" on="0"/>
        <pt x="405" y="72" on="0"/>
        <pt x="422" y="94" on="0"/>
        <pt x="441" y="116" on="0"/>
        <pt x="465" y="136" on="0"/>
        <pt x="484" y="142" on="1"/>
        <pt x="484" y="142" on="0"/>
        <pt x="484" y="136" on="0"/>
        <pt x="484" y="134" on="1"/>
        <pt x="484" y="109" on="0"/>
        <pt x="454" y="60" on="0"/>
        <pt x="408" y="22" on="0"/>
        <pt x="351" y="-1" on="0"/>
        <pt x="324" y="-1" on="1"/>
        <pt x="301" y="-1" on="0"/>
        <pt x="273" y="25" on="0"/>
        <pt x="256" y="61" on="0"/>
        <pt x="248" y="104" on="0"/>
      </contour>
      <contour>
        <pt x="262" y="253" on="1"/>
        <pt x="272" y="286" on="0"/>
        <pt x="267" y="310" on="0"/>
        <pt x="243" y="305" on="0"/>
        <pt x="205" y="276" on="0"/>
        <pt x="161" y="235" on="0"/>
        <pt x="117" y="185" on="0"/>
        <pt x="79" y="140" on="0"/>
        <pt x="55" y="104" on="0"/>
        <pt x="52" y="96" on="1"/>
        <pt x="46" y="73" on="0"/>
        <pt x="55" y="49" on="0"/>
        <pt x="74" y="40" on="0"/>
        <pt x="97" y="46" on="0"/>
        <pt x="105" y="52" on="1"/>
        <pt x="122" y="67" on="0"/>
        <pt x="174" y="118" on="0"/>
        <pt x="223" y="176" on="0"/>
        <pt x="259" y="233" on="0"/>
      </contour>
    </TTGlyph>
    <TTGlyph name="aacute" xMin="17" yMin="-1" xMax="484" yMax="533">
      <component glyphName="a" x="0" y="0" flags="0x1204"/>
      <component glyphName="acute" x="154" y="-120" flags="0x1004"/>
    </TTGlyph>
    <TTGlyph name="abreve" xMin="17" yMin="-1" xMax="484" yMax="519">
      <component glyphName="a" x="0" y="0" flags="0x1204"/>
      <component glyphName="breve" x="122" y="-121" flags="0x1004"/>
    </TTGlyph>
    <TTGlyph name="acircumflex" xMin="17" yMin="-1" xMax="484" yMax="572">
      <component glyphName="a" x="0" y="0" flags="0x1204"/>
      <component glyphName="circumflex" x="50" y="-131" flags="0x1004"/>
    </TTGlyph>
    <TTGlyph name="acute" xMin="16" yMin="528" xMax="116" yMax="653">
      <contour>
        <pt x="73" y="568" on="1"/>
        <pt x="67" y="562" on="0"/>
        <pt x="55" y="544" on="0"/>
        <pt x="40" y="530" on="0"/>
        <pt x="24" y="527" on="0"/>
        <pt x="16" y="537" on="1"/>
        <pt x="52" y="599" on="1"/>
        <pt x="57" y="614" on="0"/>
        <pt x="80" y="643" on="0"/>
        <pt x="90" y="653" on="1"/>
        <pt x="100" y="667" on="0"/>
        <pt x="111" y="652" on="1"/>
        <pt x="119" y="643" on="0"/>
        <pt x="113" y="619" on="0"/>
        <pt x="97" y="595" on="0"/>
        <pt x="78" y="574" on="0"/>
      </contour>
    </TTGlyph>
    <TTGlyph name="adieresis" xMin="17" yMin="-1" xMax="484" yMax="452">
      <component glyphName="a" x="0" y="0" flags="0x1204"/>
      <component glyphName="dieresis" x="55" y="-124" flags="0x1004"/>
    </TTGlyph>
    <TTGlyph name="ae" xMin="17" yMin="-1" xMax="611" yMax="366">
      <contour>
        <pt x="244" y="122" on="1"/>
        <pt x="229" y="104" on="0"/>
        <pt x="190" y="64" on="0"/>
        <pt x="145" y="30" on="0"/>
        <pt x="96" y="7" on="0"/>
        <pt x="70" y="7" on="1"/>
        <pt x="17" y="7" on="0"/>
        <pt x="17" y="58" on="1"/>
        <pt x="17" y="79" on="0"/>
        <pt x="52" y="148" on="0"/>
        <pt x="108" y="224" on="0"/>
        <pt x="176" y="295" on="0"/>
        <pt x="244" y="342" on="0"/>
        <pt x="301" y="354" on="0"/>
        <pt x="319" y="331" on="1"/>
        <pt x="319" y="323" on="0"/>
        <pt x="318" y="309" on="0"/>
        <pt x="317" y="301" on="1"/>
        <pt x="324" y="315" on="0"/>
        <pt x="341" y="339" on="0"/>
        <pt x="365" y="356" on="0"/>
        <pt x="397" y="366" on="0"/>
        <pt x="418" y="366" on="1"/>
        <pt x="424" y="366" on="0"/>
        <pt x="439" y="364" on="0"/>
        <pt x="452" y="358" on="0"/>
        <pt x="461" y="348" on="0"/>
        <pt x="461" y="340" on="1"/>
        <pt x="461" y="319" on="0"/>
        <pt x="441" y="286" on="0"/>
        <pt x="409" y="258" on="0"/>
        <pt x="374" y="234" on="0"/>
        <pt x="343" y="211" on="0"/>
        <pt x="322" y="187" on="0"/>
        <pt x="322" y="173" on="1"/>
        <pt x="322" y="77" on="1"/>
        <pt x="322" y="68" on="0"/>
        <pt x="335" y="56" on="0"/>
        <pt x="355" y="47" on="0"/>
        <pt x="376" y="43" on="0"/>
        <pt x="384" y="42" on="1"/>
        <pt x="391" y="42" on="1"/>
        <pt x="416" y="42" on="0"/>
        <pt x="463" y="58" on="0"/>
        <pt x="508" y="85" on="0"/>
        <pt x="549" y="115" on="0"/>
        <pt x="567" y="130" on="1"/>
        <pt x="573" y="135" on="0"/>
        <pt x="582" y="145" on="0"/>
        <pt x="591" y="155" on="0"/>
        <pt x="602" y="163" on="0"/>
        <pt x="610" y="165" on="1"/>
        <pt x="610" y="163" on="0"/>
        <pt x="611" y="157" on="0"/>
        <pt x="611" y="156" on="1"/>
        <pt x="611" y="148" on="0"/>
        <pt x="607" y="136" on="0"/>
        <pt x="601" y="130" on="1"/>
        <pt x="579" y="104" on="0"/>
        <pt x="544" y="65" on="0"/>
        <pt x="512" y="37" on="0"/>
        <pt x="476" y="16" on="0"/>
        <pt x="430" y="4" on="0"/>
        <pt x="367" y="-1" on="0"/>
        <pt x="324" y="-1" on="1"/>
        <pt x="301" y="-1" on="0"/>
        <pt x="273" y="25" on="0"/>
        <pt x="256" y="61" on="0"/>
        <pt x="248" y="104" on="0"/>
      </contour>
      <contour>
        <pt x="262" y="253" on="1"/>
        <pt x="272" y="286" on="0"/>
        <pt x="267" y="310" on="0"/>
        <pt x="243" y="305" on="0"/>
        <pt x="205" y="276" on="0"/>
        <pt x="161" y="235" on="0"/>
        <pt x="117" y="185" on="0"/>
        <pt x="79" y="140" on="0"/>
        <pt x="55" y="104" on="0"/>
        <pt x="52" y="96" on="1"/>
        <pt x="46" y="73" on="0"/>
        <pt x="55" y="49" on="0"/>
        <pt x="74" y="40" on="0"/>
        <pt x="97" y="46" on="0"/>
        <pt x="105" y="52" on="1"/>
        <pt x="122" y="67" on="0"/>
        <pt x="174" y="118" on="0"/>
        <pt x="223" y="176" on="0"/>
        <pt x="259" y="233" on="0"/>
      </contour>
      <contour>
        <pt x="375" y="287" on="1"/>
        <pt x="375" y="289" on="0"/>
        <pt x="367" y="285" on="0"/>
        <pt x="359" y="277" on="0"/>
        <pt x="355" y="269" on="0"/>
        <pt x="357" y="269" on="1"/>
        <pt x="361" y="268" on="0"/>
        <pt x="376" y="283" on="0"/>
      </contour>
    </TTGlyph>
    <TTGlyph name="aeacute" xMin="17" yMin="-1" xMax="611" yMax="568">
      <component glyphName="ae" x="0" y="0" flags="0x1204"/>
      <component glyphName="acute" x="239" y="-85" flags="0x1004"/>
    </TTGlyph>
    <TTGlyph name="agrave" xMin="17" yMin="-1" xMax="484" yMax="552">
      <component glyphName="a" x="0" y="0" flags="0x1204"/>
      <component glyphName="grave" x="198" y="-112" flags="0x1004"/>
    </TTGlyph>
    <TTGlyph name="amacron" xMin="17" yMin="-1" xMax="484" yMax="481">
      <component glyphName="a" x="0" y="0" flags="0x1204"/>
      <component glyphName="macron" x="62" y="-88" flags="0x1004"/>
    </TTGlyph>
</ttFont>
